{"glyphs":{"0":{"ha":633,"x_min":0,"x_max":0,"o":"m 604 390 b 632 531 618 436 631 482 b 621 601 633 554 632 579 b 597 631 615 613 607 622 b 561 642 586 638 574 640 b 557 639 560 642 557 640 b 561 633 557 636 558 635 b 592 622 572 632 583 629 b 613 597 600 617 607 607 b 622 531 621 576 622 553 b 592 394 619 485 607 439 b 469 143 560 307 518 222 b 300 -81 419 63 365 -14 b 192 -164 267 -112 232 -143 b 131 -183 172 -175 151 -182 b 72 -167 110 -183 88 -179 b 38 -118 56 -156 44 -137 b 31 -53 32 -97 31 -75 b 61 79 33 -8 46 36 b 192 325 93 167 139 247 b 368 538 243 401 301 475 b 476 619 403 569 438 597 b 538 647 496 631 517 640 b 568 654 547 650 557 653 b 582 656 572 656 578 656 b 590 657 585 657 588 657 b 594 656 592 657 594 656 b 622 675 607 654 619 663 b 603 703 625 689 615 701 b 590 704 597 704 594 704 b 579 704 586 704 583 704 b 560 701 572 703 567 703 b 522 690 547 699 535 694 b 454 658 497 682 475 671 b 339 569 411 633 374 603 b 160 346 269 501 213 425 b 29 90 108 265 61 182 b 0 -51 14 44 3 -3 b 10 -126 0 -76 3 -101 b 56 -190 18 -151 33 -175 b 132 -210 79 -206 106 -211 b 204 -187 158 -208 182 -199 b 317 -96 247 -162 283 -131 b 485 133 382 -26 436 51 b 604 390 532 215 574 300 z "},"1":{"ha":560,"x_min":0,"x_max":0,"o":"m 556 717 b 547 725 554 719 551 722 b 542 726 546 725 543 726 b 538 728 540 726 539 728 b 531 726 535 728 533 728 b 526 726 529 726 528 726 b 513 719 519 724 517 721 l 507 717 b 494 704 501 714 497 710 b 507 669 489 692 494 675 b 510 668 508 669 510 668 b 508 661 510 665 508 664 b 482 601 500 642 492 621 b 418 488 463 563 440 524 b 279 264 372 413 326 338 l 138 42 l 68 -71 b 33 -128 56 -89 44 -108 b 18 -157 28 -137 22 -147 b 10 -174 15 -162 13 -168 b 3 -194 7 -179 4 -185 l 1 -200 b 1 -208 1 -203 1 -206 b 31 -229 4 -222 17 -231 b 50 -200 43 -226 53 -214 b 53 -190 50 -199 51 -194 b 58 -175 54 -185 56 -181 b 71 -146 61 -165 65 -156 b 99 -87 79 -126 89 -107 b 160 28 118 -49 139 -10 b 225 142 182 67 203 104 b 292 256 247 181 269 218 l 426 482 b 494 593 449 519 471 557 l 532 649 b 550 678 538 658 544 668 b 560 699 553 683 557 688 b 560 704 560 700 560 701 b 556 717 560 707 560 711 z m 518 703 b 518 697 519 703 519 700 b 518 701 518 700 518 700 b 518 703 518 703 518 703 z "},"2":{"ha":872,"x_min":0,"x_max":0,"o":"m 863 718 b 844 728 857 724 850 726 b 767 731 818 735 792 732 b 476 639 665 722 564 696 b 363 532 432 611 393 576 b 329 457 349 510 336 485 b 342 367 324 429 324 396 l 342 365 b 344 363 343 364 343 363 b 378 360 353 353 368 351 b 381 393 389 368 389 383 b 368 450 369 406 365 428 b 390 515 371 471 379 494 b 488 622 413 557 449 593 b 768 718 568 679 668 708 b 842 718 793 721 818 724 b 863 697 853 714 863 708 b 854 665 864 688 860 675 b 808 606 842 643 825 624 b 756 553 792 588 774 569 b 525 356 682 483 604 419 l 288 167 b 169 71 249 136 208 104 b 57 -32 132 38 93 4 b 8 -96 40 -51 22 -71 b 1 -118 6 -101 3 -108 b 8 -146 0 -126 1 -137 b 31 -160 15 -154 24 -158 b 53 -165 38 -162 46 -164 b 132 -162 79 -168 106 -165 b 207 -151 157 -160 182 -156 b 357 -119 258 -142 307 -131 b 431 -104 381 -114 406 -108 b 467 -97 443 -101 454 -99 b 483 -96 472 -96 478 -96 b 490 -96 486 -96 489 -94 b 493 -96 492 -96 492 -96 b 493 -96 493 -96 493 -96 b 493 -96 493 -96 493 -96 b 493 -96 493 -96 493 -96 b 522 -82 504 -99 517 -93 b 510 -51 528 -71 522 -56 b 503 -49 507 -50 506 -49 l 499 -49 b 490 -47 496 -47 493 -47 b 479 -49 486 -49 482 -49 b 458 -53 472 -50 465 -51 b 421 -61 446 -56 433 -58 l 347 -81 b 200 -118 299 -93 250 -107 b 128 -132 176 -124 151 -128 b 56 -136 103 -136 78 -139 b 31 -128 44 -136 33 -132 b 29 -121 29 -126 28 -125 b 33 -107 29 -117 31 -112 b 76 -50 43 -87 60 -68 b 185 54 110 -12 147 21 b 299 153 222 89 260 121 b 533 344 376 218 456 281 b 764 543 613 410 690 474 b 817 599 782 561 800 579 b 863 660 833 617 850 636 b 874 699 869 671 875 683 b 863 718 872 707 868 714 z "},"3":{"ha":836,"x_min":0,"x_max":0,"o":"m 481 18 b 446 65 471 35 458 50 b 386 132 426 89 407 111 b 646 303 481 178 569 233 b 764 433 690 342 729 385 b 835 593 797 481 825 533 b 818 681 839 622 836 654 b 782 710 810 694 796 704 b 738 719 767 715 753 718 b 650 707 707 721 678 714 b 565 683 621 700 593 693 b 411 600 511 663 458 636 b 346 536 388 581 365 561 b 321 496 336 525 328 511 b 313 471 317 489 314 481 b 317 435 311 461 308 450 b 350 426 324 424 339 419 b 357 460 361 433 364 449 b 356 465 358 457 356 460 b 360 481 356 469 357 475 b 376 515 363 492 369 504 b 429 578 390 539 408 560 b 572 665 471 615 519 644 b 653 693 599 676 626 686 b 736 704 681 699 708 706 b 807 672 764 704 792 694 b 819 594 821 651 824 622 b 749 443 811 540 782 489 b 631 321 715 397 674 357 b 333 161 543 250 440 196 b 331 160 332 161 332 160 b 319 128 319 154 314 140 b 338 114 322 121 329 115 b 339 114 338 114 339 114 b 432 53 372 100 404 78 b 492 -39 458 26 482 -4 b 489 -92 496 -57 496 -75 b 457 -133 483 -108 471 -122 b 358 -183 429 -157 393 -171 b 249 -211 322 -194 286 -206 b 138 -215 211 -217 174 -219 b 85 -204 119 -214 101 -210 b 47 -176 69 -197 56 -189 b 43 -139 39 -165 39 -153 b 69 -100 47 -125 58 -112 b 71 -97 69 -99 71 -99 b 67 -64 79 -87 76 -72 b 33 -69 56 -57 40 -58 b 3 -129 21 -86 10 -106 b 3 -165 1 -140 0 -153 b 19 -199 6 -178 11 -190 b 76 -233 35 -218 56 -226 b 136 -242 96 -239 115 -242 b 363 -199 215 -244 292 -224 b 467 -144 399 -185 436 -169 b 501 -96 482 -132 494 -115 b 504 -36 510 -76 510 -56 b 481 18 499 -17 490 1 z "},"4":{"ha":615,"x_min":0,"x_max":0,"o":"m 472 182 b 449 188 464 185 456 186 b 421 188 439 188 429 188 b 494 303 444 226 469 265 b 554 388 514 332 533 360 b 614 474 574 417 593 444 b 615 478 614 475 615 476 b 604 510 621 489 615 504 b 572 497 592 515 578 510 b 474 317 543 436 508 376 b 393 186 447 274 419 229 b 329 179 371 185 350 182 b 178 149 278 171 228 161 b 103 131 153 143 128 138 b 31 115 78 125 53 115 b 22 118 25 115 22 118 b 24 129 22 118 22 124 b 42 160 28 139 35 150 b 90 218 57 179 74 199 b 304 436 158 293 232 364 b 408 550 340 474 375 511 b 457 611 426 569 442 589 b 479 646 465 622 472 633 b 494 690 485 658 492 672 b 494 693 494 692 494 692 b 471 718 494 706 485 717 b 447 694 458 718 447 708 b 439 665 446 686 443 676 b 422 635 435 656 429 644 b 381 572 410 614 396 593 b 282 457 350 532 317 494 b 179 344 249 419 214 382 b 75 232 144 307 108 269 b 26 171 58 211 42 193 b 6 136 18 160 11 149 b 6 110 4 129 0 121 b 18 99 8 104 14 100 b 31 96 22 97 26 97 b 71 103 44 96 58 100 b 107 113 83 107 94 110 b 182 129 132 118 157 124 b 332 150 232 139 282 147 b 371 151 346 151 358 151 b 365 140 369 149 367 144 b 256 -35 328 82 292 24 b 204 -125 238 -65 221 -94 b 179 -174 196 -140 188 -157 b 169 -200 176 -182 172 -190 b 165 -215 168 -204 167 -210 b 168 -240 165 -222 164 -228 b 199 -253 172 -251 186 -258 b 213 -221 211 -247 217 -233 b 211 -219 213 -225 211 -222 b 213 -211 211 -217 213 -214 b 218 -187 214 -203 215 -196 b 236 -142 224 -172 229 -157 b 281 -50 250 -110 265 -79 b 383 129 313 11 347 71 b 397 151 388 136 393 144 b 407 151 400 151 404 151 b 442 146 418 150 431 149 b 456 140 447 144 451 143 b 458 138 458 139 461 136 b 492 131 465 126 481 124 b 499 164 503 138 506 153 b 472 182 490 175 479 179 z "},"5":{"ha":690,"x_min":0,"x_max":0,"o":"m 688 619 b 685 624 688 622 686 622 b 679 626 682 625 681 626 b 669 631 675 628 672 629 b 650 635 663 632 656 633 b 611 640 636 638 624 639 b 535 649 586 644 560 646 b 457 651 510 650 483 651 b 418 650 444 651 432 651 b 397 649 411 650 404 649 b 386 646 394 647 390 647 b 378 643 383 646 381 644 b 365 633 375 642 372 642 b 369 600 357 624 360 608 b 376 597 372 599 374 597 b 296 453 349 549 322 501 b 256 360 281 422 265 393 b 249 335 253 351 250 343 b 251 306 247 325 246 315 b 264 293 253 300 258 296 b 279 292 268 292 274 290 b 304 297 289 292 297 294 b 496 290 367 314 436 314 b 567 232 525 279 553 260 b 561 143 581 204 576 171 b 503 68 547 115 526 90 b 425 7 479 44 453 25 b 254 -92 371 -31 314 -62 b 164 -131 225 -106 194 -119 b 74 -147 133 -140 101 -149 b 44 -135 60 -147 49 -142 b 43 -101 40 -128 40 -115 b 60 -61 46 -87 51 -74 b 83 -28 67 -49 75 -35 l 85 -28 b 86 -26 85 -28 85 -26 b 86 7 96 -17 94 -1 b 51 7 76 17 61 17 b 19 -42 36 -8 28 -25 b 3 -94 11 -58 6 -75 b 1 -125 1 -104 0 -114 b 13 -157 3 -135 6 -147 b 42 -179 19 -168 31 -175 b 72 -183 51 -182 63 -183 b 175 -160 111 -183 143 -172 b 267 -117 207 -147 238 -132 b 439 -11 326 -85 383 -51 b 515 54 465 8 492 29 b 578 136 540 78 563 104 b 592 186 585 151 590 168 b 581 239 593 204 589 222 b 501 304 564 271 533 292 b 301 310 438 329 365 329 b 278 306 293 308 285 306 b 264 311 271 306 267 307 b 264 332 263 317 263 325 b 269 354 265 339 267 347 b 315 442 282 385 297 414 b 433 600 349 497 389 551 l 433 601 b 436 606 435 603 435 604 b 438 608 436 606 438 607 b 460 611 444 610 451 611 b 535 617 485 614 510 615 b 610 618 560 618 585 618 b 647 615 622 618 635 617 b 665 614 653 615 660 615 b 674 613 668 614 671 613 b 675 611 674 611 675 611 b 681 606 676 608 678 607 b 690 611 685 606 689 608 b 688 619 690 615 689 618 z m 675 615 b 675 613 675 614 675 614 b 675 615 675 614 675 614 z "},"6":{"ha":578,"x_min":0,"x_max":0,"o":"m 571 678 b 579 690 576 679 581 685 b 567 699 578 696 572 700 b 499 675 542 694 519 686 b 438 640 478 665 457 654 b 326 556 399 615 361 586 b 144 344 258 493 196 422 b 25 92 93 268 50 182 b 1 -49 13 46 4 -1 b 0 -85 0 -60 0 -72 b 1 -121 1 -96 0 -108 b 10 -160 3 -133 6 -146 b 31 -193 14 -171 21 -182 b 35 -197 32 -194 33 -196 l 38 -199 l 38 -200 b 40 -201 39 -200 39 -200 b 44 -203 42 -201 43 -203 b 76 -211 54 -208 67 -211 b 111 -206 89 -211 101 -210 b 165 -179 132 -200 149 -189 b 254 -106 199 -158 226 -132 b 326 -19 281 -79 304 -50 b 386 76 349 10 369 42 b 406 131 393 94 401 113 b 407 192 410 150 413 171 b 392 221 404 201 400 213 b 365 239 385 229 375 235 b 307 246 346 246 326 247 b 197 225 268 244 232 235 b 101 190 164 214 133 203 b 174 326 122 238 146 282 b 346 535 222 403 281 472 b 451 619 379 565 414 594 b 508 654 469 633 489 644 b 571 678 529 664 549 674 z m 200 211 b 307 228 236 221 272 228 b 357 219 325 228 342 225 b 375 206 364 215 371 211 b 385 186 379 200 383 193 b 381 138 388 171 385 154 b 360 89 375 121 368 106 b 228 -78 326 26 279 -29 b 143 -143 201 -103 172 -125 b 99 -162 128 -151 113 -158 b 65 -161 83 -167 71 -165 b 65 -160 65 -160 65 -160 b 47 -115 57 -153 50 -135 b 46 -83 46 -106 46 -94 b 46 -50 44 -72 46 -61 b 65 81 47 -7 54 38 b 97 178 74 114 85 146 b 200 211 131 190 165 201 z "},"7":{"ha":604,"x_min":0,"x_max":0,"o":"m 603 653 b 590 664 600 658 594 661 b 576 667 585 665 581 665 b 551 667 568 667 560 667 b 506 660 536 665 521 663 b 326 628 446 647 386 635 b 238 622 297 624 267 622 b 196 626 222 622 208 624 b 183 631 190 628 188 629 b 171 651 183 639 179 647 b 139 640 158 657 144 653 b 136 635 138 638 138 636 b 136 629 136 633 136 632 b 136 621 136 626 136 624 b 143 606 138 615 140 610 b 161 593 149 599 156 594 b 189 586 172 588 181 588 b 239 588 207 585 222 586 b 331 601 269 590 300 596 b 421 621 361 608 390 614 b 510 642 450 628 479 636 b 553 649 524 644 539 647 b 574 649 560 649 568 649 b 588 643 581 647 588 646 b 586 629 589 642 589 636 b 576 611 583 624 581 617 b 550 575 568 599 558 588 b 431 438 511 528 471 483 b 201 151 351 344 274 251 b 99 -1 167 101 132 51 b 7 -160 67 -53 36 -106 b 6 -161 6 -160 6 -161 b 17 -193 0 -174 6 -187 b 49 -181 29 -199 43 -193 b 132 -19 74 -126 101 -72 b 226 135 161 33 193 85 b 446 424 294 235 368 331 b 564 564 485 471 526 515 b 592 601 574 575 583 588 b 603 622 596 608 600 615 b 607 636 604 626 606 631 b 603 653 607 642 607 647 z m 181 632 b 181 632 179 633 179 633 b 181 632 181 632 181 632 b 181 632 181 632 181 632 z m 182 619 b 182 622 182 621 182 621 b 182 619 182 622 182 621 z "},"8":{"ha":726,"x_min":0,"x_max":0,"o":"m 683 664 b 621 688 664 678 642 683 b 590 690 611 689 600 690 l 575 690 l 560 689 b 443 665 519 686 481 676 b 442 665 443 665 442 665 b 442 665 442 665 442 665 b 440 665 440 665 440 665 b 275 207 215 593 232 385 b 138 108 228 178 181 144 b 69 40 114 88 90 65 b 15 -44 47 15 28 -12 b 1 -94 8 -60 4 -76 b 7 -149 0 -112 1 -131 b 40 -196 14 -167 25 -183 b 90 -219 56 -207 74 -215 b 194 -218 126 -228 161 -225 b 289 -179 228 -211 260 -197 b 290 -178 290 -179 290 -178 b 290 -178 290 -178 290 -178 b 379 8 363 -129 394 -61 b 353 108 372 39 363 72 b 531 251 415 151 475 199 b 678 431 586 304 638 363 b 722 542 697 464 715 500 b 722 606 726 561 726 583 b 683 664 717 628 703 650 z m 263 -139 b 263 -139 263 -139 263 -139 b 263 -139 263 -139 263 -139 b 185 -175 239 -156 213 -168 b 100 -181 156 -183 126 -186 b 40 -136 72 -175 50 -160 b 36 -97 36 -125 35 -111 b 44 -56 36 -83 40 -69 b 90 22 56 -28 71 -1 b 154 90 110 46 131 69 b 281 190 193 126 235 160 b 306 99 288 158 297 126 b 332 -1 317 63 326 28 b 263 -139 349 -72 289 -121 z m 686 547 b 649 446 682 513 667 478 b 513 268 614 381 565 322 b 347 126 461 217 406 169 b 456 619 281 357 247 553 b 456 619 456 619 456 619 b 457 619 456 619 457 619 b 564 644 492 632 528 640 b 660 631 599 649 635 647 b 686 547 685 615 692 582 z "},"9":{"ha":546,"x_min":0,"x_max":0,"o":"m 536 593 b 504 582 524 599 510 593 l 503 581 b 492 557 500 572 494 565 b 311 411 433 506 374 456 b 199 338 275 385 238 358 b 139 310 179 326 160 317 b 78 297 118 303 97 296 b 40 322 58 297 44 306 b 40 381 35 339 36 360 b 93 499 50 422 69 461 b 276 681 139 574 201 639 b 276 682 276 681 276 682 b 276 682 276 682 276 682 b 342 711 297 694 319 707 b 390 692 363 717 379 711 b 403 619 400 671 403 644 b 396 542 403 594 401 568 b 400 536 396 540 397 538 b 406 540 403 536 406 538 b 422 618 414 565 419 592 b 417 703 425 646 426 674 b 385 740 411 717 400 732 b 336 750 369 750 351 751 b 253 724 304 747 278 735 b 250 722 253 722 251 722 b 250 721 250 721 250 721 b 143 632 210 696 174 665 b 60 519 111 597 83 560 b 7 388 36 478 17 435 b 10 311 3 364 0 338 b 38 276 14 297 24 285 b 78 267 50 269 64 267 b 149 283 104 267 126 275 b 211 315 171 293 192 303 b 325 393 251 339 289 365 b 472 519 376 433 425 476 b 389 376 446 471 418 424 b 265 176 349 310 307 242 b 142 -25 224 108 182 42 b 83 -129 122 -60 101 -93 b 56 -183 74 -146 64 -164 b 44 -212 51 -193 47 -203 b 40 -231 43 -218 42 -224 b 43 -257 40 -237 39 -244 b 74 -269 47 -268 61 -275 b 86 -239 86 -264 92 -250 b 86 -235 88 -240 86 -237 b 88 -224 86 -232 86 -228 b 94 -197 89 -215 92 -207 b 115 -144 100 -181 108 -162 b 167 -40 131 -108 149 -74 b 285 164 204 29 243 97 b 411 363 325 231 368 297 l 478 460 b 546 558 500 492 522 524 b 547 561 546 560 546 560 b 536 593 553 574 547 588 z "}," ":{"ha":435,"x_min":0,"x_max":0,"o":""},"!":{"ha":594,"x_min":0,"x_max":0,"o":"m 565 888 b 560 894 564 890 563 892 b 549 900 557 897 551 900 b 540 901 546 901 543 901 b 536 900 538 900 539 900 b 526 894 529 897 528 896 l 521 892 l 517 889 b 507 876 513 886 508 882 b 517 846 503 864 507 851 b 515 843 517 844 515 843 b 494 792 510 825 503 808 b 444 697 481 760 463 728 b 333 510 408 635 371 572 b 218 326 296 449 257 388 l 160 235 l 131 189 l 115 165 b 100 140 110 157 106 150 b 99 138 100 139 100 139 b 114 107 94 125 101 111 b 144 121 126 103 140 108 b 154 144 146 128 150 136 b 165 168 158 153 161 161 l 190 217 b 240 313 207 249 224 281 b 346 503 275 376 310 440 l 453 692 b 508 785 471 724 489 754 b 539 831 519 800 529 815 b 556 853 544 838 550 846 b 564 868 558 857 561 861 b 567 875 565 869 565 871 b 567 879 567 876 567 876 b 565 888 567 881 567 882 z m 524 874 b 524 876 524 875 524 875 b 524 879 524 878 524 878 b 525 879 525 881 525 879 b 524 874 525 878 525 875 z m 72 56 b 42 40 60 60 46 53 b 35 18 39 33 36 25 l 31 7 l 29 0 l 29 -4 l 28 -7 b 28 -14 28 -8 28 -11 b 46 -26 29 -22 38 -28 b 58 -8 54 -25 60 -18 b 60 -12 60 -10 60 -12 b 61 -12 60 -12 60 -12 l 63 -8 l 69 0 b 83 17 74 6 79 11 b 88 25 85 19 86 22 b 72 56 92 38 85 51 z "},"\"":{"ha":394,"x_min":0,"x_max":0,"o":"m 221 743 b 221 746 221 744 221 744 b 213 778 228 757 224 771 b 179 768 200 785 186 781 b 158 733 172 757 165 744 b 136 699 151 721 143 710 b 110 668 128 688 119 676 b 86 650 101 658 90 651 l 82 650 b 69 633 75 649 69 642 b 86 619 69 625 78 618 b 114 628 97 619 107 624 b 135 642 122 632 128 638 b 167 674 146 651 156 663 b 194 708 176 685 185 696 b 221 743 203 719 211 731 z m 313 778 b 279 768 300 785 286 781 b 258 733 274 757 267 744 b 236 699 251 721 244 710 b 211 668 228 688 219 676 b 186 650 203 658 190 651 l 183 650 b 169 633 175 649 169 642 b 186 619 171 625 178 618 b 215 628 199 619 207 624 b 235 642 222 632 228 638 b 267 674 246 651 257 663 b 294 708 276 685 286 696 b 321 743 304 719 313 731 b 322 746 321 744 321 744 b 313 778 328 757 324 771 z "},"“":{"ha":394,"x_min":0,"x_max":0,"o":"m 221 743 b 221 746 221 744 221 744 b 213 778 228 757 224 771 b 179 768 200 785 186 781 b 158 733 172 757 165 744 b 136 699 151 721 143 710 b 110 668 128 688 119 676 b 86 650 101 658 90 651 l 82 650 b 69 633 75 649 69 642 b 86 619 69 625 78 618 b 114 628 97 619 107 624 b 135 642 122 632 128 638 b 167 674 146 651 156 663 b 194 708 176 685 185 696 b 221 743 203 719 211 731 z m 313 778 b 279 768 300 785 286 781 b 258 733 274 757 267 744 b 236 699 251 721 244 710 b 211 668 228 688 219 676 b 186 650 203 658 190 651 l 183 650 b 169 633 175 649 169 642 b 186 619 171 625 178 618 b 215 628 199 619 207 624 b 235 642 222 632 228 638 b 267 674 246 651 257 663 b 294 708 276 685 286 696 b 321 743 304 719 313 731 b 322 746 321 744 321 744 b 313 778 328 757 324 771 z "},"”":{"ha":394,"x_min":0,"x_max":0,"o":"m 221 743 b 221 746 221 744 221 744 b 213 778 228 757 224 771 b 179 768 200 785 186 781 b 158 733 172 757 165 744 b 136 699 151 721 143 710 b 110 668 128 688 119 676 b 86 650 101 658 90 651 l 82 650 b 69 633 75 649 69 642 b 86 619 69 625 78 618 b 114 628 97 619 107 624 b 135 642 122 632 128 638 b 167 674 146 651 156 663 b 194 708 176 685 185 696 b 221 743 203 719 211 731 z m 313 778 b 279 768 300 785 286 781 b 258 733 274 757 267 744 b 236 699 251 721 244 710 b 211 668 228 688 219 676 b 186 650 203 658 190 651 l 183 650 b 169 633 175 649 169 642 b 186 619 171 625 178 618 b 215 628 199 619 207 624 b 235 642 222 632 228 638 b 267 674 246 651 257 663 b 294 708 276 685 286 696 b 321 743 304 719 313 731 b 322 746 321 744 321 744 b 313 778 328 757 324 771 z "},"#":{"ha":597,"x_min":0,"x_max":0,"o":"m 561 243 l 560 243 b 504 243 542 242 522 242 l 554 303 b 556 304 554 303 556 303 b 550 338 563 314 561 329 b 517 332 539 344 525 343 l 453 243 b 447 243 451 243 450 243 l 335 246 l 292 247 l 374 346 b 374 347 374 347 374 347 b 369 381 382 358 379 374 b 336 375 358 389 343 386 l 243 249 l 110 254 b 107 253 108 254 108 254 b 85 229 94 253 83 242 b 110 206 85 215 96 206 l 214 210 l 181 164 l 140 108 l 61 111 b 58 111 60 111 60 111 b 36 86 46 111 36 100 b 61 64 36 74 47 63 l 110 65 l 104 57 b 29 -53 78 21 53 -14 b 31 -62 26 -56 28 -61 b 42 -61 33 -65 39 -64 b 122 42 67 -26 94 8 l 142 67 l 264 72 l 332 76 l 322 61 b 258 -32 300 31 279 0 b 261 -42 257 -35 257 -40 b 271 -40 264 -44 269 -44 l 272 -40 b 340 47 293 -11 317 18 l 365 78 b 467 85 400 79 432 81 b 474 93 471 85 474 89 b 465 100 474 97 469 100 b 385 100 439 99 411 100 l 411 132 l 486 222 b 561 228 511 224 536 225 b 568 236 565 228 568 232 b 561 243 568 240 565 243 z m 386 151 l 350 101 l 264 104 l 175 107 l 206 144 l 261 211 l 335 215 l 435 219 z "},"$":{"ha":824,"x_min":0,"x_max":0,"o":"m 799 588 b 769 606 796 600 782 608 b 633 568 724 594 678 582 b 689 664 651 600 671 632 l 738 740 b 761 779 744 753 753 765 b 772 801 765 786 768 793 b 775 811 774 804 775 806 b 775 815 775 813 775 813 b 774 825 775 818 776 819 b 768 832 772 828 772 829 b 757 838 765 836 760 838 b 749 839 754 839 751 839 b 744 838 746 838 746 838 b 732 831 736 835 735 833 l 726 826 l 725 826 b 719 819 722 825 721 822 b 725 786 711 808 714 794 b 713 753 722 775 718 764 b 676 671 701 725 689 699 b 618 564 658 635 639 599 b 565 546 601 558 583 553 b 374 454 500 522 433 497 b 333 415 360 443 344 431 b 308 363 321 400 311 383 b 319 304 306 342 310 321 b 346 258 328 288 338 274 b 393 181 363 233 378 207 b 221 -101 336 86 279 -8 l 217 -110 b 174 -33 196 -87 181 -61 b 171 10 169 -18 168 -3 b 188 42 172 24 179 35 b 190 43 189 42 189 42 b 190 76 199 51 199 67 b 156 76 181 86 165 86 b 128 15 139 60 129 38 b 135 -44 125 -6 129 -26 b 197 -139 149 -82 171 -112 b 199 -139 197 -139 197 -139 l 126 -254 l 81 -331 l 57 -368 b 33 -410 49 -382 42 -394 b 33 -411 33 -410 33 -411 b 46 -443 28 -424 33 -437 b 78 -429 58 -447 72 -442 b 96 -390 82 -417 89 -403 b 115 -350 101 -376 108 -364 l 158 -271 b 219 -158 178 -233 199 -196 b 289 -199 242 -175 264 -187 b 393 -229 322 -214 357 -222 b 447 -232 410 -232 429 -233 b 503 -217 465 -232 485 -228 b 538 -169 521 -207 533 -187 b 540 -112 543 -150 543 -131 b 513 -10 536 -76 525 -42 b 468 88 499 24 485 56 b 415 188 451 121 433 154 b 421 197 417 190 418 194 l 599 508 b 606 521 601 513 604 517 b 778 558 663 536 721 550 l 779 558 b 781 558 779 558 781 558 b 799 588 793 561 801 575 z m 732 815 b 733 814 733 817 733 814 b 732 811 733 813 732 813 b 732 814 732 813 732 813 b 732 815 732 815 732 814 z m 449 78 b 492 -17 465 46 479 15 b 518 -115 504 -49 514 -82 b 515 -162 519 -132 519 -149 b 490 -197 511 -178 503 -190 b 446 -208 478 -204 463 -207 b 397 -204 431 -208 414 -207 b 236 -129 336 -193 279 -168 b 244 -114 239 -124 242 -119 b 401 165 296 -21 349 72 b 449 78 418 136 435 107 z m 590 514 b 408 206 531 410 469 307 b 406 201 407 204 407 203 b 367 271 393 225 379 247 b 340 315 358 286 349 301 b 333 358 333 329 331 344 b 390 431 338 388 363 413 b 479 478 418 450 449 465 b 576 513 511 492 543 503 b 592 517 582 514 586 515 b 590 514 592 515 590 515 z "},"%":{"ha":1033,"x_min":0,"x_max":0,"o":"m 1008 764 b 1007 769 1008 767 1008 768 b 1001 778 1007 771 1004 775 b 993 783 999 781 994 783 b 988 785 990 783 989 783 b 982 783 985 785 983 785 b 979 783 981 783 981 783 b 967 778 971 781 969 779 l 961 774 l 960 774 b 954 769 958 772 956 771 b 953 739 947 761 946 749 b 932 706 946 728 939 717 b 879 629 915 679 897 654 b 763 486 842 581 803 533 b 524 206 685 392 604 299 b 281 -72 443 113 363 19 l 158 -211 l 97 -281 l 67 -315 b 36 -353 56 -328 46 -339 b 35 -354 36 -353 35 -353 b 42 -387 28 -365 31 -381 b 75 -379 54 -394 68 -390 b 101 -343 82 -368 92 -354 b 129 -306 110 -331 119 -318 l 185 -233 b 300 -89 224 -185 261 -137 b 535 196 378 6 456 101 l 771 479 b 890 619 810 526 850 574 b 953 689 911 643 932 665 l 985 724 b 1001 742 990 729 996 735 b 1006 749 1003 744 1004 746 b 1008 757 1006 751 1007 751 b 1008 760 1008 758 1008 758 b 1008 764 1008 761 1008 763 z m 965 763 b 965 763 965 763 965 763 l 965 764 b 967 767 967 767 967 767 b 965 763 967 765 967 765 z m 393 299 b 415 293 399 294 407 293 b 435 297 422 293 429 294 b 488 339 458 307 474 322 b 525 389 501 354 514 371 b 581 499 547 424 565 460 b 606 619 594 538 607 576 b 599 653 604 631 603 642 b 583 672 594 660 590 667 b 596 688 588 676 592 682 b 597 688 597 688 597 688 b 593 722 606 699 603 714 b 560 718 582 729 568 728 b 535 685 551 707 543 696 b 510 681 526 685 518 682 b 504 672 506 679 504 675 b 513 667 506 668 510 665 l 514 667 b 522 668 517 667 519 668 b 421 515 486 619 451 569 b 371 401 401 479 382 443 b 368 332 365 381 361 357 b 393 299 372 319 379 307 z m 404 392 b 456 496 417 426 435 461 b 574 660 490 553 531 607 b 586 619 582 650 586 635 b 560 507 588 582 574 543 b 503 403 544 471 525 436 b 467 358 492 388 479 372 b 424 326 453 344 439 332 b 408 326 417 324 413 324 b 400 342 406 329 401 335 b 404 392 396 356 399 374 z m 665 43 b 651 63 663 50 658 57 b 664 76 656 67 660 72 l 664 78 b 665 78 664 78 664 78 b 661 111 672 89 671 103 b 626 107 650 119 635 118 b 603 75 618 97 611 86 b 578 71 594 74 586 72 b 572 61 574 69 572 65 b 581 57 574 58 578 56 b 590 58 583 57 588 58 b 489 -94 553 10 519 -42 b 439 -210 469 -131 450 -168 b 436 -278 433 -231 429 -253 b 460 -311 440 -290 447 -303 b 483 -317 467 -315 475 -317 b 503 -312 490 -317 497 -315 b 556 -272 526 -303 542 -287 b 593 -222 569 -256 582 -239 b 649 -111 615 -186 633 -150 b 672 10 663 -74 675 -33 b 665 43 672 21 671 32 z m 628 -103 b 571 -207 613 -139 593 -175 b 535 -253 560 -222 547 -239 b 492 -285 521 -265 507 -279 b 476 -283 485 -286 481 -286 b 468 -269 474 -282 469 -275 b 472 -219 464 -256 467 -236 b 524 -115 483 -183 503 -149 b 642 49 558 -58 599 -3 b 654 10 650 39 654 25 b 628 -103 654 -29 642 -67 z "},"&":{"ha":1285,"x_min":0,"x_max":0,"o":"m 1264 564 b 1229 564 1254 574 1239 574 b 825 193 1096 439 961 315 b 711 92 788 158 750 125 b 651 225 688 135 667 179 b 611 400 631 282 618 340 b 704 533 643 443 675 488 b 774 653 729 572 753 613 b 825 782 794 694 814 736 b 831 818 828 793 829 806 b 825 854 831 829 831 842 b 811 871 822 860 818 867 b 790 875 806 874 797 875 b 756 863 778 874 765 868 b 703 815 735 850 718 832 b 663 758 689 797 675 778 b 586 492 614 678 590 585 b 589 389 585 457 586 422 b 535 317 571 364 553 340 l 360 104 b 190 -112 303 33 246 -39 b 110 -225 163 -150 136 -186 b 38 -343 83 -262 58 -301 b 22 -375 32 -353 26 -364 b 14 -411 18 -386 14 -397 b 17 -422 15 -415 15 -418 b 26 -432 19 -426 24 -431 b 49 -435 35 -436 42 -435 b 83 -422 61 -432 72 -428 b 203 -351 126 -403 164 -376 b 424 -185 279 -299 351 -242 b 703 46 517 -110 610 -32 b 754 -31 718 19 735 -7 b 863 -126 785 -68 818 -103 b 933 -153 883 -139 907 -149 b 974 -154 947 -156 960 -156 b 1014 -144 988 -153 1000 -149 b 1015 -143 1014 -143 1015 -143 b 1026 -111 1028 -137 1032 -122 b 994 -100 1021 -99 1006 -94 b 882 -92 961 -117 918 -111 b 782 -8 844 -72 811 -42 b 726 67 763 15 743 40 b 1261 529 907 218 1085 374 b 1263 529 1263 529 1263 529 b 1264 564 1272 539 1272 554 z m 675 750 b 763 850 699 788 726 826 b 792 861 772 856 782 861 b 813 849 801 863 808 857 b 813 785 821 831 817 807 b 763 658 801 742 783 699 b 694 540 743 618 719 578 b 610 415 668 497 639 456 b 606 492 607 440 606 465 b 675 750 608 582 629 672 z m 408 -167 b 192 -336 338 -225 267 -282 b 76 -407 154 -361 117 -387 b 46 -418 67 -412 56 -415 b 35 -418 42 -418 36 -418 b 31 -410 32 -417 31 -414 b 38 -381 29 -401 33 -390 b 51 -350 40 -369 46 -360 b 122 -233 72 -310 97 -271 b 201 -121 147 -196 175 -158 b 369 96 257 -47 313 25 b 543 310 426 168 486 238 b 592 374 560 331 575 351 b 625 217 597 319 610 268 b 688 71 642 167 663 118 b 408 -167 596 -10 503 -89 z "},"'":{"ha":293,"x_min":0,"x_max":0,"o":"m 213 778 b 179 768 200 785 186 781 b 158 733 172 757 165 744 b 136 699 151 721 143 710 b 110 668 128 688 119 676 b 86 650 101 658 90 651 l 82 650 b 69 633 75 649 69 642 b 86 619 69 625 78 618 b 114 628 97 619 107 624 b 135 642 122 632 128 638 b 167 674 146 651 156 663 b 194 708 176 685 185 696 b 221 743 203 719 211 731 b 221 746 221 744 221 744 b 213 778 228 757 224 771 z "},"‘":{"ha":293,"x_min":0,"x_max":0,"o":"m 213 778 b 179 768 200 785 186 781 b 158 733 172 757 165 744 b 136 699 151 721 143 710 b 110 668 128 688 119 676 b 86 650 101 658 90 651 l 82 650 b 69 633 75 649 69 642 b 86 619 69 625 78 618 b 114 628 97 619 107 624 b 135 642 122 632 128 638 b 167 674 146 651 156 663 b 194 708 176 685 185 696 b 221 743 203 719 211 731 b 221 746 221 744 221 744 b 213 778 228 757 224 771 z "},"’":{"ha":293,"x_min":0,"x_max":0,"o":"m 213 778 b 179 768 200 785 186 781 b 158 733 172 757 165 744 b 136 699 151 721 143 710 b 110 668 128 688 119 676 b 86 650 101 658 90 651 l 82 650 b 69 633 75 649 69 642 b 86 619 69 625 78 618 b 114 628 97 619 107 624 b 135 642 122 632 128 638 b 167 674 146 651 156 663 b 194 708 176 685 185 696 b 221 743 203 719 211 731 b 221 746 221 744 221 744 b 213 778 228 757 224 771 z "},"(":{"ha":938,"x_min":0,"x_max":0,"o":"m 886 928 b 824 910 863 926 842 918 b 774 881 806 901 790 892 b 688 808 743 858 714 835 b 536 647 633 758 583 704 b 281 290 442 535 357 414 b 82 -103 204 165 133 35 b 31 -318 57 -172 36 -243 b 42 -431 28 -356 29 -394 b 72 -482 49 -449 58 -467 b 119 -517 85 -496 101 -508 b 133 -511 125 -519 131 -517 b 129 -497 136 -506 135 -500 l 128 -497 b 89 -467 114 -489 100 -479 b 64 -424 78 -454 69 -439 b 54 -319 53 -392 53 -356 b 108 -112 61 -250 83 -181 b 310 271 161 22 232 149 b 568 621 388 393 474 511 b 717 776 615 675 664 728 b 800 842 744 800 771 822 b 844 868 814 851 829 861 b 888 879 858 875 875 879 b 889 879 888 879 888 879 b 911 904 901 881 911 892 b 886 928 910 918 899 928 z "},")":{"ha":964,"x_min":0,"x_max":0,"o":"m 938 825 b 919 889 935 846 932 867 b 893 917 914 899 904 910 b 856 928 881 924 868 926 b 829 906 842 928 831 918 b 851 879 828 892 839 881 l 854 879 b 879 864 865 879 874 875 b 892 822 886 854 890 838 b 883 718 894 789 890 753 b 825 508 871 647 850 578 b 639 113 776 372 713 240 b 385 -243 565 -14 482 -135 b 226 -393 336 -297 283 -349 b 36 -496 168 -437 106 -475 b 29 -510 31 -499 28 -504 b 43 -517 31 -515 38 -518 b 242 -412 115 -494 181 -457 b 406 -262 301 -368 356 -317 b 669 96 507 -153 593 -32 b 864 494 744 222 811 356 b 928 710 890 564 914 636 b 938 825 935 747 940 785 z "},"*":{"ha":257,"x_min":0,"x_max":0,"o":"m 226 886 b 225 890 225 890 225 889 b 222 892 224 890 224 892 b 219 893 221 893 219 893 l 219 894 b 215 896 217 894 217 894 b 203 893 211 896 207 896 l 193 893 l 169 892 l 149 892 l 158 904 b 172 925 163 911 168 918 b 179 936 175 928 176 932 b 182 943 181 938 181 940 b 185 950 183 944 183 946 b 183 956 183 953 185 953 b 182 960 183 957 182 958 b 176 965 181 963 179 964 b 171 968 175 967 174 967 b 167 968 169 968 168 968 b 163 968 165 968 164 968 b 151 949 154 965 149 957 b 147 940 150 946 149 943 b 135 919 143 933 139 926 l 122 897 l 110 914 l 97 932 b 90 940 96 935 93 938 b 86 946 89 942 88 943 b 82 949 85 946 85 947 l 79 950 b 76 951 78 950 76 951 b 69 951 74 951 72 951 b 60 946 64 950 63 949 b 56 935 57 942 56 938 b 68 919 56 928 61 921 b 68 919 68 919 68 919 b 75 913 71 918 74 915 l 89 897 l 97 889 b 78 888 90 889 85 889 b 54 886 71 888 63 886 b 43 883 51 885 47 885 b 36 881 40 882 39 882 b 32 879 35 881 33 881 b 28 872 31 878 29 876 b 33 865 28 868 31 865 b 40 868 36 865 39 867 b 42 868 40 868 40 868 b 46 869 42 869 44 869 b 57 871 49 869 53 871 b 79 871 64 871 71 871 b 106 869 88 871 97 869 b 88 836 100 858 93 847 b 76 815 83 829 79 822 b 71 804 75 811 72 807 b 69 797 71 801 69 800 b 69 792 69 796 69 794 b 72 785 69 790 69 788 b 82 786 75 782 79 783 b 82 793 83 788 83 790 b 82 793 82 793 82 793 b 85 799 83 794 83 797 b 90 808 86 801 88 804 b 103 828 93 814 99 821 b 125 858 110 838 117 849 b 146 836 132 851 138 843 b 161 821 150 831 156 825 b 169 814 163 818 165 815 b 174 810 171 813 172 811 b 178 808 175 810 176 808 b 181 808 179 808 179 808 b 186 810 183 808 185 808 b 188 818 189 811 190 815 b 182 821 186 821 185 821 b 181 821 182 821 182 821 b 178 824 181 822 179 824 b 171 832 176 826 174 829 b 158 847 167 836 163 842 b 144 867 154 854 149 860 l 169 865 l 193 864 l 204 863 l 211 863 b 217 864 213 863 213 863 b 219 864 218 864 218 864 b 224 867 221 865 222 865 b 225 869 225 868 225 868 b 229 876 225 869 228 872 b 226 886 229 879 229 885 z m 171 936 b 168 936 169 936 168 936 b 165 936 167 936 167 936 b 171 936 168 936 169 936 z m 65 922 b 65 922 65 922 65 922 b 65 922 65 922 65 922 z m 85 925 b 85 925 85 925 85 925 b 85 926 85 925 85 925 b 85 925 85 926 85 925 z "},"+":{"ha":400,"x_min":0,"x_max":0,"o":"m 372 194 b 361 204 369 200 365 203 b 350 208 357 207 354 207 b 331 213 343 210 336 211 b 290 217 317 214 303 215 b 235 218 271 217 253 217 b 300 307 256 247 278 278 b 301 308 300 307 300 308 b 293 342 308 319 304 335 b 260 333 282 349 267 344 b 190 217 236 294 214 256 b 51 211 143 217 97 214 b 49 211 50 211 49 211 b 29 183 35 210 26 197 b 56 164 31 171 43 163 l 57 164 b 169 181 93 171 131 175 b 168 179 168 181 168 179 b 124 100 153 153 138 126 b 103 60 117 86 110 74 b 93 39 99 53 96 46 b 89 28 92 35 90 32 b 86 21 88 25 88 24 b 86 17 86 19 86 19 b 90 8 86 15 86 11 b 101 10 93 6 99 6 b 101 17 103 11 103 14 l 103 18 b 104 22 103 19 103 21 b 108 32 106 25 107 28 b 119 50 111 38 115 44 b 143 88 126 63 135 75 b 194 161 160 113 176 138 b 211 186 200 169 206 178 b 289 193 238 189 264 192 b 328 193 303 193 315 193 b 347 192 335 193 340 192 b 354 189 350 190 353 190 b 358 188 357 189 358 188 b 368 183 360 185 364 182 b 372 194 372 186 374 190 z "},",":{"ha":210,"x_min":0,"x_max":0,"o":"m 171 68 b 138 60 158 75 144 71 l 138 58 b 117 24 131 47 124 35 b 94 -11 110 13 101 0 b 68 -42 86 -21 78 -32 b 44 -58 60 -50 49 -58 l 40 -60 b 28 -75 33 -61 28 -68 b 44 -90 28 -83 36 -90 b 72 -82 56 -90 65 -86 b 93 -67 81 -78 86 -72 b 125 -35 104 -57 114 -46 b 153 -1 135 -24 143 -12 b 179 35 161 10 169 22 b 179 36 179 35 179 36 b 171 68 186 47 182 63 z "},"-":{"ha":276,"x_min":0,"x_max":0,"o":"m 250 194 b 242 201 247 199 244 200 b 235 204 239 203 238 203 b 222 207 231 206 226 207 b 197 211 214 208 206 210 b 150 214 182 213 165 214 b 54 217 118 217 86 217 b 50 217 53 217 51 217 b 31 189 36 215 28 203 b 58 169 32 176 44 167 b 151 183 89 175 119 179 b 197 188 167 185 182 186 b 219 188 206 188 213 188 b 231 188 224 188 228 188 b 238 186 235 188 238 185 b 247 185 239 183 244 182 b 250 194 251 186 251 192 z "},".":{"ha":110,"x_min":0,"x_max":0,"o":"m 76 54 b 43 53 67 64 51 63 b 29 21 38 47 28 35 b 54 0 32 8 42 0 b 57 0 54 0 56 0 b 78 19 68 1 75 10 b 78 21 78 21 78 21 b 76 54 86 31 86 46 z "},"/":{"ha":1126,"x_min":0,"x_max":0,"o":"m 1100 869 b 1097 876 1099 871 1099 872 b 1088 885 1094 879 1092 882 b 1081 886 1083 886 1083 886 b 1075 886 1079 886 1078 888 b 1071 886 1074 886 1071 886 b 1057 881 1061 883 1061 882 l 1050 875 b 1046 871 1049 875 1047 874 b 1044 840 1038 863 1038 850 b 1018 799 1036 826 1028 813 b 960 713 1000 769 981 740 b 833 549 919 657 876 601 b 569 226 746 440 658 333 b 303 -92 482 119 392 14 l 168 -251 l 101 -331 l 68 -371 b 35 -414 57 -385 46 -397 b 33 -415 33 -414 33 -414 b 42 -447 26 -426 31 -440 b 74 -440 53 -454 67 -451 l 75 -439 b 103 -397 82 -426 93 -411 b 133 -356 113 -383 122 -369 l 196 -274 b 322 -108 238 -218 279 -162 b 581 217 408 0 494 110 l 840 542 b 972 703 883 596 928 650 l 1040 782 b 1075 822 1051 796 1064 808 b 1092 843 1081 829 1086 835 b 1097 851 1093 846 1094 849 b 1099 854 1097 851 1097 853 l 1099 856 b 1100 860 1099 857 1100 858 b 1100 865 1100 860 1100 860 b 1100 869 1100 867 1100 868 z m 1057 865 b 1057 867 1057 865 1057 865 b 1057 868 1057 867 1057 868 b 1057 868 1057 868 1057 868 b 1057 868 1057 868 1058 868 b 1057 865 1057 868 1057 867 z "},":":{"ha":163,"x_min":0,"x_max":0,"o":"m 111 243 l 110 243 b 103 242 107 243 106 243 b 85 215 90 239 82 228 b 111 196 85 210 90 196 b 114 196 113 196 113 196 b 136 221 128 196 138 208 b 111 243 136 233 124 244 z m 57 135 l 56 135 b 49 135 53 135 50 135 b 29 107 36 132 28 119 b 56 88 31 101 35 88 b 60 88 57 88 58 88 b 82 113 72 88 83 100 b 57 135 81 126 69 136 z "},";":{"ha":221,"x_min":0,"x_max":0,"o":"m 167 243 l 165 243 b 158 242 164 243 161 243 b 140 215 146 239 139 228 b 167 196 142 210 146 196 b 171 196 168 196 169 196 b 192 221 183 196 193 208 b 167 243 192 233 181 244 z m 129 122 b 97 111 118 128 103 124 b 85 88 93 104 89 96 b 71 65 81 81 75 74 b 56 46 65 58 61 51 b 43 35 50 40 43 36 b 28 19 35 35 28 28 b 43 4 28 11 35 4 b 65 11 53 4 60 7 b 79 19 71 14 75 17 b 101 42 88 26 94 33 b 121 63 108 49 114 56 b 138 86 126 71 132 78 b 140 89 139 88 139 89 b 129 122 146 101 142 115 z "},"<":{"ha":369,"x_min":0,"x_max":0,"o":"m 340 250 b 328 258 336 256 331 257 b 317 258 324 258 321 258 b 300 258 311 260 306 258 b 267 251 288 257 278 254 b 201 236 244 247 224 242 l 75 200 b 39 182 64 196 51 193 b 28 153 33 176 26 165 b 40 129 31 142 36 135 b 68 106 49 119 58 113 b 97 88 78 99 88 93 b 153 53 117 75 135 65 b 175 36 161 47 169 42 b 178 33 176 35 176 35 b 185 6 174 24 176 13 b 218 10 196 -3 211 0 b 226 31 222 15 225 22 b 222 50 226 38 225 44 b 206 69 217 60 211 65 b 175 90 196 79 186 85 b 117 121 156 101 135 111 b 65 153 97 131 78 142 b 61 158 63 156 61 158 b 63 158 61 158 63 158 b 85 171 65 163 75 168 b 208 213 125 185 168 199 b 271 232 229 219 250 226 b 303 239 282 235 292 236 b 317 240 307 239 313 240 b 325 240 322 240 326 239 b 338 238 328 236 333 235 b 340 250 342 240 343 246 z "},"=":{"ha":358,"x_min":0,"x_max":0,"o":"m 331 221 b 322 228 328 225 325 226 b 315 231 319 229 317 229 b 301 233 310 231 306 232 b 275 236 293 235 283 236 b 224 240 258 239 240 239 b 119 243 189 242 154 243 b 115 243 118 243 117 243 b 96 215 103 240 93 228 b 124 196 97 203 110 193 b 224 208 157 200 190 206 b 275 213 240 211 258 213 b 300 214 283 214 292 214 b 311 213 304 214 307 214 b 317 213 314 213 315 213 b 318 213 318 213 319 211 b 329 210 321 208 325 208 b 331 221 332 213 333 217 z m 257 125 b 249 128 254 126 251 126 b 236 131 244 129 240 129 b 210 135 226 132 218 133 b 157 138 192 136 175 138 b 54 140 122 140 89 140 b 50 140 53 140 51 140 b 29 113 36 139 28 126 b 57 93 32 100 44 90 b 158 107 90 99 125 103 b 208 111 175 108 192 110 b 233 111 217 111 225 111 b 246 111 238 111 242 111 b 251 110 247 110 250 110 b 253 110 253 110 253 108 b 263 107 254 107 260 106 b 265 118 267 110 268 114 b 257 125 263 122 258 124 z "},">":{"ha":386,"x_min":0,"x_max":0,"o":"m 353 189 b 333 201 346 196 339 199 l 267 229 b 199 254 244 238 222 246 b 163 263 188 257 175 261 b 122 258 150 264 136 265 b 118 246 118 256 117 250 b 131 242 121 242 126 240 b 160 243 138 246 149 244 b 192 233 171 240 182 238 b 257 206 214 225 235 215 l 321 174 b 328 169 324 172 326 171 b 306 157 324 167 314 161 b 174 110 265 138 218 125 b 106 88 151 103 128 96 b 71 72 93 83 82 78 b 51 61 64 69 58 65 b 42 53 49 60 46 57 b 32 36 39 49 35 44 b 49 7 28 24 35 10 b 76 21 60 3 72 10 b 79 24 78 22 78 22 b 92 32 83 26 88 29 b 122 46 101 36 111 42 b 186 72 143 56 165 64 b 321 126 231 89 276 104 b 338 138 326 129 332 133 b 354 153 343 140 349 144 b 361 171 357 157 361 163 b 353 189 361 178 357 185 z "},"?":{"ha":646,"x_min":0,"x_max":0,"o":"m 617 926 b 606 954 615 936 613 946 b 579 965 599 961 588 964 b 525 961 560 968 542 965 b 474 943 507 956 490 950 b 425 924 457 938 440 931 b 329 875 392 910 360 893 b 242 811 299 857 269 836 b 176 724 217 786 192 758 b 224 508 143 656 154 561 b 228 506 225 507 226 507 b 260 517 240 500 254 506 b 250 549 267 529 261 543 l 249 549 b 196 618 225 561 204 589 b 201 713 188 649 189 682 b 257 797 213 744 232 772 b 338 863 281 821 308 843 b 429 913 367 881 397 897 b 478 933 446 919 461 926 b 526 950 494 940 510 946 b 578 956 543 954 561 958 b 599 947 586 954 593 951 b 607 926 604 942 607 933 b 600 875 610 910 606 892 b 582 826 596 860 589 843 b 476 644 553 763 515 703 b 356 471 438 585 397 528 b 228 301 314 414 271 358 l 164 217 b 101 129 143 189 121 161 b 100 126 100 128 100 128 b 111 94 94 115 99 100 b 143 106 122 89 136 93 b 196 194 158 136 176 165 l 253 283 l 372 460 b 489 636 411 518 450 576 b 543 728 507 667 525 697 b 592 822 560 758 576 790 b 610 872 599 839 606 856 b 617 926 615 890 619 908 z m 72 56 b 42 40 60 60 46 53 b 35 18 39 33 36 25 l 31 7 l 29 0 l 29 -4 l 28 -7 b 28 -14 28 -8 28 -11 b 46 -26 29 -22 38 -28 b 58 -8 54 -25 60 -18 b 60 -12 60 -10 60 -12 b 61 -12 60 -12 60 -12 l 63 -8 l 69 0 b 83 17 74 6 79 11 b 88 25 85 19 86 22 b 72 56 92 38 85 51 z "},"@":{"ha":899,"x_min":0,"x_max":0,"o":"m 850 801 b 793 876 839 831 819 858 b 703 904 768 896 735 904 b 611 885 671 903 640 896 b 528 844 582 872 554 860 b 375 739 472 815 422 779 b 138 456 281 660 200 563 b 60 288 107 403 79 347 b 31 103 40 229 26 167 b 54 8 32 71 39 39 b 121 -62 68 -21 92 -47 b 214 -92 150 -81 182 -87 b 310 -89 247 -94 279 -93 b 492 -39 374 -82 433 -64 b 657 53 550 -14 604 18 b 657 53 657 53 657 53 b 663 88 668 61 669 76 b 629 92 654 97 639 100 b 306 -56 533 19 424 -37 b 135 -37 247 -65 185 -65 b 78 21 111 -25 90 -4 b 54 104 64 46 57 75 b 79 281 50 164 61 224 b 153 447 99 339 124 394 b 385 728 214 553 293 649 b 533 833 431 768 481 803 b 703 892 588 861 643 890 b 786 867 733 892 763 885 b 839 797 811 850 828 825 b 856 619 861 742 864 679 b 694 303 839 500 785 383 b 622 253 672 283 649 267 b 540 224 596 240 567 228 b 522 222 533 222 526 221 b 517 224 519 222 518 222 b 517 224 517 224 517 224 b 518 233 517 224 517 228 b 524 251 519 239 521 246 b 571 324 535 276 553 301 l 571 325 b 572 326 571 325 572 326 b 565 360 579 338 576 353 b 556 364 563 361 558 363 b 556 369 556 365 556 367 b 540 438 554 390 554 413 b 525 456 538 444 532 450 b 501 465 518 461 510 464 b 461 458 485 468 472 463 b 407 422 440 449 424 436 b 324 331 375 394 349 364 b 256 229 299 299 276 265 b 229 175 246 213 238 193 b 218 144 225 165 221 156 b 215 110 217 133 214 124 b 224 89 215 104 218 96 b 246 81 231 82 240 81 b 281 89 260 81 269 85 b 333 119 300 97 317 108 b 479 240 386 157 433 199 b 479 240 479 240 479 240 b 485 206 479 231 478 218 b 501 190 489 199 496 193 b 519 186 508 188 514 186 b 547 190 529 186 539 188 b 593 207 564 194 578 200 b 636 228 607 213 621 221 b 711 286 663 244 689 264 b 818 439 757 329 793 382 b 869 618 844 496 863 556 b 850 801 876 679 875 743 z m 503 304 b 486 267 497 292 492 279 b 486 264 486 265 486 265 b 322 138 433 219 379 175 b 271 111 306 128 289 117 b 247 106 263 107 254 104 b 242 107 243 106 243 106 b 240 113 242 107 240 110 b 254 164 240 128 247 146 b 282 214 263 181 272 197 b 350 310 303 247 325 279 b 432 392 375 339 403 368 b 478 421 447 404 463 414 b 496 424 485 424 492 425 b 503 417 499 424 500 422 b 510 369 508 406 510 388 b 503 314 510 351 507 332 b 503 313 503 313 503 313 b 503 304 503 310 503 307 z "},"A":{"ha":1408,"x_min":0,"x_max":0,"o":"m 1426 926 b 1393 949 1421 938 1406 947 b 1333 935 1368 951 1350 942 b 1239 878 1299 919 1268 900 b 1154 808 1208 856 1182 832 b 1001 656 1101 760 1050 708 b 722 328 904 550 813 439 b 579 143 674 267 626 206 b 557 139 571 142 564 140 b 561 146 558 142 560 144 b 711 414 614 233 665 322 b 772 557 735 461 756 507 b 790 633 781 582 788 607 b 790 675 793 647 793 661 b 765 714 788 690 779 706 b 750 711 760 718 753 717 b 753 696 746 706 747 699 b 768 636 768 685 771 660 b 749 565 764 613 757 589 b 686 428 732 518 710 472 b 532 164 639 338 586 250 b 510 132 525 154 517 143 b 328 99 449 121 388 110 b 147 56 267 86 207 72 b 103 42 132 51 118 46 b 57 19 88 35 72 29 b 44 10 53 17 49 14 b 38 1 42 8 39 6 b 32 -7 35 -1 33 -4 b 31 -36 29 -12 26 -24 b 51 -56 36 -47 46 -54 b 85 -61 65 -61 75 -61 b 113 -57 94 -61 103 -60 b 113 -57 113 -57 113 -57 b 113 -57 113 -57 113 -57 b 397 -40 207 -46 301 -39 b 363 -90 385 -57 374 -74 l 276 -218 l 233 -282 b 213 -314 226 -292 219 -303 b 203 -332 210 -319 206 -325 b 197 -342 200 -335 199 -337 b 194 -347 196 -343 196 -344 l 193 -351 b 192 -364 192 -356 192 -361 b 219 -383 194 -378 207 -386 b 239 -364 231 -382 238 -374 b 240 -361 239 -364 240 -362 b 243 -354 242 -360 243 -357 b 253 -339 247 -349 250 -344 b 267 -317 257 -332 261 -324 b 467 -43 332 -225 399 -133 b 568 -51 500 -44 535 -47 b 719 -86 619 -58 671 -69 b 849 -160 767 -103 814 -126 b 890 -219 867 -178 881 -197 b 892 -225 892 -221 892 -224 b 825 -367 869 -272 846 -319 b 785 -468 811 -400 796 -433 b 769 -524 779 -486 774 -504 b 767 -557 768 -533 767 -544 b 774 -579 768 -564 768 -571 b 800 -599 778 -589 790 -597 b 828 -582 813 -600 824 -593 b 900 -449 856 -540 881 -496 b 925 -372 911 -425 919 -399 b 935 -290 932 -346 936 -318 b 931 -249 935 -276 933 -262 b 957 -192 939 -229 949 -211 b 1150 192 1021 -64 1086 64 b 1157 206 1153 196 1156 201 b 1236 217 1183 210 1210 214 b 1417 239 1296 225 1357 235 b 1422 244 1421 239 1422 242 b 1417 250 1422 249 1419 251 b 1233 233 1354 247 1294 240 b 1167 225 1211 231 1189 228 b 1338 579 1226 342 1285 460 b 1417 782 1367 646 1394 713 b 1431 835 1422 799 1426 817 b 1436 893 1433 854 1438 872 b 1426 926 1435 903 1433 915 z m 550 104 b 469 -3 522 68 496 33 b 468 -3 469 -3 469 -3 b 533 101 490 32 513 67 b 550 104 539 101 544 103 z m 414 1 b 96 -11 308 4 203 1 b 118 -1 103 -7 111 -4 b 160 14 132 4 146 10 b 336 60 217 32 276 46 b 483 92 385 71 435 82 b 424 0 464 61 444 31 b 414 1 421 0 418 0 z m 239 -361 b 239 -356 239 -360 239 -358 b 239 -361 240 -357 240 -360 z m 810 -551 b 811 -551 810 -551 810 -551 b 810 -551 810 -551 810 -551 z m 900 -367 b 876 -440 894 -392 886 -415 b 818 -556 861 -479 840 -518 b 814 -553 817 -554 817 -554 b 814 -553 814 -553 814 -553 b 817 -532 814 -547 815 -540 b 829 -483 818 -517 824 -500 b 867 -385 840 -450 853 -418 b 907 -297 881 -356 893 -326 b 900 -367 907 -321 904 -343 z m 918 -172 b 910 -190 915 -178 913 -185 b 871 -137 899 -171 886 -154 b 731 -53 832 -97 782 -72 b 574 -14 679 -35 626 -22 b 494 -4 547 -10 521 -7 b 583 111 524 33 553 72 b 694 131 619 118 657 124 b 1054 190 814 153 935 172 b 1108 199 1072 193 1090 196 b 918 -172 1046 75 981 -47 z m 1397 842 b 1383 792 1393 825 1389 808 b 1304 594 1363 725 1333 660 b 1119 219 1247 468 1183 343 b 1051 211 1097 217 1075 214 b 689 161 931 196 810 179 b 613 149 664 157 638 153 b 742 313 654 203 699 258 b 1022 636 832 422 925 532 b 1175 785 1071 688 1122 738 b 1257 853 1201 808 1229 832 b 1346 906 1285 874 1315 892 b 1389 915 1361 913 1378 918 b 1399 910 1394 915 1396 914 b 1403 892 1401 906 1403 899 b 1397 842 1403 876 1401 858 z "},"À":{"ha":1408,"x_min":0,"x_max":0,"o":"m 1426 926 b 1393 949 1421 938 1406 947 b 1333 935 1368 951 1350 942 b 1239 878 1299 919 1268 900 b 1154 808 1208 856 1182 832 b 1001 656 1101 760 1050 708 b 722 328 904 550 813 439 b 579 143 674 267 626 206 b 557 139 571 142 564 140 b 561 146 558 142 560 144 b 711 414 614 233 665 322 b 772 557 735 461 756 507 b 790 633 781 582 788 607 b 790 675 793 647 793 661 b 765 714 788 690 779 706 b 750 711 760 718 753 717 b 753 696 746 706 747 699 b 768 636 768 685 771 660 b 749 565 764 613 757 589 b 686 428 732 518 710 472 b 532 164 639 338 586 250 b 510 132 525 154 517 143 b 328 99 449 121 388 110 b 147 56 267 86 207 72 b 103 42 132 51 118 46 b 57 19 88 35 72 29 b 44 10 53 17 49 14 b 38 1 42 8 39 6 b 32 -7 35 -1 33 -4 b 31 -36 29 -12 26 -24 b 51 -56 36 -47 46 -54 b 85 -61 65 -61 75 -61 b 113 -57 94 -61 103 -60 b 113 -57 113 -57 113 -57 b 113 -57 113 -57 113 -57 b 397 -40 207 -46 301 -39 b 363 -90 385 -57 374 -74 l 276 -218 l 233 -282 b 213 -314 226 -292 219 -303 b 203 -332 210 -319 206 -325 b 197 -342 200 -335 199 -337 b 194 -347 196 -343 196 -344 l 193 -351 b 192 -364 192 -356 192 -361 b 219 -383 194 -378 207 -386 b 239 -364 231 -382 238 -374 b 240 -361 239 -364 240 -362 b 243 -354 242 -360 243 -357 b 253 -339 247 -349 250 -344 b 267 -317 257 -332 261 -324 b 467 -43 332 -225 399 -133 b 568 -51 500 -44 535 -47 b 719 -86 619 -58 671 -69 b 849 -160 767 -103 814 -126 b 890 -219 867 -178 881 -197 b 892 -225 892 -221 892 -224 b 825 -367 869 -272 846 -319 b 785 -468 811 -400 796 -433 b 769 -524 779 -486 774 -504 b 767 -557 768 -533 767 -544 b 774 -579 768 -564 768 -571 b 800 -599 778 -589 790 -597 b 828 -582 813 -600 824 -593 b 900 -449 856 -540 881 -496 b 925 -372 911 -425 919 -399 b 935 -290 932 -346 936 -318 b 931 -249 935 -276 933 -262 b 957 -192 939 -229 949 -211 b 1150 192 1021 -64 1086 64 b 1157 206 1153 196 1156 201 b 1236 217 1183 210 1210 214 b 1417 239 1296 225 1357 235 b 1422 244 1421 239 1422 242 b 1417 250 1422 249 1419 251 b 1233 233 1354 247 1294 240 b 1167 225 1211 231 1189 228 b 1338 579 1226 342 1285 460 b 1417 782 1367 646 1394 713 b 1431 835 1422 799 1426 817 b 1436 893 1433 854 1438 872 b 1426 926 1435 903 1433 915 z m 550 104 b 469 -3 522 68 496 33 b 468 -3 469 -3 469 -3 b 533 101 490 32 513 67 b 550 104 539 101 544 103 z m 414 1 b 96 -11 308 4 203 1 b 118 -1 103 -7 111 -4 b 160 14 132 4 146 10 b 336 60 217 32 276 46 b 483 92 385 71 435 82 b 424 0 464 61 444 31 b 414 1 421 0 418 0 z m 239 -361 b 239 -356 239 -360 239 -358 b 239 -361 240 -357 240 -360 z m 810 -551 b 811 -551 810 -551 810 -551 b 810 -551 810 -551 810 -551 z m 900 -367 b 876 -440 894 -392 886 -415 b 818 -556 861 -479 840 -518 b 814 -553 817 -554 817 -554 b 814 -553 814 -553 814 -553 b 817 -532 814 -547 815 -540 b 829 -483 818 -517 824 -500 b 867 -385 840 -450 853 -418 b 907 -297 881 -356 893 -326 b 900 -367 907 -321 904 -343 z m 918 -172 b 910 -190 915 -178 913 -185 b 871 -137 899 -171 886 -154 b 731 -53 832 -97 782 -72 b 574 -14 679 -35 626 -22 b 494 -4 547 -10 521 -7 b 583 111 524 33 553 72 b 694 131 619 118 657 124 b 1054 190 814 153 935 172 b 1108 199 1072 193 1090 196 b 918 -172 1046 75 981 -47 z m 1397 842 b 1383 792 1393 825 1389 808 b 1304 594 1363 725 1333 660 b 1119 219 1247 468 1183 343 b 1051 211 1097 217 1075 214 b 689 161 931 196 810 179 b 613 149 664 157 638 153 b 742 313 654 203 699 258 b 1022 636 832 422 925 532 b 1175 785 1071 688 1122 738 b 1257 853 1201 808 1229 832 b 1346 906 1285 874 1315 892 b 1389 915 1361 913 1378 918 b 1399 910 1394 915 1396 914 b 1403 892 1401 906 1403 899 b 1397 842 1403 876 1401 858 z "},"Á":{"ha":1408,"x_min":0,"x_max":0,"o":"m 1426 926 b 1393 949 1421 938 1406 947 b 1333 935 1368 951 1350 942 b 1239 878 1299 919 1268 900 b 1154 808 1208 856 1182 832 b 1001 656 1101 760 1050 708 b 722 328 904 550 813 439 b 579 143 674 267 626 206 b 557 139 571 142 564 140 b 561 146 558 142 560 144 b 711 414 614 233 665 322 b 772 557 735 461 756 507 b 790 633 781 582 788 607 b 790 675 793 647 793 661 b 765 714 788 690 779 706 b 750 711 760 718 753 717 b 753 696 746 706 747 699 b 768 636 768 685 771 660 b 749 565 764 613 757 589 b 686 428 732 518 710 472 b 532 164 639 338 586 250 b 510 132 525 154 517 143 b 328 99 449 121 388 110 b 147 56 267 86 207 72 b 103 42 132 51 118 46 b 57 19 88 35 72 29 b 44 10 53 17 49 14 b 38 1 42 8 39 6 b 32 -7 35 -1 33 -4 b 31 -36 29 -12 26 -24 b 51 -56 36 -47 46 -54 b 85 -61 65 -61 75 -61 b 113 -57 94 -61 103 -60 b 113 -57 113 -57 113 -57 b 113 -57 113 -57 113 -57 b 397 -40 207 -46 301 -39 b 363 -90 385 -57 374 -74 l 276 -218 l 233 -282 b 213 -314 226 -292 219 -303 b 203 -332 210 -319 206 -325 b 197 -342 200 -335 199 -337 b 194 -347 196 -343 196 -344 l 193 -351 b 192 -364 192 -356 192 -361 b 219 -383 194 -378 207 -386 b 239 -364 231 -382 238 -374 b 240 -361 239 -364 240 -362 b 243 -354 242 -360 243 -357 b 253 -339 247 -349 250 -344 b 267 -317 257 -332 261 -324 b 467 -43 332 -225 399 -133 b 568 -51 500 -44 535 -47 b 719 -86 619 -58 671 -69 b 849 -160 767 -103 814 -126 b 890 -219 867 -178 881 -197 b 892 -225 892 -221 892 -224 b 825 -367 869 -272 846 -319 b 785 -468 811 -400 796 -433 b 769 -524 779 -486 774 -504 b 767 -557 768 -533 767 -544 b 774 -579 768 -564 768 -571 b 800 -599 778 -589 790 -597 b 828 -582 813 -600 824 -593 b 900 -449 856 -540 881 -496 b 925 -372 911 -425 919 -399 b 935 -290 932 -346 936 -318 b 931 -249 935 -276 933 -262 b 957 -192 939 -229 949 -211 b 1150 192 1021 -64 1086 64 b 1157 206 1153 196 1156 201 b 1236 217 1183 210 1210 214 b 1417 239 1296 225 1357 235 b 1422 244 1421 239 1422 242 b 1417 250 1422 249 1419 251 b 1233 233 1354 247 1294 240 b 1167 225 1211 231 1189 228 b 1338 579 1226 342 1285 460 b 1417 782 1367 646 1394 713 b 1431 835 1422 799 1426 817 b 1436 893 1433 854 1438 872 b 1426 926 1435 903 1433 915 z m 550 104 b 469 -3 522 68 496 33 b 468 -3 469 -3 469 -3 b 533 101 490 32 513 67 b 550 104 539 101 544 103 z m 414 1 b 96 -11 308 4 203 1 b 118 -1 103 -7 111 -4 b 160 14 132 4 146 10 b 336 60 217 32 276 46 b 483 92 385 71 435 82 b 424 0 464 61 444 31 b 414 1 421 0 418 0 z m 239 -361 b 239 -356 239 -360 239 -358 b 239 -361 240 -357 240 -360 z m 810 -551 b 811 -551 810 -551 810 -551 b 810 -551 810 -551 810 -551 z m 900 -367 b 876 -440 894 -392 886 -415 b 818 -556 861 -479 840 -518 b 814 -553 817 -554 817 -554 b 814 -553 814 -553 814 -553 b 817 -532 814 -547 815 -540 b 829 -483 818 -517 824 -500 b 867 -385 840 -450 853 -418 b 907 -297 881 -356 893 -326 b 900 -367 907 -321 904 -343 z m 918 -172 b 910 -190 915 -178 913 -185 b 871 -137 899 -171 886 -154 b 731 -53 832 -97 782 -72 b 574 -14 679 -35 626 -22 b 494 -4 547 -10 521 -7 b 583 111 524 33 553 72 b 694 131 619 118 657 124 b 1054 190 814 153 935 172 b 1108 199 1072 193 1090 196 b 918 -172 1046 75 981 -47 z m 1397 842 b 1383 792 1393 825 1389 808 b 1304 594 1363 725 1333 660 b 1119 219 1247 468 1183 343 b 1051 211 1097 217 1075 214 b 689 161 931 196 810 179 b 613 149 664 157 638 153 b 742 313 654 203 699 258 b 1022 636 832 422 925 532 b 1175 785 1071 688 1122 738 b 1257 853 1201 808 1229 832 b 1346 906 1285 874 1315 892 b 1389 915 1361 913 1378 918 b 1399 910 1394 915 1396 914 b 1403 892 1401 906 1403 899 b 1397 842 1403 876 1401 858 z "},"Â":{"ha":1408,"x_min":0,"x_max":0,"o":"m 1426 926 b 1393 949 1421 938 1406 947 b 1333 935 1368 951 1350 942 b 1239 878 1299 919 1268 900 b 1154 808 1208 856 1182 832 b 1001 656 1101 760 1050 708 b 722 328 904 550 813 439 b 579 143 674 267 626 206 b 557 139 571 142 564 140 b 561 146 558 142 560 144 b 711 414 614 233 665 322 b 772 557 735 461 756 507 b 790 633 781 582 788 607 b 790 675 793 647 793 661 b 765 714 788 690 779 706 b 750 711 760 718 753 717 b 753 696 746 706 747 699 b 768 636 768 685 771 660 b 749 565 764 613 757 589 b 686 428 732 518 710 472 b 532 164 639 338 586 250 b 510 132 525 154 517 143 b 328 99 449 121 388 110 b 147 56 267 86 207 72 b 103 42 132 51 118 46 b 57 19 88 35 72 29 b 44 10 53 17 49 14 b 38 1 42 8 39 6 b 32 -7 35 -1 33 -4 b 31 -36 29 -12 26 -24 b 51 -56 36 -47 46 -54 b 85 -61 65 -61 75 -61 b 113 -57 94 -61 103 -60 b 113 -57 113 -57 113 -57 b 113 -57 113 -57 113 -57 b 397 -40 207 -46 301 -39 b 363 -90 385 -57 374 -74 l 276 -218 l 233 -282 b 213 -314 226 -292 219 -303 b 203 -332 210 -319 206 -325 b 197 -342 200 -335 199 -337 b 194 -347 196 -343 196 -344 l 193 -351 b 192 -364 192 -356 192 -361 b 219 -383 194 -378 207 -386 b 239 -364 231 -382 238 -374 b 240 -361 239 -364 240 -362 b 243 -354 242 -360 243 -357 b 253 -339 247 -349 250 -344 b 267 -317 257 -332 261 -324 b 467 -43 332 -225 399 -133 b 568 -51 500 -44 535 -47 b 719 -86 619 -58 671 -69 b 849 -160 767 -103 814 -126 b 890 -219 867 -178 881 -197 b 892 -225 892 -221 892 -224 b 825 -367 869 -272 846 -319 b 785 -468 811 -400 796 -433 b 769 -524 779 -486 774 -504 b 767 -557 768 -533 767 -544 b 774 -579 768 -564 768 -571 b 800 -599 778 -589 790 -597 b 828 -582 813 -600 824 -593 b 900 -449 856 -540 881 -496 b 925 -372 911 -425 919 -399 b 935 -290 932 -346 936 -318 b 931 -249 935 -276 933 -262 b 957 -192 939 -229 949 -211 b 1150 192 1021 -64 1086 64 b 1157 206 1153 196 1156 201 b 1236 217 1183 210 1210 214 b 1417 239 1296 225 1357 235 b 1422 244 1421 239 1422 242 b 1417 250 1422 249 1419 251 b 1233 233 1354 247 1294 240 b 1167 225 1211 231 1189 228 b 1338 579 1226 342 1285 460 b 1417 782 1367 646 1394 713 b 1431 835 1422 799 1426 817 b 1436 893 1433 854 1438 872 b 1426 926 1435 903 1433 915 z m 550 104 b 469 -3 522 68 496 33 b 468 -3 469 -3 469 -3 b 533 101 490 32 513 67 b 550 104 539 101 544 103 z m 414 1 b 96 -11 308 4 203 1 b 118 -1 103 -7 111 -4 b 160 14 132 4 146 10 b 336 60 217 32 276 46 b 483 92 385 71 435 82 b 424 0 464 61 444 31 b 414 1 421 0 418 0 z m 239 -361 b 239 -356 239 -360 239 -358 b 239 -361 240 -357 240 -360 z m 810 -551 b 811 -551 810 -551 810 -551 b 810 -551 810 -551 810 -551 z m 900 -367 b 876 -440 894 -392 886 -415 b 818 -556 861 -479 840 -518 b 814 -553 817 -554 817 -554 b 814 -553 814 -553 814 -553 b 817 -532 814 -547 815 -540 b 829 -483 818 -517 824 -500 b 867 -385 840 -450 853 -418 b 907 -297 881 -356 893 -326 b 900 -367 907 -321 904 -343 z m 918 -172 b 910 -190 915 -178 913 -185 b 871 -137 899 -171 886 -154 b 731 -53 832 -97 782 -72 b 574 -14 679 -35 626 -22 b 494 -4 547 -10 521 -7 b 583 111 524 33 553 72 b 694 131 619 118 657 124 b 1054 190 814 153 935 172 b 1108 199 1072 193 1090 196 b 918 -172 1046 75 981 -47 z m 1397 842 b 1383 792 1393 825 1389 808 b 1304 594 1363 725 1333 660 b 1119 219 1247 468 1183 343 b 1051 211 1097 217 1075 214 b 689 161 931 196 810 179 b 613 149 664 157 638 153 b 742 313 654 203 699 258 b 1022 636 832 422 925 532 b 1175 785 1071 688 1122 738 b 1257 853 1201 808 1229 832 b 1346 906 1285 874 1315 892 b 1389 915 1361 913 1378 918 b 1399 910 1394 915 1396 914 b 1403 892 1401 906 1403 899 b 1397 842 1403 876 1401 858 z "},"Ã":{"ha":1408,"x_min":0,"x_max":0,"o":"m 1426 926 b 1393 949 1421 938 1406 947 b 1333 935 1368 951 1350 942 b 1239 878 1299 919 1268 900 b 1154 808 1208 856 1182 832 b 1001 656 1101 760 1050 708 b 722 328 904 550 813 439 b 579 143 674 267 626 206 b 557 139 571 142 564 140 b 561 146 558 142 560 144 b 711 414 614 233 665 322 b 772 557 735 461 756 507 b 790 633 781 582 788 607 b 790 675 793 647 793 661 b 765 714 788 690 779 706 b 750 711 760 718 753 717 b 753 696 746 706 747 699 b 768 636 768 685 771 660 b 749 565 764 613 757 589 b 686 428 732 518 710 472 b 532 164 639 338 586 250 b 510 132 525 154 517 143 b 328 99 449 121 388 110 b 147 56 267 86 207 72 b 103 42 132 51 118 46 b 57 19 88 35 72 29 b 44 10 53 17 49 14 b 38 1 42 8 39 6 b 32 -7 35 -1 33 -4 b 31 -36 29 -12 26 -24 b 51 -56 36 -47 46 -54 b 85 -61 65 -61 75 -61 b 113 -57 94 -61 103 -60 b 113 -57 113 -57 113 -57 b 113 -57 113 -57 113 -57 b 397 -40 207 -46 301 -39 b 363 -90 385 -57 374 -74 l 276 -218 l 233 -282 b 213 -314 226 -292 219 -303 b 203 -332 210 -319 206 -325 b 197 -342 200 -335 199 -337 b 194 -347 196 -343 196 -344 l 193 -351 b 192 -364 192 -356 192 -361 b 219 -383 194 -378 207 -386 b 239 -364 231 -382 238 -374 b 240 -361 239 -364 240 -362 b 243 -354 242 -360 243 -357 b 253 -339 247 -349 250 -344 b 267 -317 257 -332 261 -324 b 467 -43 332 -225 399 -133 b 568 -51 500 -44 535 -47 b 719 -86 619 -58 671 -69 b 849 -160 767 -103 814 -126 b 890 -219 867 -178 881 -197 b 892 -225 892 -221 892 -224 b 825 -367 869 -272 846 -319 b 785 -468 811 -400 796 -433 b 769 -524 779 -486 774 -504 b 767 -557 768 -533 767 -544 b 774 -579 768 -564 768 -571 b 800 -599 778 -589 790 -597 b 828 -582 813 -600 824 -593 b 900 -449 856 -540 881 -496 b 925 -372 911 -425 919 -399 b 935 -290 932 -346 936 -318 b 931 -249 935 -276 933 -262 b 957 -192 939 -229 949 -211 b 1150 192 1021 -64 1086 64 b 1157 206 1153 196 1156 201 b 1236 217 1183 210 1210 214 b 1417 239 1296 225 1357 235 b 1422 244 1421 239 1422 242 b 1417 250 1422 249 1419 251 b 1233 233 1354 247 1294 240 b 1167 225 1211 231 1189 228 b 1338 579 1226 342 1285 460 b 1417 782 1367 646 1394 713 b 1431 835 1422 799 1426 817 b 1436 893 1433 854 1438 872 b 1426 926 1435 903 1433 915 z m 550 104 b 469 -3 522 68 496 33 b 468 -3 469 -3 469 -3 b 533 101 490 32 513 67 b 550 104 539 101 544 103 z m 414 1 b 96 -11 308 4 203 1 b 118 -1 103 -7 111 -4 b 160 14 132 4 146 10 b 336 60 217 32 276 46 b 483 92 385 71 435 82 b 424 0 464 61 444 31 b 414 1 421 0 418 0 z m 239 -361 b 239 -356 239 -360 239 -358 b 239 -361 240 -357 240 -360 z m 810 -551 b 811 -551 810 -551 810 -551 b 810 -551 810 -551 810 -551 z m 900 -367 b 876 -440 894 -392 886 -415 b 818 -556 861 -479 840 -518 b 814 -553 817 -554 817 -554 b 814 -553 814 -553 814 -553 b 817 -532 814 -547 815 -540 b 829 -483 818 -517 824 -500 b 867 -385 840 -450 853 -418 b 907 -297 881 -356 893 -326 b 900 -367 907 -321 904 -343 z m 918 -172 b 910 -190 915 -178 913 -185 b 871 -137 899 -171 886 -154 b 731 -53 832 -97 782 -72 b 574 -14 679 -35 626 -22 b 494 -4 547 -10 521 -7 b 583 111 524 33 553 72 b 694 131 619 118 657 124 b 1054 190 814 153 935 172 b 1108 199 1072 193 1090 196 b 918 -172 1046 75 981 -47 z m 1397 842 b 1383 792 1393 825 1389 808 b 1304 594 1363 725 1333 660 b 1119 219 1247 468 1183 343 b 1051 211 1097 217 1075 214 b 689 161 931 196 810 179 b 613 149 664 157 638 153 b 742 313 654 203 699 258 b 1022 636 832 422 925 532 b 1175 785 1071 688 1122 738 b 1257 853 1201 808 1229 832 b 1346 906 1285 874 1315 892 b 1389 915 1361 913 1378 918 b 1399 910 1394 915 1396 914 b 1403 892 1401 906 1403 899 b 1397 842 1403 876 1401 858 z "},"Ä":{"ha":1408,"x_min":0,"x_max":0,"o":"m 1426 926 b 1393 949 1421 938 1406 947 b 1333 935 1368 951 1350 942 b 1239 878 1299 919 1268 900 b 1154 808 1208 856 1182 832 b 1001 656 1101 760 1050 708 b 722 328 904 550 813 439 b 579 143 674 267 626 206 b 557 139 571 142 564 140 b 561 146 558 142 560 144 b 711 414 614 233 665 322 b 772 557 735 461 756 507 b 790 633 781 582 788 607 b 790 675 793 647 793 661 b 765 714 788 690 779 706 b 750 711 760 718 753 717 b 753 696 746 706 747 699 b 768 636 768 685 771 660 b 749 565 764 613 757 589 b 686 428 732 518 710 472 b 532 164 639 338 586 250 b 510 132 525 154 517 143 b 328 99 449 121 388 110 b 147 56 267 86 207 72 b 103 42 132 51 118 46 b 57 19 88 35 72 29 b 44 10 53 17 49 14 b 38 1 42 8 39 6 b 32 -7 35 -1 33 -4 b 31 -36 29 -12 26 -24 b 51 -56 36 -47 46 -54 b 85 -61 65 -61 75 -61 b 113 -57 94 -61 103 -60 b 113 -57 113 -57 113 -57 b 113 -57 113 -57 113 -57 b 397 -40 207 -46 301 -39 b 363 -90 385 -57 374 -74 l 276 -218 l 233 -282 b 213 -314 226 -292 219 -303 b 203 -332 210 -319 206 -325 b 197 -342 200 -335 199 -337 b 194 -347 196 -343 196 -344 l 193 -351 b 192 -364 192 -356 192 -361 b 219 -383 194 -378 207 -386 b 239 -364 231 -382 238 -374 b 240 -361 239 -364 240 -362 b 243 -354 242 -360 243 -357 b 253 -339 247 -349 250 -344 b 267 -317 257 -332 261 -324 b 467 -43 332 -225 399 -133 b 568 -51 500 -44 535 -47 b 719 -86 619 -58 671 -69 b 849 -160 767 -103 814 -126 b 890 -219 867 -178 881 -197 b 892 -225 892 -221 892 -224 b 825 -367 869 -272 846 -319 b 785 -468 811 -400 796 -433 b 769 -524 779 -486 774 -504 b 767 -557 768 -533 767 -544 b 774 -579 768 -564 768 -571 b 800 -599 778 -589 790 -597 b 828 -582 813 -600 824 -593 b 900 -449 856 -540 881 -496 b 925 -372 911 -425 919 -399 b 935 -290 932 -346 936 -318 b 931 -249 935 -276 933 -262 b 957 -192 939 -229 949 -211 b 1150 192 1021 -64 1086 64 b 1157 206 1153 196 1156 201 b 1236 217 1183 210 1210 214 b 1417 239 1296 225 1357 235 b 1422 244 1421 239 1422 242 b 1417 250 1422 249 1419 251 b 1233 233 1354 247 1294 240 b 1167 225 1211 231 1189 228 b 1338 579 1226 342 1285 460 b 1417 782 1367 646 1394 713 b 1431 835 1422 799 1426 817 b 1436 893 1433 854 1438 872 b 1426 926 1435 903 1433 915 z m 550 104 b 469 -3 522 68 496 33 b 468 -3 469 -3 469 -3 b 533 101 490 32 513 67 b 550 104 539 101 544 103 z m 414 1 b 96 -11 308 4 203 1 b 118 -1 103 -7 111 -4 b 160 14 132 4 146 10 b 336 60 217 32 276 46 b 483 92 385 71 435 82 b 424 0 464 61 444 31 b 414 1 421 0 418 0 z m 239 -361 b 239 -356 239 -360 239 -358 b 239 -361 240 -357 240 -360 z m 810 -551 b 811 -551 810 -551 810 -551 b 810 -551 810 -551 810 -551 z m 900 -367 b 876 -440 894 -392 886 -415 b 818 -556 861 -479 840 -518 b 814 -553 817 -554 817 -554 b 814 -553 814 -553 814 -553 b 817 -532 814 -547 815 -540 b 829 -483 818 -517 824 -500 b 867 -385 840 -450 853 -418 b 907 -297 881 -356 893 -326 b 900 -367 907 -321 904 -343 z m 918 -172 b 910 -190 915 -178 913 -185 b 871 -137 899 -171 886 -154 b 731 -53 832 -97 782 -72 b 574 -14 679 -35 626 -22 b 494 -4 547 -10 521 -7 b 583 111 524 33 553 72 b 694 131 619 118 657 124 b 1054 190 814 153 935 172 b 1108 199 1072 193 1090 196 b 918 -172 1046 75 981 -47 z m 1397 842 b 1383 792 1393 825 1389 808 b 1304 594 1363 725 1333 660 b 1119 219 1247 468 1183 343 b 1051 211 1097 217 1075 214 b 689 161 931 196 810 179 b 613 149 664 157 638 153 b 742 313 654 203 699 258 b 1022 636 832 422 925 532 b 1175 785 1071 688 1122 738 b 1257 853 1201 808 1229 832 b 1346 906 1285 874 1315 892 b 1389 915 1361 913 1378 918 b 1399 910 1394 915 1396 914 b 1403 892 1401 906 1403 899 b 1397 842 1403 876 1401 858 z "},"Å":{"ha":1408,"x_min":0,"x_max":0,"o":"m 1426 926 b 1393 949 1421 938 1406 947 b 1333 935 1368 951 1350 942 b 1239 878 1299 919 1268 900 b 1154 808 1208 856 1182 832 b 1001 656 1101 760 1050 708 b 722 328 904 550 813 439 b 579 143 674 267 626 206 b 557 139 571 142 564 140 b 561 146 558 142 560 144 b 711 414 614 233 665 322 b 772 557 735 461 756 507 b 790 633 781 582 788 607 b 790 675 793 647 793 661 b 765 714 788 690 779 706 b 750 711 760 718 753 717 b 753 696 746 706 747 699 b 768 636 768 685 771 660 b 749 565 764 613 757 589 b 686 428 732 518 710 472 b 532 164 639 338 586 250 b 510 132 525 154 517 143 b 328 99 449 121 388 110 b 147 56 267 86 207 72 b 103 42 132 51 118 46 b 57 19 88 35 72 29 b 44 10 53 17 49 14 b 38 1 42 8 39 6 b 32 -7 35 -1 33 -4 b 31 -36 29 -12 26 -24 b 51 -56 36 -47 46 -54 b 85 -61 65 -61 75 -61 b 113 -57 94 -61 103 -60 b 113 -57 113 -57 113 -57 b 113 -57 113 -57 113 -57 b 397 -40 207 -46 301 -39 b 363 -90 385 -57 374 -74 l 276 -218 l 233 -282 b 213 -314 226 -292 219 -303 b 203 -332 210 -319 206 -325 b 197 -342 200 -335 199 -337 b 194 -347 196 -343 196 -344 l 193 -351 b 192 -364 192 -356 192 -361 b 219 -383 194 -378 207 -386 b 239 -364 231 -382 238 -374 b 240 -361 239 -364 240 -362 b 243 -354 242 -360 243 -357 b 253 -339 247 -349 250 -344 b 267 -317 257 -332 261 -324 b 467 -43 332 -225 399 -133 b 568 -51 500 -44 535 -47 b 719 -86 619 -58 671 -69 b 849 -160 767 -103 814 -126 b 890 -219 867 -178 881 -197 b 892 -225 892 -221 892 -224 b 825 -367 869 -272 846 -319 b 785 -468 811 -400 796 -433 b 769 -524 779 -486 774 -504 b 767 -557 768 -533 767 -544 b 774 -579 768 -564 768 -571 b 800 -599 778 -589 790 -597 b 828 -582 813 -600 824 -593 b 900 -449 856 -540 881 -496 b 925 -372 911 -425 919 -399 b 935 -290 932 -346 936 -318 b 931 -249 935 -276 933 -262 b 957 -192 939 -229 949 -211 b 1150 192 1021 -64 1086 64 b 1157 206 1153 196 1156 201 b 1236 217 1183 210 1210 214 b 1417 239 1296 225 1357 235 b 1422 244 1421 239 1422 242 b 1417 250 1422 249 1419 251 b 1233 233 1354 247 1294 240 b 1167 225 1211 231 1189 228 b 1338 579 1226 342 1285 460 b 1417 782 1367 646 1394 713 b 1431 835 1422 799 1426 817 b 1436 893 1433 854 1438 872 b 1426 926 1435 903 1433 915 z m 550 104 b 469 -3 522 68 496 33 b 468 -3 469 -3 469 -3 b 533 101 490 32 513 67 b 550 104 539 101 544 103 z m 414 1 b 96 -11 308 4 203 1 b 118 -1 103 -7 111 -4 b 160 14 132 4 146 10 b 336 60 217 32 276 46 b 483 92 385 71 435 82 b 424 0 464 61 444 31 b 414 1 421 0 418 0 z m 239 -361 b 239 -356 239 -360 239 -358 b 239 -361 240 -357 240 -360 z m 810 -551 b 811 -551 810 -551 810 -551 b 810 -551 810 -551 810 -551 z m 900 -367 b 876 -440 894 -392 886 -415 b 818 -556 861 -479 840 -518 b 814 -553 817 -554 817 -554 b 814 -553 814 -553 814 -553 b 817 -532 814 -547 815 -540 b 829 -483 818 -517 824 -500 b 867 -385 840 -450 853 -418 b 907 -297 881 -356 893 -326 b 900 -367 907 -321 904 -343 z m 918 -172 b 910 -190 915 -178 913 -185 b 871 -137 899 -171 886 -154 b 731 -53 832 -97 782 -72 b 574 -14 679 -35 626 -22 b 494 -4 547 -10 521 -7 b 583 111 524 33 553 72 b 694 131 619 118 657 124 b 1054 190 814 153 935 172 b 1108 199 1072 193 1090 196 b 918 -172 1046 75 981 -47 z m 1397 842 b 1383 792 1393 825 1389 808 b 1304 594 1363 725 1333 660 b 1119 219 1247 468 1183 343 b 1051 211 1097 217 1075 214 b 689 161 931 196 810 179 b 613 149 664 157 638 153 b 742 313 654 203 699 258 b 1022 636 832 422 925 532 b 1175 785 1071 688 1122 738 b 1257 853 1201 808 1229 832 b 1346 906 1285 874 1315 892 b 1389 915 1361 913 1378 918 b 1399 910 1394 915 1396 914 b 1403 892 1401 906 1403 899 b 1397 842 1403 876 1401 858 z "},"B":{"ha":1629,"x_min":0,"x_max":0,"o":"m 1649 249 b 1317 226 1538 246 1426 239 b 1311 236 1315 229 1313 233 b 1199 313 1283 275 1240 297 b 1093 333 1164 324 1129 331 b 1093 335 1093 333 1093 333 b 1217 417 1138 357 1178 386 b 1414 633 1292 479 1358 551 b 1483 764 1440 674 1465 717 b 1500 839 1492 788 1499 813 b 1478 921 1503 865 1499 897 b 1442 947 1468 933 1456 942 b 1403 958 1429 953 1415 956 b 1325 954 1376 961 1350 958 b 1185 906 1276 946 1229 928 b 949 736 1097 861 1019 801 b 746 529 876 672 810 601 b 513 232 664 435 586 335 l 522 247 b 621 431 556 308 589 368 b 711 618 653 492 683 553 b 747 717 725 650 738 682 b 757 769 751 733 756 751 b 756 799 758 779 758 789 b 739 828 754 808 749 819 b 724 825 735 831 728 829 b 725 810 719 819 721 814 l 726 810 b 733 771 733 803 736 788 b 722 724 732 756 728 739 b 685 629 713 692 699 660 b 590 447 656 567 624 507 b 486 268 556 388 521 328 l 433 179 l 407 135 b 394 110 403 126 399 118 b 388 97 392 107 390 103 b 385 89 388 94 386 93 b 383 83 385 89 385 86 l 383 82 l 383 79 b 383 72 383 76 383 75 b 411 53 385 58 397 50 b 431 75 422 54 431 64 b 432 79 431 76 432 78 b 432 81 432 79 432 81 b 767 511 535 231 646 376 b 968 714 831 583 897 651 b 1200 875 1040 776 1117 833 b 1332 918 1242 896 1286 911 b 1397 921 1354 921 1376 922 b 1449 897 1419 918 1438 910 b 1461 842 1460 883 1463 864 b 1446 778 1460 821 1453 800 b 1379 657 1429 736 1406 694 b 1188 451 1326 579 1261 510 b 1072 375 1151 422 1113 396 b 944 333 1031 354 988 338 b 944 333 944 333 944 333 b 943 333 943 333 943 333 b 922 307 931 332 921 319 b 944 286 924 296 933 288 b 946 286 944 286 946 286 b 949 286 947 286 947 286 l 950 286 b 950 286 950 286 950 286 b 950 286 950 286 950 286 b 1185 269 1028 294 1111 293 b 1265 221 1215 258 1244 243 b 1156 206 1229 217 1192 211 b 674 85 992 179 831 140 b 235 -146 518 29 367 -43 b 142 -229 203 -171 171 -199 b 65 -329 113 -260 86 -293 b 32 -456 44 -367 28 -410 b 58 -518 35 -478 43 -501 b 115 -557 74 -536 94 -549 b 365 -587 196 -585 281 -593 b 611 -537 449 -582 532 -564 b 1050 -303 769 -486 918 -404 b 1232 -129 1117 -250 1178 -194 b 1303 -22 1258 -96 1283 -61 b 1328 39 1313 -3 1322 18 b 1342 103 1335 58 1339 81 b 1339 171 1344 125 1344 149 b 1322 218 1336 188 1329 203 b 1649 242 1431 231 1539 239 b 1651 246 1650 242 1651 243 b 1649 249 1651 247 1650 249 z m 1275 210 b 1299 107 1296 182 1303 144 b 1288 50 1297 88 1293 69 b 1267 -4 1282 32 1275 14 b 1201 -103 1249 -39 1226 -72 b 1026 -272 1150 -165 1090 -222 b 600 -507 899 -374 754 -454 b 363 -557 524 -533 443 -551 b 125 -531 282 -564 200 -557 b 79 -501 107 -525 90 -514 b 58 -453 67 -487 60 -471 b 86 -342 54 -415 68 -376 b 158 -246 106 -307 131 -275 b 249 -162 186 -215 217 -189 b 681 69 376 -61 526 13 b 1157 194 835 126 994 167 b 1274 211 1196 200 1235 207 b 1275 210 1274 211 1275 210 z "},"C":{"ha":1303,"x_min":0,"x_max":0,"o":"m 1315 249 b 974 -107 1207 125 1093 7 b 594 -419 854 -219 729 -328 b 381 -537 526 -465 456 -507 b 265 -571 343 -553 304 -565 b 149 -567 226 -578 186 -578 b 71 -494 113 -557 83 -531 b 63 -381 58 -460 58 -419 b 135 -150 74 -301 103 -224 b 386 271 203 -1 290 139 b 707 642 483 403 589 529 b 892 800 765 699 826 753 b 1101 915 957 849 1028 890 b 1157 928 1121 921 1139 926 b 1182 928 1167 929 1175 929 b 1196 922 1190 926 1193 925 b 1199 908 1197 921 1199 915 b 1193 883 1197 901 1196 892 b 1171 831 1188 867 1179 849 b 1031 635 1132 761 1082 696 l 1031 633 b 1033 600 1022 624 1024 608 b 1067 603 1043 592 1058 593 b 1143 703 1094 636 1119 668 b 1211 810 1168 736 1190 772 b 1238 871 1221 829 1231 849 b 1243 907 1240 882 1243 893 b 1231 950 1243 919 1242 936 b 1189 972 1219 965 1203 971 b 1153 972 1176 974 1164 974 b 1089 957 1129 969 1108 964 b 867 835 1006 929 935 883 b 678 671 800 785 738 729 b 357 292 560 554 454 426 b 106 -136 261 157 174 15 b 33 -376 74 -212 44 -292 b 43 -506 28 -418 28 -462 b 82 -562 51 -526 64 -547 b 142 -593 99 -578 119 -587 b 269 -599 183 -606 228 -606 b 390 -562 313 -592 351 -578 b 608 -440 468 -529 539 -486 b 988 -122 744 -346 868 -236 b 1328 238 1107 -7 1219 113 b 1326 250 1331 242 1331 247 b 1315 249 1324 253 1318 253 z "},"Ç":{"ha":1303,"x_min":0,"x_max":0,"o":"m 1315 249 b 974 -107 1207 125 1093 7 b 594 -419 854 -219 729 -328 b 381 -537 526 -465 456 -507 b 265 -571 343 -553 304 -565 b 149 -567 226 -578 186 -578 b 71 -494 113 -557 83 -531 b 63 -381 58 -460 58 -419 b 135 -150 74 -301 103 -224 b 386 271 203 -1 290 139 b 707 642 483 403 589 529 b 892 800 765 699 826 753 b 1101 915 957 849 1028 890 b 1157 928 1121 921 1139 926 b 1182 928 1167 929 1175 929 b 1196 922 1190 926 1193 925 b 1199 908 1197 921 1199 915 b 1193 883 1197 901 1196 892 b 1171 831 1188 867 1179 849 b 1031 635 1132 761 1082 696 l 1031 633 b 1033 600 1022 624 1024 608 b 1067 603 1043 592 1058 593 b 1143 703 1094 636 1119 668 b 1211 810 1168 736 1190 772 b 1238 871 1221 829 1231 849 b 1243 907 1240 882 1243 893 b 1231 950 1243 919 1242 936 b 1189 972 1219 965 1203 971 b 1153 972 1176 974 1164 974 b 1089 957 1129 969 1108 964 b 867 835 1006 929 935 883 b 678 671 800 785 738 729 b 357 292 560 554 454 426 b 106 -136 261 157 174 15 b 33 -376 74 -212 44 -292 b 43 -506 28 -418 28 -462 b 82 -562 51 -526 64 -547 b 142 -593 99 -578 119 -587 b 269 -599 183 -606 228 -606 b 390 -562 313 -592 351 -578 b 608 -440 468 -529 539 -486 b 988 -122 744 -346 868 -236 b 1328 238 1107 -7 1219 113 b 1326 250 1331 242 1331 247 b 1315 249 1324 253 1318 253 z "},"D":{"ha":1493,"x_min":0,"x_max":0,"o":"m 1515 247 b 1211 233 1414 249 1311 244 b 1294 414 1242 292 1271 353 b 1350 582 1317 468 1335 525 b 1374 758 1364 639 1374 699 b 1363 850 1374 789 1371 819 b 1321 935 1356 879 1342 910 b 1238 983 1299 958 1268 976 b 1143 985 1206 990 1174 989 b 974 926 1083 975 1026 953 b 824 831 919 899 871 867 b 565 590 729 760 644 678 b 343 319 486 504 413 413 b 386 401 358 346 372 374 b 481 603 419 468 453 535 b 519 708 496 638 508 672 b 531 765 524 726 529 746 b 531 796 532 775 532 785 b 514 826 529 806 525 818 b 499 825 508 831 501 829 b 500 810 494 821 496 814 b 507 768 508 803 510 785 b 494 717 506 750 500 733 b 454 614 483 682 469 647 b 356 418 425 547 390 482 b 247 225 319 353 283 289 l 192 128 l 164 79 b 151 54 160 71 156 63 b 144 40 149 50 147 44 b 142 32 144 38 143 35 l 142 29 l 140 26 b 139 22 140 25 140 25 b 140 14 139 19 139 17 b 151 -3 140 7 146 1 b 156 -6 153 -4 154 -6 b 188 3 167 -12 182 -8 l 189 3 b 379 292 247 101 313 199 b 597 563 447 386 519 476 b 847 800 674 649 756 729 b 990 892 893 835 940 867 b 1149 949 1042 918 1094 939 b 1229 947 1176 953 1203 953 b 1294 911 1254 942 1276 929 b 1339 758 1328 872 1339 814 b 1318 590 1339 703 1331 646 b 1265 425 1304 535 1286 479 b 1175 229 1240 358 1210 293 b 824 157 1057 215 939 190 b 499 31 713 125 603 83 b 206 -161 394 -22 294 -83 b 88 -292 161 -200 121 -242 b 44 -369 71 -315 56 -342 b 31 -458 35 -397 28 -428 b 72 -542 35 -490 47 -519 b 158 -571 97 -562 129 -568 b 335 -551 218 -575 278 -564 b 501 -493 392 -537 449 -519 b 654 -407 554 -468 606 -439 b 919 -176 751 -340 840 -262 b 1133 101 1000 -90 1071 3 b 1207 226 1160 143 1185 183 b 1515 243 1310 239 1413 244 b 1517 244 1517 243 1517 244 b 1515 247 1517 246 1517 247 z m 1110 117 b 900 -158 1049 19 979 -74 b 642 -387 822 -244 736 -322 b 329 -532 546 -453 442 -506 b 160 -551 274 -544 217 -554 b 83 -528 132 -549 104 -543 b 60 -496 74 -519 65 -508 b 49 -457 54 -483 50 -471 b 61 -375 46 -431 51 -401 b 100 -300 71 -349 85 -324 b 215 -172 132 -253 172 -211 b 504 19 301 -96 400 -33 b 826 149 607 72 715 115 b 1171 222 939 182 1054 207 b 1110 117 1151 186 1131 151 z "},"E":{"ha":808,"x_min":0,"x_max":0,"o":"m 1264 907 b 1292 903 1274 906 1283 904 b 1303 900 1296 901 1300 901 b 1306 897 1304 899 1306 897 b 1340 900 1317 889 1331 890 b 1346 913 1342 903 1344 907 b 1344 925 1346 917 1346 921 b 1339 933 1343 929 1339 933 b 1335 938 1338 935 1336 936 b 1329 940 1332 939 1331 939 b 1326 942 1328 940 1326 942 b 1315 944 1322 943 1318 944 b 1299 947 1310 946 1304 947 b 1268 950 1288 949 1278 950 b 1207 951 1247 951 1226 951 b 1086 949 1167 951 1126 951 b 965 940 1046 947 1006 944 b 846 926 926 938 886 932 b 747 908 813 921 779 915 b 747 910 747 908 747 910 b 751 931 749 917 750 924 b 750 943 751 935 751 939 b 742 958 750 947 747 954 b 726 956 738 961 731 961 b 729 940 722 951 724 944 b 729 932 728 942 729 938 b 725 915 728 928 728 922 b 721 903 724 911 722 907 b 611 875 685 894 647 886 b 386 776 533 853 457 822 b 383 775 386 776 385 775 b 382 740 374 767 372 751 b 415 739 390 731 406 729 b 619 846 472 788 546 822 b 708 871 649 856 678 864 b 681 814 700 851 690 833 b 608 682 658 769 633 725 b 454 419 558 594 506 507 b 326 201 411 347 369 275 b 274 183 310 196 292 190 l 210 164 l 208 164 b 193 151 201 161 196 157 b 204 115 186 138 190 122 b 239 126 217 108 232 113 b 282 167 249 143 265 157 b 317 183 293 174 304 179 b 157 -111 261 88 207 -11 b 93 -249 135 -156 113 -203 b 42 -394 74 -296 54 -344 b 28 -474 35 -419 29 -446 b 32 -517 28 -487 28 -501 b 53 -558 35 -531 40 -546 b 94 -583 64 -572 79 -581 b 139 -586 110 -587 125 -587 b 218 -568 167 -583 193 -576 b 358 -503 267 -550 314 -528 b 490 -425 404 -479 447 -453 b 742 -253 576 -371 660 -312 b 747 -218 753 -244 754 -229 b 713 -214 739 -208 724 -206 b 467 -387 632 -274 550 -333 b 338 -465 424 -415 382 -442 b 204 -529 294 -490 250 -512 b 136 -546 181 -537 158 -543 b 82 -532 113 -549 92 -544 b 67 -475 71 -521 67 -497 b 78 -404 68 -451 72 -428 b 126 -264 90 -357 108 -310 b 189 -126 146 -217 167 -171 b 361 197 242 -17 300 90 b 456 218 392 207 424 213 b 578 231 496 225 538 229 b 639 231 597 231 618 231 b 668 228 649 231 658 229 b 681 226 672 228 676 228 b 682 226 682 226 682 226 b 715 229 692 218 707 219 b 719 238 717 232 718 235 b 721 249 721 240 721 243 b 715 261 721 253 718 258 b 711 264 714 263 713 263 b 708 267 711 265 708 267 l 706 268 b 703 269 704 268 703 269 b 694 271 699 271 697 271 b 685 271 692 271 688 271 b 668 269 679 271 674 271 b 636 267 657 269 647 268 b 575 258 615 264 596 261 b 453 235 533 251 493 244 b 371 215 425 229 397 222 b 479 406 406 279 443 342 b 631 669 529 493 581 581 b 701 803 654 714 679 758 b 735 872 714 826 725 849 b 736 878 735 875 735 876 b 850 897 774 886 813 892 b 1088 914 929 908 1008 914 b 1206 913 1126 915 1167 914 b 1264 907 1225 911 1244 908 z m 1308 899 b 1307 899 1308 899 1308 899 b 1308 899 1308 899 1308 899 b 1308 899 1308 897 1308 899 z m 1300 925 b 1300 926 1300 925 1300 926 b 1300 925 1300 926 1300 925 z m 688 225 b 688 225 688 225 689 225 b 686 225 688 225 686 225 l 685 225 b 688 225 686 225 686 225 z m 676 256 b 679 260 676 257 678 258 b 676 256 678 258 676 257 z "},"È":{"ha":808,"x_min":0,"x_max":0,"o":"m 1264 907 b 1292 903 1274 906 1283 904 b 1303 900 1296 901 1300 901 b 1306 897 1304 899 1306 897 b 1340 900 1317 889 1331 890 b 1346 913 1342 903 1344 907 b 1344 925 1346 917 1346 921 b 1339 933 1343 929 1339 933 b 1335 938 1338 935 1336 936 b 1329 940 1332 939 1331 939 b 1326 942 1328 940 1326 942 b 1315 944 1322 943 1318 944 b 1299 947 1310 946 1304 947 b 1268 950 1288 949 1278 950 b 1207 951 1247 951 1226 951 b 1086 949 1167 951 1126 951 b 965 940 1046 947 1006 944 b 846 926 926 938 886 932 b 747 908 813 921 779 915 b 747 910 747 908 747 910 b 751 931 749 917 750 924 b 750 943 751 935 751 939 b 742 958 750 947 747 954 b 726 956 738 961 731 961 b 729 940 722 951 724 944 b 729 932 728 942 729 938 b 725 915 728 928 728 922 b 721 903 724 911 722 907 b 611 875 685 894 647 886 b 386 776 533 853 457 822 b 383 775 386 776 385 775 b 382 740 374 767 372 751 b 415 739 390 731 406 729 b 619 846 472 788 546 822 b 708 871 649 856 678 864 b 681 814 700 851 690 833 b 608 682 658 769 633 725 b 454 419 558 594 506 507 b 326 201 411 347 369 275 b 274 183 310 196 292 190 l 210 164 l 208 164 b 193 151 201 161 196 157 b 204 115 186 138 190 122 b 239 126 217 108 232 113 b 282 167 249 143 265 157 b 317 183 293 174 304 179 b 157 -111 261 88 207 -11 b 93 -249 135 -156 113 -203 b 42 -394 74 -296 54 -344 b 28 -474 35 -419 29 -446 b 32 -517 28 -487 28 -501 b 53 -558 35 -531 40 -546 b 94 -583 64 -572 79 -581 b 139 -586 110 -587 125 -587 b 218 -568 167 -583 193 -576 b 358 -503 267 -550 314 -528 b 490 -425 404 -479 447 -453 b 742 -253 576 -371 660 -312 b 747 -218 753 -244 754 -229 b 713 -214 739 -208 724 -206 b 467 -387 632 -274 550 -333 b 338 -465 424 -415 382 -442 b 204 -529 294 -490 250 -512 b 136 -546 181 -537 158 -543 b 82 -532 113 -549 92 -544 b 67 -475 71 -521 67 -497 b 78 -404 68 -451 72 -428 b 126 -264 90 -357 108 -310 b 189 -126 146 -217 167 -171 b 361 197 242 -17 300 90 b 456 218 392 207 424 213 b 578 231 496 225 538 229 b 639 231 597 231 618 231 b 668 228 649 231 658 229 b 681 226 672 228 676 228 b 682 226 682 226 682 226 b 715 229 692 218 707 219 b 719 238 717 232 718 235 b 721 249 721 240 721 243 b 715 261 721 253 718 258 b 711 264 714 263 713 263 b 708 267 711 265 708 267 l 706 268 b 703 269 704 268 703 269 b 694 271 699 271 697 271 b 685 271 692 271 688 271 b 668 269 679 271 674 271 b 636 267 657 269 647 268 b 575 258 615 264 596 261 b 453 235 533 251 493 244 b 371 215 425 229 397 222 b 479 406 406 279 443 342 b 631 669 529 493 581 581 b 701 803 654 714 679 758 b 735 872 714 826 725 849 b 736 878 735 875 735 876 b 850 897 774 886 813 892 b 1088 914 929 908 1008 914 b 1206 913 1126 915 1167 914 b 1264 907 1225 911 1244 908 z m 1308 899 b 1307 899 1308 899 1308 899 b 1308 899 1308 899 1308 899 b 1308 899 1308 897 1308 899 z m 1300 925 b 1300 926 1300 925 1300 926 b 1300 925 1300 926 1300 925 z m 688 225 b 688 225 688 225 689 225 b 686 225 688 225 686 225 l 685 225 b 688 225 686 225 686 225 z m 676 256 b 679 260 676 257 678 258 b 676 256 678 258 676 257 z "},"É":{"ha":808,"x_min":0,"x_max":0,"o":"m 1264 907 b 1292 903 1274 906 1283 904 b 1303 900 1296 901 1300 901 b 1306 897 1304 899 1306 897 b 1340 900 1317 889 1331 890 b 1346 913 1342 903 1344 907 b 1344 925 1346 917 1346 921 b 1339 933 1343 929 1339 933 b 1335 938 1338 935 1336 936 b 1329 940 1332 939 1331 939 b 1326 942 1328 940 1326 942 b 1315 944 1322 943 1318 944 b 1299 947 1310 946 1304 947 b 1268 950 1288 949 1278 950 b 1207 951 1247 951 1226 951 b 1086 949 1167 951 1126 951 b 965 940 1046 947 1006 944 b 846 926 926 938 886 932 b 747 908 813 921 779 915 b 747 910 747 908 747 910 b 751 931 749 917 750 924 b 750 943 751 935 751 939 b 742 958 750 947 747 954 b 726 956 738 961 731 961 b 729 940 722 951 724 944 b 729 932 728 942 729 938 b 725 915 728 928 728 922 b 721 903 724 911 722 907 b 611 875 685 894 647 886 b 386 776 533 853 457 822 b 383 775 386 776 385 775 b 382 740 374 767 372 751 b 415 739 390 731 406 729 b 619 846 472 788 546 822 b 708 871 649 856 678 864 b 681 814 700 851 690 833 b 608 682 658 769 633 725 b 454 419 558 594 506 507 b 326 201 411 347 369 275 b 274 183 310 196 292 190 l 210 164 l 208 164 b 193 151 201 161 196 157 b 204 115 186 138 190 122 b 239 126 217 108 232 113 b 282 167 249 143 265 157 b 317 183 293 174 304 179 b 157 -111 261 88 207 -11 b 93 -249 135 -156 113 -203 b 42 -394 74 -296 54 -344 b 28 -474 35 -419 29 -446 b 32 -517 28 -487 28 -501 b 53 -558 35 -531 40 -546 b 94 -583 64 -572 79 -581 b 139 -586 110 -587 125 -587 b 218 -568 167 -583 193 -576 b 358 -503 267 -550 314 -528 b 490 -425 404 -479 447 -453 b 742 -253 576 -371 660 -312 b 747 -218 753 -244 754 -229 b 713 -214 739 -208 724 -206 b 467 -387 632 -274 550 -333 b 338 -465 424 -415 382 -442 b 204 -529 294 -490 250 -512 b 136 -546 181 -537 158 -543 b 82 -532 113 -549 92 -544 b 67 -475 71 -521 67 -497 b 78 -404 68 -451 72 -428 b 126 -264 90 -357 108 -310 b 189 -126 146 -217 167 -171 b 361 197 242 -17 300 90 b 456 218 392 207 424 213 b 578 231 496 225 538 229 b 639 231 597 231 618 231 b 668 228 649 231 658 229 b 681 226 672 228 676 228 b 682 226 682 226 682 226 b 715 229 692 218 707 219 b 719 238 717 232 718 235 b 721 249 721 240 721 243 b 715 261 721 253 718 258 b 711 264 714 263 713 263 b 708 267 711 265 708 267 l 706 268 b 703 269 704 268 703 269 b 694 271 699 271 697 271 b 685 271 692 271 688 271 b 668 269 679 271 674 271 b 636 267 657 269 647 268 b 575 258 615 264 596 261 b 453 235 533 251 493 244 b 371 215 425 229 397 222 b 479 406 406 279 443 342 b 631 669 529 493 581 581 b 701 803 654 714 679 758 b 735 872 714 826 725 849 b 736 878 735 875 735 876 b 850 897 774 886 813 892 b 1088 914 929 908 1008 914 b 1206 913 1126 915 1167 914 b 1264 907 1225 911 1244 908 z m 1308 899 b 1307 899 1308 899 1308 899 b 1308 899 1308 899 1308 899 b 1308 899 1308 897 1308 899 z m 1300 925 b 1300 926 1300 925 1300 926 b 1300 925 1300 926 1300 925 z m 688 225 b 688 225 688 225 689 225 b 686 225 688 225 686 225 l 685 225 b 688 225 686 225 686 225 z m 676 256 b 679 260 676 257 678 258 b 676 256 678 258 676 257 z "},"Ê":{"ha":808,"x_min":0,"x_max":0,"o":"m 1264 907 b 1292 903 1274 906 1283 904 b 1303 900 1296 901 1300 901 b 1306 897 1304 899 1306 897 b 1340 900 1317 889 1331 890 b 1346 913 1342 903 1344 907 b 1344 925 1346 917 1346 921 b 1339 933 1343 929 1339 933 b 1335 938 1338 935 1336 936 b 1329 940 1332 939 1331 939 b 1326 942 1328 940 1326 942 b 1315 944 1322 943 1318 944 b 1299 947 1310 946 1304 947 b 1268 950 1288 949 1278 950 b 1207 951 1247 951 1226 951 b 1086 949 1167 951 1126 951 b 965 940 1046 947 1006 944 b 846 926 926 938 886 932 b 747 908 813 921 779 915 b 747 910 747 908 747 910 b 751 931 749 917 750 924 b 750 943 751 935 751 939 b 742 958 750 947 747 954 b 726 956 738 961 731 961 b 729 940 722 951 724 944 b 729 932 728 942 729 938 b 725 915 728 928 728 922 b 721 903 724 911 722 907 b 611 875 685 894 647 886 b 386 776 533 853 457 822 b 383 775 386 776 385 775 b 382 740 374 767 372 751 b 415 739 390 731 406 729 b 619 846 472 788 546 822 b 708 871 649 856 678 864 b 681 814 700 851 690 833 b 608 682 658 769 633 725 b 454 419 558 594 506 507 b 326 201 411 347 369 275 b 274 183 310 196 292 190 l 210 164 l 208 164 b 193 151 201 161 196 157 b 204 115 186 138 190 122 b 239 126 217 108 232 113 b 282 167 249 143 265 157 b 317 183 293 174 304 179 b 157 -111 261 88 207 -11 b 93 -249 135 -156 113 -203 b 42 -394 74 -296 54 -344 b 28 -474 35 -419 29 -446 b 32 -517 28 -487 28 -501 b 53 -558 35 -531 40 -546 b 94 -583 64 -572 79 -581 b 139 -586 110 -587 125 -587 b 218 -568 167 -583 193 -576 b 358 -503 267 -550 314 -528 b 490 -425 404 -479 447 -453 b 742 -253 576 -371 660 -312 b 747 -218 753 -244 754 -229 b 713 -214 739 -208 724 -206 b 467 -387 632 -274 550 -333 b 338 -465 424 -415 382 -442 b 204 -529 294 -490 250 -512 b 136 -546 181 -537 158 -543 b 82 -532 113 -549 92 -544 b 67 -475 71 -521 67 -497 b 78 -404 68 -451 72 -428 b 126 -264 90 -357 108 -310 b 189 -126 146 -217 167 -171 b 361 197 242 -17 300 90 b 456 218 392 207 424 213 b 578 231 496 225 538 229 b 639 231 597 231 618 231 b 668 228 649 231 658 229 b 681 226 672 228 676 228 b 682 226 682 226 682 226 b 715 229 692 218 707 219 b 719 238 717 232 718 235 b 721 249 721 240 721 243 b 715 261 721 253 718 258 b 711 264 714 263 713 263 b 708 267 711 265 708 267 l 706 268 b 703 269 704 268 703 269 b 694 271 699 271 697 271 b 685 271 692 271 688 271 b 668 269 679 271 674 271 b 636 267 657 269 647 268 b 575 258 615 264 596 261 b 453 235 533 251 493 244 b 371 215 425 229 397 222 b 479 406 406 279 443 342 b 631 669 529 493 581 581 b 701 803 654 714 679 758 b 735 872 714 826 725 849 b 736 878 735 875 735 876 b 850 897 774 886 813 892 b 1088 914 929 908 1008 914 b 1206 913 1126 915 1167 914 b 1264 907 1225 911 1244 908 z m 1308 899 b 1307 899 1308 899 1308 899 b 1308 899 1308 899 1308 899 b 1308 899 1308 897 1308 899 z m 1300 925 b 1300 926 1300 925 1300 926 b 1300 925 1300 926 1300 925 z m 688 225 b 688 225 688 225 689 225 b 686 225 688 225 686 225 l 685 225 b 688 225 686 225 686 225 z m 676 256 b 679 260 676 257 678 258 b 676 256 678 258 676 257 z "},"Ë":{"ha":808,"x_min":0,"x_max":0,"o":"m 1264 907 b 1292 903 1274 906 1283 904 b 1303 900 1296 901 1300 901 b 1306 897 1304 899 1306 897 b 1340 900 1317 889 1331 890 b 1346 913 1342 903 1344 907 b 1344 925 1346 917 1346 921 b 1339 933 1343 929 1339 933 b 1335 938 1338 935 1336 936 b 1329 940 1332 939 1331 939 b 1326 942 1328 940 1326 942 b 1315 944 1322 943 1318 944 b 1299 947 1310 946 1304 947 b 1268 950 1288 949 1278 950 b 1207 951 1247 951 1226 951 b 1086 949 1167 951 1126 951 b 965 940 1046 947 1006 944 b 846 926 926 938 886 932 b 747 908 813 921 779 915 b 747 910 747 908 747 910 b 751 931 749 917 750 924 b 750 943 751 935 751 939 b 742 958 750 947 747 954 b 726 956 738 961 731 961 b 729 940 722 951 724 944 b 729 932 728 942 729 938 b 725 915 728 928 728 922 b 721 903 724 911 722 907 b 611 875 685 894 647 886 b 386 776 533 853 457 822 b 383 775 386 776 385 775 b 382 740 374 767 372 751 b 415 739 390 731 406 729 b 619 846 472 788 546 822 b 708 871 649 856 678 864 b 681 814 700 851 690 833 b 608 682 658 769 633 725 b 454 419 558 594 506 507 b 326 201 411 347 369 275 b 274 183 310 196 292 190 l 210 164 l 208 164 b 193 151 201 161 196 157 b 204 115 186 138 190 122 b 239 126 217 108 232 113 b 282 167 249 143 265 157 b 317 183 293 174 304 179 b 157 -111 261 88 207 -11 b 93 -249 135 -156 113 -203 b 42 -394 74 -296 54 -344 b 28 -474 35 -419 29 -446 b 32 -517 28 -487 28 -501 b 53 -558 35 -531 40 -546 b 94 -583 64 -572 79 -581 b 139 -586 110 -587 125 -587 b 218 -568 167 -583 193 -576 b 358 -503 267 -550 314 -528 b 490 -425 404 -479 447 -453 b 742 -253 576 -371 660 -312 b 747 -218 753 -244 754 -229 b 713 -214 739 -208 724 -206 b 467 -387 632 -274 550 -333 b 338 -465 424 -415 382 -442 b 204 -529 294 -490 250 -512 b 136 -546 181 -537 158 -543 b 82 -532 113 -549 92 -544 b 67 -475 71 -521 67 -497 b 78 -404 68 -451 72 -428 b 126 -264 90 -357 108 -310 b 189 -126 146 -217 167 -171 b 361 197 242 -17 300 90 b 456 218 392 207 424 213 b 578 231 496 225 538 229 b 639 231 597 231 618 231 b 668 228 649 231 658 229 b 681 226 672 228 676 228 b 682 226 682 226 682 226 b 715 229 692 218 707 219 b 719 238 717 232 718 235 b 721 249 721 240 721 243 b 715 261 721 253 718 258 b 711 264 714 263 713 263 b 708 267 711 265 708 267 l 706 268 b 703 269 704 268 703 269 b 694 271 699 271 697 271 b 685 271 692 271 688 271 b 668 269 679 271 674 271 b 636 267 657 269 647 268 b 575 258 615 264 596 261 b 453 235 533 251 493 244 b 371 215 425 229 397 222 b 479 406 406 279 443 342 b 631 669 529 493 581 581 b 701 803 654 714 679 758 b 735 872 714 826 725 849 b 736 878 735 875 735 876 b 850 897 774 886 813 892 b 1088 914 929 908 1008 914 b 1206 913 1126 915 1167 914 b 1264 907 1225 911 1244 908 z m 1308 899 b 1307 899 1308 899 1308 899 b 1308 899 1308 899 1308 899 b 1308 899 1308 897 1308 899 z m 1300 925 b 1300 926 1300 925 1300 926 b 1300 925 1300 926 1300 925 z m 688 225 b 688 225 688 225 689 225 b 686 225 688 225 686 225 l 685 225 b 688 225 686 225 686 225 z m 676 256 b 679 260 676 257 678 258 b 676 256 678 258 676 257 z "},"F":{"ha":882,"x_min":0,"x_max":0,"o":"m 724 740 b 760 838 738 772 750 804 b 774 888 765 854 771 871 b 774 890 774 889 774 890 b 864 904 804 896 835 900 b 1126 918 951 914 1039 918 b 1257 914 1169 918 1213 917 b 1321 907 1278 913 1300 910 b 1353 903 1332 907 1342 904 b 1367 899 1357 901 1363 900 b 1368 897 1367 899 1368 897 b 1401 899 1378 888 1393 889 b 1408 911 1406 901 1407 907 b 1407 925 1410 917 1408 921 b 1403 932 1406 928 1404 931 b 1400 933 1401 933 1401 933 b 1397 938 1400 935 1399 936 l 1394 939 l 1393 939 l 1392 940 b 1388 942 1390 940 1389 942 b 1376 944 1383 943 1381 943 b 1358 946 1371 946 1364 946 b 1325 949 1347 947 1336 949 b 1257 950 1301 950 1279 950 b 1125 944 1214 950 1169 947 b 863 918 1038 940 950 932 b 776 904 833 914 804 910 b 776 915 776 908 776 911 b 775 932 776 921 776 926 b 772 940 775 935 772 938 b 764 949 771 943 767 946 b 760 951 763 950 761 951 b 746 946 754 954 747 951 b 751 931 743 940 746 933 b 754 915 753 931 754 924 b 753 899 754 911 753 906 b 732 896 746 897 739 897 b 604 864 689 886 647 876 b 479 819 563 851 521 835 b 354 769 438 804 397 788 l 353 769 b 343 763 350 768 346 765 b 347 728 335 753 336 738 b 367 722 353 724 360 721 b 376 707 371 718 374 713 l 386 689 b 393 668 389 682 390 675 b 399 649 394 663 397 656 l 401 628 l 406 607 l 407 586 b 403 418 413 531 408 474 b 354 192 393 342 375 267 b 331 183 346 189 339 186 l 267 164 l 265 163 b 250 150 258 161 253 157 b 261 115 243 138 247 122 b 296 126 274 108 289 113 b 339 167 306 143 322 157 b 349 172 342 169 344 171 b 322 90 340 144 332 118 l 293 11 l 278 -28 b 261 -67 274 -42 267 -54 l 228 -144 l 211 -182 l 124 -339 l 74 -429 l 50 -475 l 38 -499 l 32 -511 b 29 -518 32 -514 31 -515 l 28 -524 b 28 -525 28 -524 28 -524 b 26 -529 26 -526 26 -528 b 26 -537 26 -532 26 -535 b 54 -557 29 -550 42 -558 b 74 -536 65 -554 72 -546 l 74 -535 l 76 -531 l 81 -519 l 92 -496 l 115 -451 l 163 -361 l 260 -179 b 454 183 325 -58 390 63 b 467 210 458 193 463 201 b 513 218 482 213 497 215 b 635 231 553 225 594 228 b 696 231 654 231 675 231 b 725 228 706 231 715 229 b 739 226 729 228 735 228 b 739 226 739 226 739 226 b 772 229 749 218 764 219 b 776 238 774 232 776 235 b 778 249 778 240 778 243 b 772 261 778 253 775 258 b 769 264 772 261 771 263 b 765 267 768 265 765 267 l 763 268 b 760 269 761 268 760 269 b 751 271 756 269 754 271 b 742 271 749 271 744 271 b 725 269 736 271 731 269 b 693 267 714 269 704 268 b 632 257 672 264 653 261 b 510 235 590 251 550 243 b 476 228 499 233 488 231 b 639 551 532 335 588 443 b 724 740 669 614 697 676 z m 1371 897 b 1371 897 1371 897 1371 897 b 1371 897 1372 897 1371 897 z m 1363 924 b 1367 931 1364 926 1365 929 b 1363 924 1365 928 1364 926 z m 1361 919 b 1361 918 1361 919 1361 919 b 1361 919 1361 918 1361 919 b 1361 919 1361 919 1361 919 z m 744 225 b 744 225 744 225 746 225 b 743 225 744 225 743 225 l 742 225 b 744 225 743 225 744 225 z m 733 256 b 736 260 733 257 735 258 b 733 256 735 258 733 257 z m 74 -535 b 74 -529 74 -533 74 -531 b 74 -533 74 -531 74 -532 b 74 -535 74 -533 74 -535 z m 299 -24 l 310 6 l 339 85 b 367 181 349 117 358 149 b 394 190 376 185 385 188 b 422 199 403 193 413 196 b 299 -24 382 124 340 50 z m 432 215 b 390 204 418 213 404 208 b 372 197 383 201 378 200 b 417 417 392 269 408 343 b 421 588 422 474 426 531 l 418 608 l 415 631 b 407 672 413 644 411 658 b 401 693 404 679 403 686 l 394 714 b 388 738 393 722 390 729 b 485 808 414 767 449 789 b 607 853 524 828 565 840 b 750 886 654 867 701 878 b 738 844 746 872 742 858 b 700 750 726 813 714 781 b 614 564 674 688 644 625 b 432 215 556 447 493 331 z "},"G":{"ha":1319,"x_min":0,"x_max":0,"o":"m 1222 956 b 1183 972 1210 965 1196 969 b 1149 972 1171 974 1160 974 b 1083 958 1125 969 1104 964 b 868 835 1003 931 933 885 b 686 669 803 783 743 728 b 376 292 572 551 469 425 b 128 -129 282 158 197 18 b 42 -360 93 -203 61 -279 b 32 -486 33 -400 26 -442 b 54 -549 35 -507 40 -529 b 113 -587 68 -568 90 -582 b 144 -592 124 -590 135 -592 b 176 -590 156 -592 167 -592 b 239 -579 199 -589 219 -585 b 354 -533 279 -569 318 -553 b 558 -396 428 -496 494 -447 b 904 -53 683 -293 797 -175 b 1164 271 994 51 1082 160 b 1114 186 1149 242 1131 214 b 863 -183 1033 61 947 -61 b 736 -368 819 -243 778 -306 b 676 -464 715 -399 696 -431 b 650 -515 667 -481 658 -497 b 639 -544 646 -524 642 -533 b 635 -561 638 -550 636 -556 b 639 -587 635 -568 633 -576 b 671 -599 644 -600 658 -604 b 682 -568 682 -593 688 -581 b 682 -567 682 -568 682 -567 b 683 -556 682 -564 683 -560 b 692 -532 685 -549 688 -540 b 714 -483 697 -517 706 -500 b 768 -387 731 -451 749 -419 b 888 -200 806 -324 847 -262 b 1135 172 969 -75 1056 46 b 1190 271 1154 204 1174 236 b 1201 297 1194 279 1199 288 b 1207 313 1204 301 1206 307 b 1208 331 1208 317 1208 322 b 1207 333 1208 331 1208 332 b 1206 339 1207 336 1207 338 b 1203 343 1204 340 1203 342 b 1189 349 1197 347 1192 349 b 1179 349 1183 349 1182 349 l 1171 347 b 1143 340 1161 346 1153 343 b 1039 294 1107 328 1072 313 b 940 240 1006 278 972 260 b 754 114 876 203 813 161 b 669 38 725 90 696 65 b 632 -10 656 24 643 8 b 610 -72 621 -26 611 -46 l 610 -74 b 610 -76 610 -74 610 -75 b 635 -99 610 -89 621 -99 b 657 -72 647 -97 658 -86 b 669 -32 656 -61 661 -46 b 699 11 678 -17 688 -3 b 776 88 722 39 749 64 b 954 218 832 136 892 179 b 1150 317 1017 257 1082 293 b 1176 324 1158 319 1168 322 l 1182 325 b 1182 325 1182 325 1182 325 b 889 -39 1090 199 992 78 b 542 -378 781 -160 668 -276 b 343 -510 479 -428 414 -474 b 232 -553 307 -528 271 -543 b 175 -562 214 -558 194 -561 b 119 -560 156 -564 136 -564 b 78 -532 101 -556 88 -546 b 61 -482 68 -518 63 -500 b 72 -367 57 -444 63 -406 b 157 -143 90 -290 122 -215 b 406 271 226 1 313 139 b 714 642 499 401 601 526 b 893 801 771 699 831 753 b 1097 917 957 849 1025 893 b 1151 928 1115 922 1135 926 b 1194 921 1169 931 1186 928 b 1203 907 1197 918 1200 914 b 1204 885 1204 900 1204 893 b 1193 831 1204 867 1199 849 b 1146 724 1182 794 1165 758 b 1086 621 1128 688 1107 653 l 1085 621 b 1092 588 1078 610 1082 594 b 1125 594 1103 581 1118 583 b 1188 701 1149 629 1168 665 b 1238 817 1207 738 1224 776 b 1250 882 1243 838 1249 858 b 1246 919 1250 894 1250 907 b 1222 956 1242 932 1235 946 z "},"H":{"ha":1264,"x_min":0,"x_max":0,"o":"m 1213 256 b 1210 258 1211 257 1211 257 b 1201 261 1206 260 1203 260 b 1190 263 1197 261 1193 263 b 1169 264 1183 264 1176 264 b 1132 265 1157 265 1144 265 b 1057 264 1107 265 1082 265 b 1017 263 1043 264 1031 264 b 1211 593 1081 374 1144 483 b 1331 779 1250 656 1289 718 b 1392 872 1350 811 1371 842 b 1424 917 1401 886 1413 901 b 1440 938 1429 924 1435 931 b 1450 947 1443 942 1447 944 b 1458 954 1453 950 1456 954 l 1458 956 b 1463 967 1463 957 1464 963 b 1450 971 1460 971 1454 974 b 1436 960 1443 967 1440 964 b 1426 950 1433 957 1431 953 b 1408 928 1421 942 1415 935 b 1375 883 1397 913 1386 899 b 1313 792 1354 853 1333 822 b 1190 606 1271 731 1231 668 b 979 261 1118 492 1047 378 b 908 257 956 260 932 260 b 614 228 810 250 713 242 b 500 210 576 222 539 217 b 654 476 553 297 604 386 b 728 625 679 525 704 575 b 758 703 739 650 750 676 b 769 744 763 715 767 729 b 767 792 772 758 775 774 b 751 797 764 797 757 800 b 746 782 746 794 744 788 l 747 781 b 747 749 750 774 750 760 b 736 710 744 736 740 722 b 704 636 728 685 717 660 b 629 490 682 586 656 539 b 460 210 575 396 518 301 b 454 201 458 207 456 204 b 322 172 410 193 367 183 b 179 131 275 161 226 147 b 42 67 132 113 86 93 b 39 65 40 67 39 65 b 35 31 28 57 26 42 b 65 25 42 22 54 19 b 140 -29 96 19 125 -1 b 163 -136 157 -61 163 -99 b 144 -247 160 -172 154 -210 b 124 -317 139 -271 132 -293 b 117 -331 121 -321 118 -326 b 111 -340 114 -333 113 -337 b 108 -347 110 -343 110 -344 l 107 -351 b 106 -364 106 -354 106 -360 b 133 -383 108 -378 121 -386 b 153 -364 144 -382 151 -374 b 153 -364 153 -364 153 -364 b 154 -360 153 -362 154 -361 b 158 -353 156 -358 157 -356 b 168 -335 161 -347 164 -340 b 188 -300 174 -324 181 -311 l 231 -231 l 317 -90 b 483 181 374 0 429 90 b 618 201 528 189 572 196 b 911 225 715 214 813 222 b 957 226 926 225 942 225 b 740 -160 882 99 810 -29 b 642 -361 706 -226 672 -293 b 601 -467 628 -394 613 -429 b 586 -524 594 -485 589 -503 b 585 -557 585 -533 583 -544 b 593 -581 585 -564 588 -572 b 619 -599 597 -589 610 -597 b 647 -579 632 -601 644 -592 b 632 -553 649 -568 643 -557 b 632 -551 632 -551 632 -551 b 632 -531 631 -546 631 -537 b 644 -481 635 -514 639 -497 b 683 -378 656 -446 668 -412 b 776 -179 711 -311 743 -244 b 986 211 843 -47 914 82 b 996 226 989 217 993 221 b 1057 226 1017 226 1036 226 b 1131 222 1082 225 1106 224 b 1165 219 1142 222 1154 221 b 1183 217 1172 218 1178 218 b 1185 217 1183 217 1185 217 b 1186 215 1185 215 1186 215 b 1219 217 1196 207 1211 207 b 1224 224 1221 219 1222 221 b 1226 235 1225 225 1226 231 b 1219 251 1226 243 1221 250 b 1213 256 1215 254 1214 256 z m 153 -362 b 153 -361 153 -362 153 -361 b 153 -362 153 -361 153 -362 z m 153 -361 b 153 -356 153 -360 153 -358 b 153 -361 154 -357 154 -360 z m 282 -68 l 193 -206 l 176 -233 b 186 -136 182 -201 185 -168 b 157 -19 185 -96 178 -56 b 83 38 140 8 114 29 b 192 99 117 61 153 81 b 329 146 236 117 282 133 b 436 172 365 156 400 164 b 282 -68 385 92 333 13 z m 628 -551 b 629 -551 628 -551 628 -551 b 628 -551 628 -551 628 -551 z m 1183 249 b 1179 242 1182 247 1181 244 b 1181 243 1179 243 1181 243 b 1183 249 1181 246 1182 247 z m 1190 215 b 1189 215 1189 215 1189 215 b 1189 215 1189 215 1189 215 b 1190 215 1190 215 1190 214 z "},"I":{"ha":1088,"x_min":0,"x_max":0,"o":"m 1596 907 b 1628 901 1607 906 1618 904 b 1642 899 1632 901 1638 900 b 1642 899 1642 899 1642 899 b 1644 897 1643 899 1643 897 b 1678 899 1654 888 1668 889 b 1683 911 1681 901 1683 907 b 1682 925 1685 917 1683 921 b 1678 932 1681 928 1679 931 b 1676 935 1676 933 1676 933 b 1672 938 1675 935 1674 936 l 1669 939 l 1667 940 b 1663 942 1665 940 1664 942 b 1653 944 1658 943 1656 944 b 1635 947 1646 946 1640 946 b 1600 950 1622 949 1611 949 b 1533 951 1578 951 1556 951 b 1400 949 1489 951 1444 951 b 1268 940 1357 947 1313 944 b 1217 935 1251 939 1235 938 b 1217 943 1217 938 1217 940 b 1215 954 1217 947 1215 950 b 1210 965 1214 958 1211 963 b 1175 971 1201 976 1186 979 b 1171 938 1165 964 1163 949 b 1172 931 1169 940 1172 936 b 1138 925 1161 929 1149 928 b 878 872 1050 914 963 896 b 629 769 792 849 707 818 b 626 768 628 769 628 769 b 624 735 617 760 615 744 b 657 731 632 724 646 722 b 661 732 658 731 660 732 b 724 746 679 742 703 746 b 786 732 746 746 767 740 b 861 633 826 714 853 675 b 863 501 871 590 869 546 l 860 485 l 857 468 b 850 436 854 458 853 447 b 832 372 844 414 839 393 b 731 122 804 286 769 204 b 603 -114 692 42 649 -36 l 603 -115 b 603 -115 603 -115 603 -115 b 601 -122 601 -117 601 -119 l 499 -287 b 446 -376 481 -317 464 -347 b 422 -422 438 -392 429 -407 b 413 -443 418 -429 415 -436 b 239 -475 354 -453 297 -462 b 142 -500 207 -483 174 -492 b 44 -536 110 -510 76 -521 b 42 -539 43 -537 43 -537 b 35 -572 31 -546 28 -561 b 68 -578 43 -583 57 -586 b 246 -504 119 -543 183 -521 b 401 -474 297 -492 350 -482 b 401 -479 401 -475 401 -476 b 417 -504 400 -490 406 -500 b 446 -489 429 -507 443 -500 l 449 -481 b 449 -479 449 -481 449 -481 l 450 -475 b 453 -467 450 -472 451 -469 b 636 -450 514 -460 575 -453 b 735 -447 669 -449 703 -447 b 783 -449 751 -447 768 -447 b 807 -450 792 -449 800 -449 b 817 -451 811 -450 814 -450 b 847 -450 826 -457 839 -458 b 854 -437 850 -447 853 -443 b 853 -421 856 -435 856 -426 b 850 -415 851 -418 851 -417 b 847 -414 849 -414 847 -414 l 846 -411 b 840 -408 844 -410 842 -410 b 836 -407 838 -407 838 -407 b 832 -406 835 -407 833 -406 b 824 -404 829 -406 826 -406 b 810 -404 819 -404 814 -404 b 783 -404 801 -404 793 -404 b 733 -407 767 -406 750 -406 b 633 -415 700 -410 667 -412 b 465 -436 578 -421 521 -428 b 485 -397 471 -422 478 -410 b 532 -307 500 -367 515 -337 b 633 -131 564 -247 599 -189 b 842 221 703 -12 772 104 b 1047 574 913 338 981 456 b 1146 754 1081 633 1114 693 b 1192 847 1161 785 1178 815 b 1210 897 1199 863 1206 879 b 1213 904 1211 900 1211 901 b 1401 914 1275 910 1339 914 b 1532 911 1444 915 1489 914 b 1596 907 1553 911 1575 908 z m 1638 924 b 1642 931 1639 926 1640 929 b 1638 924 1640 928 1639 926 z m 1638 919 b 1636 918 1636 919 1636 918 b 1636 919 1636 918 1636 919 b 1638 919 1636 919 1636 919 z m 821 -451 b 821 -451 821 -451 821 -451 b 822 -451 821 -451 821 -451 b 821 -451 822 -451 822 -451 z m 810 -421 b 815 -414 811 -418 813 -417 b 810 -421 813 -417 811 -418 z m 808 -424 b 808 -428 808 -425 808 -426 b 808 -425 808 -426 808 -425 b 808 -424 808 -425 808 -425 z m 1158 860 b 1121 767 1147 828 1135 797 b 1029 585 1093 704 1061 644 b 821 233 963 465 892 350 b 757 129 800 199 779 164 b 847 367 792 207 824 285 b 865 432 854 389 860 411 b 872 465 868 443 869 454 l 875 482 l 878 500 b 875 636 883 544 886 592 b 847 700 871 660 861 681 b 793 744 833 719 814 735 b 725 761 771 754 747 758 b 701 763 717 761 708 761 b 886 844 757 797 821 824 b 1140 896 968 869 1054 885 b 1168 900 1150 897 1160 899 b 1158 860 1165 886 1163 874 z "},"Ì":{"ha":1088,"x_min":0,"x_max":0,"o":"m 1596 907 b 1628 901 1607 906 1618 904 b 1642 899 1632 901 1638 900 b 1642 899 1642 899 1642 899 b 1644 897 1643 899 1643 897 b 1678 899 1654 888 1668 889 b 1683 911 1681 901 1683 907 b 1682 925 1685 917 1683 921 b 1678 932 1681 928 1679 931 b 1676 935 1676 933 1676 933 b 1672 938 1675 935 1674 936 l 1669 939 l 1667 940 b 1663 942 1665 940 1664 942 b 1653 944 1658 943 1656 944 b 1635 947 1646 946 1640 946 b 1600 950 1622 949 1611 949 b 1533 951 1578 951 1556 951 b 1400 949 1489 951 1444 951 b 1268 940 1357 947 1313 944 b 1217 935 1251 939 1235 938 b 1217 943 1217 938 1217 940 b 1215 954 1217 947 1215 950 b 1210 965 1214 958 1211 963 b 1175 971 1201 976 1186 979 b 1171 938 1165 964 1163 949 b 1172 931 1169 940 1172 936 b 1138 925 1161 929 1149 928 b 878 872 1050 914 963 896 b 629 769 792 849 707 818 b 626 768 628 769 628 769 b 624 735 617 760 615 744 b 657 731 632 724 646 722 b 661 732 658 731 660 732 b 724 746 679 742 703 746 b 786 732 746 746 767 740 b 861 633 826 714 853 675 b 863 501 871 590 869 546 l 860 485 l 857 468 b 850 436 854 458 853 447 b 832 372 844 414 839 393 b 731 122 804 286 769 204 b 603 -114 692 42 649 -36 l 603 -115 b 603 -115 603 -115 603 -115 b 601 -122 601 -117 601 -119 l 499 -287 b 446 -376 481 -317 464 -347 b 422 -422 438 -392 429 -407 b 413 -443 418 -429 415 -436 b 239 -475 354 -453 297 -462 b 142 -500 207 -483 174 -492 b 44 -536 110 -510 76 -521 b 42 -539 43 -537 43 -537 b 35 -572 31 -546 28 -561 b 68 -578 43 -583 57 -586 b 246 -504 119 -543 183 -521 b 401 -474 297 -492 350 -482 b 401 -479 401 -475 401 -476 b 417 -504 400 -490 406 -500 b 446 -489 429 -507 443 -500 l 449 -481 b 449 -479 449 -481 449 -481 l 450 -475 b 453 -467 450 -472 451 -469 b 636 -450 514 -460 575 -453 b 735 -447 669 -449 703 -447 b 783 -449 751 -447 768 -447 b 807 -450 792 -449 800 -449 b 817 -451 811 -450 814 -450 b 847 -450 826 -457 839 -458 b 854 -437 850 -447 853 -443 b 853 -421 856 -435 856 -426 b 850 -415 851 -418 851 -417 b 847 -414 849 -414 847 -414 l 846 -411 b 840 -408 844 -410 842 -410 b 836 -407 838 -407 838 -407 b 832 -406 835 -407 833 -406 b 824 -404 829 -406 826 -406 b 810 -404 819 -404 814 -404 b 783 -404 801 -404 793 -404 b 733 -407 767 -406 750 -406 b 633 -415 700 -410 667 -412 b 465 -436 578 -421 521 -428 b 485 -397 471 -422 478 -410 b 532 -307 500 -367 515 -337 b 633 -131 564 -247 599 -189 b 842 221 703 -12 772 104 b 1047 574 913 338 981 456 b 1146 754 1081 633 1114 693 b 1192 847 1161 785 1178 815 b 1210 897 1199 863 1206 879 b 1213 904 1211 900 1211 901 b 1401 914 1275 910 1339 914 b 1532 911 1444 915 1489 914 b 1596 907 1553 911 1575 908 z m 1638 924 b 1642 931 1639 926 1640 929 b 1638 924 1640 928 1639 926 z m 1638 919 b 1636 918 1636 919 1636 918 b 1636 919 1636 918 1636 919 b 1638 919 1636 919 1636 919 z m 821 -451 b 821 -451 821 -451 821 -451 b 822 -451 821 -451 821 -451 b 821 -451 822 -451 822 -451 z m 810 -421 b 815 -414 811 -418 813 -417 b 810 -421 813 -417 811 -418 z m 808 -424 b 808 -428 808 -425 808 -426 b 808 -425 808 -426 808 -425 b 808 -424 808 -425 808 -425 z m 1158 860 b 1121 767 1147 828 1135 797 b 1029 585 1093 704 1061 644 b 821 233 963 465 892 350 b 757 129 800 199 779 164 b 847 367 792 207 824 285 b 865 432 854 389 860 411 b 872 465 868 443 869 454 l 875 482 l 878 500 b 875 636 883 544 886 592 b 847 700 871 660 861 681 b 793 744 833 719 814 735 b 725 761 771 754 747 758 b 701 763 717 761 708 761 b 886 844 757 797 821 824 b 1140 896 968 869 1054 885 b 1168 900 1150 897 1160 899 b 1158 860 1165 886 1163 874 z "},"Í":{"ha":1088,"x_min":0,"x_max":0,"o":"m 1596 907 b 1628 901 1607 906 1618 904 b 1642 899 1632 901 1638 900 b 1642 899 1642 899 1642 899 b 1644 897 1643 899 1643 897 b 1678 899 1654 888 1668 889 b 1683 911 1681 901 1683 907 b 1682 925 1685 917 1683 921 b 1678 932 1681 928 1679 931 b 1676 935 1676 933 1676 933 b 1672 938 1675 935 1674 936 l 1669 939 l 1667 940 b 1663 942 1665 940 1664 942 b 1653 944 1658 943 1656 944 b 1635 947 1646 946 1640 946 b 1600 950 1622 949 1611 949 b 1533 951 1578 951 1556 951 b 1400 949 1489 951 1444 951 b 1268 940 1357 947 1313 944 b 1217 935 1251 939 1235 938 b 1217 943 1217 938 1217 940 b 1215 954 1217 947 1215 950 b 1210 965 1214 958 1211 963 b 1175 971 1201 976 1186 979 b 1171 938 1165 964 1163 949 b 1172 931 1169 940 1172 936 b 1138 925 1161 929 1149 928 b 878 872 1050 914 963 896 b 629 769 792 849 707 818 b 626 768 628 769 628 769 b 624 735 617 760 615 744 b 657 731 632 724 646 722 b 661 732 658 731 660 732 b 724 746 679 742 703 746 b 786 732 746 746 767 740 b 861 633 826 714 853 675 b 863 501 871 590 869 546 l 860 485 l 857 468 b 850 436 854 458 853 447 b 832 372 844 414 839 393 b 731 122 804 286 769 204 b 603 -114 692 42 649 -36 l 603 -115 b 603 -115 603 -115 603 -115 b 601 -122 601 -117 601 -119 l 499 -287 b 446 -376 481 -317 464 -347 b 422 -422 438 -392 429 -407 b 413 -443 418 -429 415 -436 b 239 -475 354 -453 297 -462 b 142 -500 207 -483 174 -492 b 44 -536 110 -510 76 -521 b 42 -539 43 -537 43 -537 b 35 -572 31 -546 28 -561 b 68 -578 43 -583 57 -586 b 246 -504 119 -543 183 -521 b 401 -474 297 -492 350 -482 b 401 -479 401 -475 401 -476 b 417 -504 400 -490 406 -500 b 446 -489 429 -507 443 -500 l 449 -481 b 449 -479 449 -481 449 -481 l 450 -475 b 453 -467 450 -472 451 -469 b 636 -450 514 -460 575 -453 b 735 -447 669 -449 703 -447 b 783 -449 751 -447 768 -447 b 807 -450 792 -449 800 -449 b 817 -451 811 -450 814 -450 b 847 -450 826 -457 839 -458 b 854 -437 850 -447 853 -443 b 853 -421 856 -435 856 -426 b 850 -415 851 -418 851 -417 b 847 -414 849 -414 847 -414 l 846 -411 b 840 -408 844 -410 842 -410 b 836 -407 838 -407 838 -407 b 832 -406 835 -407 833 -406 b 824 -404 829 -406 826 -406 b 810 -404 819 -404 814 -404 b 783 -404 801 -404 793 -404 b 733 -407 767 -406 750 -406 b 633 -415 700 -410 667 -412 b 465 -436 578 -421 521 -428 b 485 -397 471 -422 478 -410 b 532 -307 500 -367 515 -337 b 633 -131 564 -247 599 -189 b 842 221 703 -12 772 104 b 1047 574 913 338 981 456 b 1146 754 1081 633 1114 693 b 1192 847 1161 785 1178 815 b 1210 897 1199 863 1206 879 b 1213 904 1211 900 1211 901 b 1401 914 1275 910 1339 914 b 1532 911 1444 915 1489 914 b 1596 907 1553 911 1575 908 z m 1638 924 b 1642 931 1639 926 1640 929 b 1638 924 1640 928 1639 926 z m 1638 919 b 1636 918 1636 919 1636 918 b 1636 919 1636 918 1636 919 b 1638 919 1636 919 1636 919 z m 821 -451 b 821 -451 821 -451 821 -451 b 822 -451 821 -451 821 -451 b 821 -451 822 -451 822 -451 z m 810 -421 b 815 -414 811 -418 813 -417 b 810 -421 813 -417 811 -418 z m 808 -424 b 808 -428 808 -425 808 -426 b 808 -425 808 -426 808 -425 b 808 -424 808 -425 808 -425 z m 1158 860 b 1121 767 1147 828 1135 797 b 1029 585 1093 704 1061 644 b 821 233 963 465 892 350 b 757 129 800 199 779 164 b 847 367 792 207 824 285 b 865 432 854 389 860 411 b 872 465 868 443 869 454 l 875 482 l 878 500 b 875 636 883 544 886 592 b 847 700 871 660 861 681 b 793 744 833 719 814 735 b 725 761 771 754 747 758 b 701 763 717 761 708 761 b 886 844 757 797 821 824 b 1140 896 968 869 1054 885 b 1168 900 1150 897 1160 899 b 1158 860 1165 886 1163 874 z "},"Î":{"ha":1088,"x_min":0,"x_max":0,"o":"m 1596 907 b 1628 901 1607 906 1618 904 b 1642 899 1632 901 1638 900 b 1642 899 1642 899 1642 899 b 1644 897 1643 899 1643 897 b 1678 899 1654 888 1668 889 b 1683 911 1681 901 1683 907 b 1682 925 1685 917 1683 921 b 1678 932 1681 928 1679 931 b 1676 935 1676 933 1676 933 b 1672 938 1675 935 1674 936 l 1669 939 l 1667 940 b 1663 942 1665 940 1664 942 b 1653 944 1658 943 1656 944 b 1635 947 1646 946 1640 946 b 1600 950 1622 949 1611 949 b 1533 951 1578 951 1556 951 b 1400 949 1489 951 1444 951 b 1268 940 1357 947 1313 944 b 1217 935 1251 939 1235 938 b 1217 943 1217 938 1217 940 b 1215 954 1217 947 1215 950 b 1210 965 1214 958 1211 963 b 1175 971 1201 976 1186 979 b 1171 938 1165 964 1163 949 b 1172 931 1169 940 1172 936 b 1138 925 1161 929 1149 928 b 878 872 1050 914 963 896 b 629 769 792 849 707 818 b 626 768 628 769 628 769 b 624 735 617 760 615 744 b 657 731 632 724 646 722 b 661 732 658 731 660 732 b 724 746 679 742 703 746 b 786 732 746 746 767 740 b 861 633 826 714 853 675 b 863 501 871 590 869 546 l 860 485 l 857 468 b 850 436 854 458 853 447 b 832 372 844 414 839 393 b 731 122 804 286 769 204 b 603 -114 692 42 649 -36 l 603 -115 b 603 -115 603 -115 603 -115 b 601 -122 601 -117 601 -119 l 499 -287 b 446 -376 481 -317 464 -347 b 422 -422 438 -392 429 -407 b 413 -443 418 -429 415 -436 b 239 -475 354 -453 297 -462 b 142 -500 207 -483 174 -492 b 44 -536 110 -510 76 -521 b 42 -539 43 -537 43 -537 b 35 -572 31 -546 28 -561 b 68 -578 43 -583 57 -586 b 246 -504 119 -543 183 -521 b 401 -474 297 -492 350 -482 b 401 -479 401 -475 401 -476 b 417 -504 400 -490 406 -500 b 446 -489 429 -507 443 -500 l 449 -481 b 449 -479 449 -481 449 -481 l 450 -475 b 453 -467 450 -472 451 -469 b 636 -450 514 -460 575 -453 b 735 -447 669 -449 703 -447 b 783 -449 751 -447 768 -447 b 807 -450 792 -449 800 -449 b 817 -451 811 -450 814 -450 b 847 -450 826 -457 839 -458 b 854 -437 850 -447 853 -443 b 853 -421 856 -435 856 -426 b 850 -415 851 -418 851 -417 b 847 -414 849 -414 847 -414 l 846 -411 b 840 -408 844 -410 842 -410 b 836 -407 838 -407 838 -407 b 832 -406 835 -407 833 -406 b 824 -404 829 -406 826 -406 b 810 -404 819 -404 814 -404 b 783 -404 801 -404 793 -404 b 733 -407 767 -406 750 -406 b 633 -415 700 -410 667 -412 b 465 -436 578 -421 521 -428 b 485 -397 471 -422 478 -410 b 532 -307 500 -367 515 -337 b 633 -131 564 -247 599 -189 b 842 221 703 -12 772 104 b 1047 574 913 338 981 456 b 1146 754 1081 633 1114 693 b 1192 847 1161 785 1178 815 b 1210 897 1199 863 1206 879 b 1213 904 1211 900 1211 901 b 1401 914 1275 910 1339 914 b 1532 911 1444 915 1489 914 b 1596 907 1553 911 1575 908 z m 1638 924 b 1642 931 1639 926 1640 929 b 1638 924 1640 928 1639 926 z m 1638 919 b 1636 918 1636 919 1636 918 b 1636 919 1636 918 1636 919 b 1638 919 1636 919 1636 919 z m 821 -451 b 821 -451 821 -451 821 -451 b 822 -451 821 -451 821 -451 b 821 -451 822 -451 822 -451 z m 810 -421 b 815 -414 811 -418 813 -417 b 810 -421 813 -417 811 -418 z m 808 -424 b 808 -428 808 -425 808 -426 b 808 -425 808 -426 808 -425 b 808 -424 808 -425 808 -425 z m 1158 860 b 1121 767 1147 828 1135 797 b 1029 585 1093 704 1061 644 b 821 233 963 465 892 350 b 757 129 800 199 779 164 b 847 367 792 207 824 285 b 865 432 854 389 860 411 b 872 465 868 443 869 454 l 875 482 l 878 500 b 875 636 883 544 886 592 b 847 700 871 660 861 681 b 793 744 833 719 814 735 b 725 761 771 754 747 758 b 701 763 717 761 708 761 b 886 844 757 797 821 824 b 1140 896 968 869 1054 885 b 1168 900 1150 897 1160 899 b 1158 860 1165 886 1163 874 z "},"Ï":{"ha":1088,"x_min":0,"x_max":0,"o":"m 1596 907 b 1628 901 1607 906 1618 904 b 1642 899 1632 901 1638 900 b 1642 899 1642 899 1642 899 b 1644 897 1643 899 1643 897 b 1678 899 1654 888 1668 889 b 1683 911 1681 901 1683 907 b 1682 925 1685 917 1683 921 b 1678 932 1681 928 1679 931 b 1676 935 1676 933 1676 933 b 1672 938 1675 935 1674 936 l 1669 939 l 1667 940 b 1663 942 1665 940 1664 942 b 1653 944 1658 943 1656 944 b 1635 947 1646 946 1640 946 b 1600 950 1622 949 1611 949 b 1533 951 1578 951 1556 951 b 1400 949 1489 951 1444 951 b 1268 940 1357 947 1313 944 b 1217 935 1251 939 1235 938 b 1217 943 1217 938 1217 940 b 1215 954 1217 947 1215 950 b 1210 965 1214 958 1211 963 b 1175 971 1201 976 1186 979 b 1171 938 1165 964 1163 949 b 1172 931 1169 940 1172 936 b 1138 925 1161 929 1149 928 b 878 872 1050 914 963 896 b 629 769 792 849 707 818 b 626 768 628 769 628 769 b 624 735 617 760 615 744 b 657 731 632 724 646 722 b 661 732 658 731 660 732 b 724 746 679 742 703 746 b 786 732 746 746 767 740 b 861 633 826 714 853 675 b 863 501 871 590 869 546 l 860 485 l 857 468 b 850 436 854 458 853 447 b 832 372 844 414 839 393 b 731 122 804 286 769 204 b 603 -114 692 42 649 -36 l 603 -115 b 603 -115 603 -115 603 -115 b 601 -122 601 -117 601 -119 l 499 -287 b 446 -376 481 -317 464 -347 b 422 -422 438 -392 429 -407 b 413 -443 418 -429 415 -436 b 239 -475 354 -453 297 -462 b 142 -500 207 -483 174 -492 b 44 -536 110 -510 76 -521 b 42 -539 43 -537 43 -537 b 35 -572 31 -546 28 -561 b 68 -578 43 -583 57 -586 b 246 -504 119 -543 183 -521 b 401 -474 297 -492 350 -482 b 401 -479 401 -475 401 -476 b 417 -504 400 -490 406 -500 b 446 -489 429 -507 443 -500 l 449 -481 b 449 -479 449 -481 449 -481 l 450 -475 b 453 -467 450 -472 451 -469 b 636 -450 514 -460 575 -453 b 735 -447 669 -449 703 -447 b 783 -449 751 -447 768 -447 b 807 -450 792 -449 800 -449 b 817 -451 811 -450 814 -450 b 847 -450 826 -457 839 -458 b 854 -437 850 -447 853 -443 b 853 -421 856 -435 856 -426 b 850 -415 851 -418 851 -417 b 847 -414 849 -414 847 -414 l 846 -411 b 840 -408 844 -410 842 -410 b 836 -407 838 -407 838 -407 b 832 -406 835 -407 833 -406 b 824 -404 829 -406 826 -406 b 810 -404 819 -404 814 -404 b 783 -404 801 -404 793 -404 b 733 -407 767 -406 750 -406 b 633 -415 700 -410 667 -412 b 465 -436 578 -421 521 -428 b 485 -397 471 -422 478 -410 b 532 -307 500 -367 515 -337 b 633 -131 564 -247 599 -189 b 842 221 703 -12 772 104 b 1047 574 913 338 981 456 b 1146 754 1081 633 1114 693 b 1192 847 1161 785 1178 815 b 1210 897 1199 863 1206 879 b 1213 904 1211 900 1211 901 b 1401 914 1275 910 1339 914 b 1532 911 1444 915 1489 914 b 1596 907 1553 911 1575 908 z m 1638 924 b 1642 931 1639 926 1640 929 b 1638 924 1640 928 1639 926 z m 1638 919 b 1636 918 1636 919 1636 918 b 1636 919 1636 918 1636 919 b 1638 919 1636 919 1636 919 z m 821 -451 b 821 -451 821 -451 821 -451 b 822 -451 821 -451 821 -451 b 821 -451 822 -451 822 -451 z m 810 -421 b 815 -414 811 -418 813 -417 b 810 -421 813 -417 811 -418 z m 808 -424 b 808 -428 808 -425 808 -426 b 808 -425 808 -426 808 -425 b 808 -424 808 -425 808 -425 z m 1158 860 b 1121 767 1147 828 1135 797 b 1029 585 1093 704 1061 644 b 821 233 963 465 892 350 b 757 129 800 199 779 164 b 847 367 792 207 824 285 b 865 432 854 389 860 411 b 872 465 868 443 869 454 l 875 482 l 878 500 b 875 636 883 544 886 592 b 847 700 871 660 861 681 b 793 744 833 719 814 735 b 725 761 771 754 747 758 b 701 763 717 761 708 761 b 886 844 757 797 821 824 b 1140 896 968 869 1054 885 b 1168 900 1150 897 1160 899 b 1158 860 1165 886 1163 874 z "},"J":{"ha":1425,"x_min":0,"x_max":0,"o":"m 1440 250 b 1142 222 1339 253 1240 240 b 1233 403 1174 282 1206 342 b 1343 721 1281 504 1322 608 b 1351 806 1347 749 1351 776 b 1339 892 1351 833 1349 863 b 1282 961 1329 919 1310 946 b 1194 978 1256 976 1224 979 b 872 879 1082 965 974 928 b 588 701 771 831 676 769 b 344 467 499 633 415 556 b 254 321 310 422 276 375 b 233 232 243 293 233 264 b 244 182 233 215 238 197 b 278 140 251 165 264 151 l 279 140 b 279 140 279 140 279 140 b 313 146 290 132 306 135 b 306 179 319 157 317 172 b 279 232 289 192 281 210 b 294 306 278 256 285 281 b 375 444 313 354 343 400 b 607 678 442 531 521 608 b 885 856 693 746 786 807 b 1038 918 933 881 985 901 b 1197 954 1089 936 1143 949 b 1271 942 1224 957 1250 954 b 1317 883 1293 929 1308 908 b 1321 724 1333 835 1329 778 b 1214 413 1301 617 1260 513 b 1110 217 1182 346 1147 281 b 1107 217 1108 217 1108 217 b 782 136 997 196 889 168 b 467 25 676 104 571 67 b 390 -8 442 14 415 3 b 314 -43 365 -19 339 -31 b 169 -131 264 -68 214 -96 b 53 -258 124 -165 82 -206 b 28 -344 39 -285 29 -314 b 47 -435 26 -375 33 -407 b 104 -506 60 -462 81 -486 b 181 -551 126 -525 153 -540 b 356 -571 236 -575 297 -578 b 521 -517 414 -564 469 -544 b 661 -419 571 -490 618 -457 b 886 -169 747 -346 821 -260 b 1135 211 976 -47 1060 79 b 1439 240 1235 229 1338 243 l 1440 240 b 1444 244 1443 240 1444 242 b 1440 250 1444 247 1443 250 z m 864 -153 b 638 -392 797 -240 722 -324 b 350 -528 553 -460 456 -515 b 196 -511 299 -535 244 -531 b 82 -417 149 -493 106 -461 b 64 -346 69 -396 64 -371 b 82 -272 64 -321 71 -296 b 185 -151 106 -226 143 -186 b 324 -62 228 -117 275 -87 b 399 -26 347 -49 372 -37 b 474 7 424 -14 449 -3 b 786 122 576 51 681 89 b 1103 204 890 156 996 183 b 864 -153 1031 81 949 -37 z "},"K":{"ha":1125,"x_min":0,"x_max":0,"o":"m 1447 844 b 1414 839 1436 851 1421 849 l 1413 838 b 1317 722 1385 799 1351 760 b 1210 615 1282 686 1246 650 b 974 421 1135 546 1056 482 b 719 251 892 361 807 304 b 451 107 632 200 542 151 l 447 106 b 504 193 467 135 485 164 b 715 540 576 308 647 422 b 814 718 749 599 782 657 b 857 811 829 749 843 779 b 874 860 863 826 869 843 b 879 888 876 868 878 878 b 879 894 879 889 879 892 l 878 903 b 875 911 878 906 876 908 b 868 919 874 914 869 918 l 867 921 b 861 924 865 922 864 924 b 847 917 856 926 849 922 b 854 903 844 911 849 904 b 856 889 856 901 857 896 b 851 865 856 882 854 874 b 835 819 847 850 842 835 b 790 729 822 789 807 760 b 690 554 760 671 725 613 b 475 213 621 439 549 325 b 383 75 444 167 414 121 l 382 74 l 313 42 l 242 13 b 207 -4 231 7 218 3 b 174 -29 194 -10 182 -17 b 172 -42 172 -33 171 -37 b 176 -54 172 -47 174 -50 b 193 -67 182 -60 188 -64 b 229 -82 206 -74 217 -78 b 272 -94 243 -86 257 -90 b 250 -125 265 -104 258 -115 l 138 -294 l 82 -379 l 56 -422 l 42 -444 b 35 -456 39 -449 38 -451 b 32 -464 33 -458 33 -460 l 29 -468 b 29 -469 29 -469 29 -468 b 28 -474 29 -471 28 -472 b 28 -483 28 -476 28 -481 b 56 -503 31 -496 43 -504 b 75 -483 67 -500 74 -492 b 75 -482 75 -482 75 -482 l 78 -478 b 83 -468 79 -475 81 -471 l 96 -446 l 121 -403 l 175 -318 l 285 -149 b 314 -103 294 -133 304 -118 b 456 -128 361 -112 408 -121 b 758 -175 557 -143 658 -157 b 908 -206 808 -183 858 -193 b 979 -226 932 -211 957 -218 b 1010 -242 990 -231 1001 -236 b 1015 -246 1013 -243 1014 -244 b 1029 -274 1013 -257 1018 -269 b 1060 -261 1042 -279 1056 -274 b 1063 -239 1063 -256 1064 -247 b 1054 -221 1061 -231 1057 -225 b 1032 -203 1046 -211 1039 -207 b 992 -187 1018 -196 1006 -192 b 915 -171 967 -181 940 -175 b 763 -149 864 -162 813 -156 b 458 -112 661 -137 558 -126 b 321 -92 413 -107 367 -100 b 433 83 358 -33 396 25 l 457 94 b 728 238 549 139 640 186 b 988 401 817 289 904 343 b 1232 590 1072 460 1153 524 b 1344 694 1271 624 1308 658 b 1451 810 1382 732 1418 768 b 1453 811 1451 810 1451 810 b 1447 844 1460 821 1457 836 z m 75 -482 b 75 -479 75 -481 75 -481 b 75 -481 75 -479 75 -481 b 75 -482 75 -481 75 -481 z m 1017 -247 b 1017 -249 1017 -247 1017 -249 b 1017 -247 1018 -249 1017 -249 z m 233 -71 b 199 -57 221 -67 210 -62 b 185 -35 189 -51 179 -43 b 211 -14 189 -26 201 -19 b 246 1 222 -8 235 -4 l 317 31 l 371 54 b 279 -83 340 8 310 -37 b 233 -71 264 -79 249 -76 z "},"L":{"ha":700,"x_min":0,"x_max":0,"o":"m 822 893 b 789 886 811 900 796 897 b 486 425 686 733 586 579 b 197 -46 386 269 289 114 b 68 -292 151 -126 107 -207 b 42 -357 58 -312 50 -335 b 32 -392 38 -368 35 -379 b 26 -429 29 -404 26 -415 b 33 -453 28 -437 29 -446 b 56 -469 39 -461 47 -467 b 96 -469 71 -474 86 -471 b 165 -457 119 -465 142 -461 b 436 -404 256 -442 346 -419 b 571 -382 481 -396 525 -387 b 638 -379 593 -381 615 -378 b 667 -382 647 -379 658 -379 b 671 -383 668 -382 669 -382 b 693 -404 672 -394 681 -403 b 718 -382 706 -404 717 -394 b 714 -361 718 -375 718 -368 b 700 -346 710 -354 704 -349 b 675 -337 690 -340 683 -339 b 636 -335 661 -335 649 -335 b 565 -343 611 -336 589 -339 b 429 -369 519 -351 474 -360 b 160 -428 339 -390 249 -410 b 92 -440 136 -432 114 -436 l 83 -442 b 76 -442 81 -442 78 -442 b 64 -442 71 -443 67 -442 b 58 -437 61 -440 60 -439 b 56 -428 57 -436 57 -432 b 61 -399 56 -419 58 -408 b 71 -367 63 -387 67 -378 b 96 -304 78 -346 86 -325 b 224 -62 133 -221 178 -142 b 517 406 317 97 415 251 b 671 633 567 482 618 558 b 828 860 722 710 775 785 b 829 860 828 860 828 860 b 822 893 836 871 833 886 z m 672 -383 b 674 -385 674 -385 674 -385 b 672 -383 674 -385 674 -385 z "},"M":{"ha":1494,"x_min":0,"x_max":0,"o":"m 1422 517 b 1407 540 1421 525 1417 535 b 1381 543 1399 544 1389 544 b 1357 535 1372 542 1365 538 b 1278 479 1328 521 1303 500 b 1149 340 1232 436 1189 389 b 1031 192 1107 292 1068 243 b 992 142 1017 175 1004 158 l 1022 199 b 1192 547 1081 314 1138 429 b 1268 725 1218 606 1244 665 b 1301 817 1281 756 1292 786 b 1324 915 1311 849 1321 879 b 1322 943 1325 924 1325 933 b 1319 951 1322 946 1321 949 b 1315 960 1319 954 1318 957 b 1307 968 1313 963 1311 965 b 1297 972 1304 969 1301 971 b 1264 969 1283 976 1274 972 b 1240 957 1256 965 1247 961 b 1163 894 1211 939 1188 917 b 1029 754 1115 850 1072 801 b 781 457 943 657 861 557 b 544 151 701 356 622 253 b 214 -296 432 3 322 -146 l 260 -217 b 454 118 325 -106 390 6 b 640 457 517 231 581 343 b 725 632 669 514 699 572 b 761 722 738 661 750 692 b 775 769 767 738 771 753 b 778 796 776 778 778 786 b 776 811 778 801 778 806 b 772 819 775 814 774 817 b 765 828 771 822 768 825 b 758 829 764 829 761 831 b 751 819 753 829 750 824 l 753 810 b 753 808 753 808 753 808 b 754 806 754 807 754 806 b 756 796 754 803 756 800 b 753 775 756 789 754 782 b 739 729 749 760 744 744 b 701 642 728 700 715 671 b 614 471 675 583 644 526 b 424 135 553 357 489 246 b 225 -196 358 25 292 -86 l 124 -361 l 75 -444 l 50 -486 l 39 -508 l 32 -519 b 29 -526 32 -522 31 -524 l 28 -532 b 26 -537 28 -532 26 -535 b 26 -544 26 -540 26 -543 b 54 -564 29 -558 42 -567 b 74 -544 65 -562 72 -554 l 74 -543 b 76 -539 74 -543 75 -540 l 81 -529 l 92 -508 l 114 -467 l 163 -383 l 183 -349 b 556 142 306 -183 429 -21 b 797 443 635 243 715 344 b 1047 736 878 543 961 642 b 1182 874 1092 783 1135 831 b 1256 932 1206 894 1231 915 b 1275 940 1263 935 1269 939 b 1289 943 1281 943 1288 943 b 1290 943 1289 943 1290 943 b 1290 942 1290 943 1290 942 b 1292 940 1290 942 1292 940 b 1293 936 1292 939 1292 938 b 1293 917 1293 931 1293 924 b 1271 828 1290 888 1281 857 b 1238 738 1261 797 1249 768 b 1158 563 1213 679 1186 621 b 985 218 1103 447 1044 332 l 893 49 l 847 -36 l 824 -79 b 801 -124 817 -93 810 -107 b 801 -124 801 -124 801 -124 b 813 -156 796 -136 801 -150 b 843 -146 824 -161 838 -156 b 847 -140 844 -144 846 -143 b 1047 179 908 -32 976 75 b 1160 331 1085 231 1121 282 b 1286 471 1200 379 1240 428 b 1363 525 1310 492 1335 511 b 1383 532 1369 526 1376 531 b 1403 531 1390 533 1397 533 b 1413 493 1413 525 1414 507 b 1389 403 1408 463 1399 432 b 1354 315 1378 374 1367 344 b 1275 143 1329 257 1301 200 b 1236 56 1261 114 1247 86 b 1219 8 1229 40 1224 25 b 1214 -19 1217 0 1214 -8 b 1215 -37 1214 -25 1213 -31 b 1218 -44 1215 -40 1217 -42 b 1222 -51 1219 -47 1219 -49 b 1238 -61 1226 -56 1231 -60 b 1267 -47 1250 -67 1263 -60 b 1258 -19 1271 -36 1267 -25 b 1258 -19 1258 -19 1258 -19 b 1260 0 1257 -14 1258 -7 b 1269 44 1261 14 1265 29 b 1300 133 1278 74 1289 103 b 1368 310 1321 192 1346 250 b 1401 399 1381 339 1392 368 b 1424 492 1411 429 1421 460 b 1422 517 1424 500 1425 508 z m 74 -544 b 74 -537 74 -542 74 -539 b 74 -542 74 -539 75 -540 b 74 -544 74 -542 74 -543 z m 1258 -22 b 1258 -24 1258 -24 1258 -24 b 1258 -21 1258 -24 1258 -22 b 1258 -22 1258 -22 1258 -22 z "},"N":{"ha":1250,"x_min":0,"x_max":0,"o":"m 1425 886 b 1421 907 1425 893 1425 899 b 1411 919 1419 911 1415 917 b 1397 924 1407 922 1401 922 b 1379 921 1390 924 1385 922 b 1329 894 1360 914 1344 904 b 1288 863 1315 885 1301 874 b 1136 722 1233 818 1185 771 b 854 422 1039 625 946 524 b 583 113 763 321 672 217 b 319 -203 494 8 407 -97 b 129 -440 256 -282 192 -360 l 163 -383 l 260 -217 b 454 118 325 -106 390 6 b 640 457 517 231 581 343 b 725 632 669 514 699 572 b 761 722 738 661 750 690 b 775 769 767 738 771 753 b 778 796 776 778 778 786 b 776 811 778 800 778 806 b 772 819 775 814 774 817 b 765 826 771 822 768 825 b 758 829 764 829 761 831 b 750 819 753 829 750 824 l 753 810 b 753 808 753 808 753 808 b 754 806 754 807 754 806 b 756 796 754 803 756 800 b 753 775 756 789 754 782 b 739 729 749 760 744 744 b 701 642 728 700 715 671 b 614 471 675 583 644 526 b 424 135 553 357 489 246 b 225 -196 358 25 292 -86 l 124 -361 l 75 -444 l 50 -486 l 39 -508 l 32 -519 b 29 -526 32 -522 31 -524 l 28 -532 b 26 -537 28 -532 26 -535 b 26 -544 26 -540 26 -543 b 54 -564 29 -558 42 -567 b 74 -544 65 -562 72 -554 l 74 -543 b 76 -539 74 -543 75 -540 l 81 -529 l 90 -511 b 332 -212 168 -408 250 -311 b 599 100 419 -107 508 -3 b 872 406 689 203 779 306 b 1156 701 965 507 1058 606 b 1307 839 1206 749 1254 796 b 1347 868 1321 849 1333 858 b 1389 889 1361 876 1375 886 b 1392 890 1390 890 1392 890 b 1392 889 1392 890 1392 889 b 1390 879 1392 886 1392 882 b 1374 833 1388 864 1381 849 b 1275 656 1346 774 1310 714 b 1168 481 1240 597 1204 539 b 956 129 1096 365 1022 249 b 860 -56 921 68 889 8 b 824 -157 846 -87 833 -121 b 819 -217 821 -175 817 -193 b 836 -251 821 -228 826 -240 b 872 -271 846 -264 861 -268 b 900 -251 885 -272 897 -264 b 881 -224 901 -237 893 -225 l 879 -224 b 871 -219 875 -222 872 -221 b 867 -208 869 -218 867 -214 b 869 -167 864 -197 867 -182 b 901 -74 876 -136 889 -104 b 993 108 928 -12 960 49 b 1200 461 1058 226 1129 343 b 1306 638 1236 519 1271 578 b 1404 819 1340 697 1375 756 b 1422 871 1411 836 1418 853 b 1425 886 1424 876 1425 881 z m 74 -544 b 74 -537 74 -542 74 -539 b 74 -542 74 -539 75 -540 b 74 -544 74 -542 74 -543 z "},"Ñ":{"ha":1250,"x_min":0,"x_max":0,"o":"m 1425 886 b 1421 907 1425 893 1425 899 b 1411 919 1419 911 1415 917 b 1397 924 1407 922 1401 922 b 1379 921 1390 924 1385 922 b 1329 894 1360 914 1344 904 b 1288 863 1315 885 1301 874 b 1136 722 1233 818 1185 771 b 854 422 1039 625 946 524 b 583 113 763 321 672 217 b 319 -203 494 8 407 -97 b 129 -440 256 -282 192 -360 l 163 -383 l 260 -217 b 454 118 325 -106 390 6 b 640 457 517 231 581 343 b 725 632 669 514 699 572 b 761 722 738 661 750 690 b 775 769 767 738 771 753 b 778 796 776 778 778 786 b 776 811 778 800 778 806 b 772 819 775 814 774 817 b 765 826 771 822 768 825 b 758 829 764 829 761 831 b 750 819 753 829 750 824 l 753 810 b 753 808 753 808 753 808 b 754 806 754 807 754 806 b 756 796 754 803 756 800 b 753 775 756 789 754 782 b 739 729 749 760 744 744 b 701 642 728 700 715 671 b 614 471 675 583 644 526 b 424 135 553 357 489 246 b 225 -196 358 25 292 -86 l 124 -361 l 75 -444 l 50 -486 l 39 -508 l 32 -519 b 29 -526 32 -522 31 -524 l 28 -532 b 26 -537 28 -532 26 -535 b 26 -544 26 -540 26 -543 b 54 -564 29 -558 42 -567 b 74 -544 65 -562 72 -554 l 74 -543 b 76 -539 74 -543 75 -540 l 81 -529 l 90 -511 b 332 -212 168 -408 250 -311 b 599 100 419 -107 508 -3 b 872 406 689 203 779 306 b 1156 701 965 507 1058 606 b 1307 839 1206 749 1254 796 b 1347 868 1321 849 1333 858 b 1389 889 1361 876 1375 886 b 1392 890 1390 890 1392 890 b 1392 889 1392 890 1392 889 b 1390 879 1392 886 1392 882 b 1374 833 1388 864 1381 849 b 1275 656 1346 774 1310 714 b 1168 481 1240 597 1204 539 b 956 129 1096 365 1022 249 b 860 -56 921 68 889 8 b 824 -157 846 -87 833 -121 b 819 -217 821 -175 817 -193 b 836 -251 821 -228 826 -240 b 872 -271 846 -264 861 -268 b 900 -251 885 -272 897 -264 b 881 -224 901 -237 893 -225 l 879 -224 b 871 -219 875 -222 872 -221 b 867 -208 869 -218 867 -214 b 869 -167 864 -197 867 -182 b 901 -74 876 -136 889 -104 b 993 108 928 -12 960 49 b 1200 461 1058 226 1129 343 b 1306 638 1236 519 1271 578 b 1404 819 1340 697 1375 756 b 1422 871 1411 836 1418 853 b 1425 886 1424 876 1425 881 z m 74 -544 b 74 -537 74 -542 74 -539 b 74 -542 74 -539 75 -540 b 74 -544 74 -542 74 -543 z "},"O":{"ha":1238,"x_min":0,"x_max":0,"o":"m 1189 574 b 1193 729 1197 624 1200 676 b 1175 806 1189 754 1183 781 b 1144 878 1168 831 1158 854 b 1092 939 1131 901 1114 924 b 1014 968 1069 956 1042 967 b 933 956 986 969 958 964 b 863 922 908 947 885 936 b 739 828 818 896 778 863 b 633 717 701 793 667 756 b 456 468 567 639 508 556 b 322 192 403 379 356 289 b 285 42 306 143 290 93 b 286 -36 282 17 282 -10 b 319 -108 290 -62 300 -89 b 331 -108 322 -112 328 -112 b 331 -97 335 -106 335 -101 b 303 -33 315 -81 306 -58 b 303 40 299 -10 300 15 b 342 185 310 89 324 138 b 475 456 376 279 422 369 b 653 701 528 542 586 624 b 876 900 718 776 790 849 b 1013 940 918 924 965 943 b 1075 917 1035 939 1057 931 b 1121 864 1094 904 1108 885 b 1167 725 1144 822 1158 774 b 1164 576 1172 676 1171 626 b 1081 288 1150 478 1118 381 b 943 18 1042 194 994 104 b 771 -232 892 -69 835 -153 b 563 -450 708 -310 639 -385 b 440 -536 524 -482 483 -512 b 300 -585 396 -561 349 -581 b 229 -576 276 -586 251 -585 b 167 -540 207 -569 186 -556 b 82 -422 128 -510 100 -468 b 50 -276 63 -375 54 -326 b 53 -125 46 -226 49 -175 b 122 168 64 -25 89 74 b 253 442 157 264 199 356 b 444 671 306 526 369 607 b 447 674 444 672 446 674 b 444 708 456 683 454 699 b 411 706 435 717 419 715 b 233 453 342 626 283 542 b 104 175 182 364 139 271 b 35 -124 71 78 46 -22 b 32 -278 29 -175 28 -226 b 65 -428 36 -329 46 -381 b 154 -556 83 -476 114 -522 b 224 -594 175 -571 197 -586 b 301 -604 249 -603 276 -606 b 450 -554 356 -599 404 -579 b 576 -467 494 -529 536 -499 b 789 -246 654 -400 724 -325 b 964 6 853 -165 911 -82 b 1103 278 1017 93 1064 183 b 1189 574 1142 372 1174 471 z "},"Ò":{"ha":1238,"x_min":0,"x_max":0,"o":"m 1189 574 b 1193 729 1197 624 1200 676 b 1175 806 1189 754 1183 781 b 1144 878 1168 831 1158 854 b 1092 939 1131 901 1114 924 b 1014 968 1069 956 1042 967 b 933 956 986 969 958 964 b 863 922 908 947 885 936 b 739 828 818 896 778 863 b 633 717 701 793 667 756 b 456 468 567 639 508 556 b 322 192 403 379 356 289 b 285 42 306 143 290 93 b 286 -36 282 17 282 -10 b 319 -108 290 -62 300 -89 b 331 -108 322 -112 328 -112 b 331 -97 335 -106 335 -101 b 303 -33 315 -81 306 -58 b 303 40 299 -10 300 15 b 342 185 310 89 324 138 b 475 456 376 279 422 369 b 653 701 528 542 586 624 b 876 900 718 776 790 849 b 1013 940 918 924 965 943 b 1075 917 1035 939 1057 931 b 1121 864 1094 904 1108 885 b 1167 725 1144 822 1158 774 b 1164 576 1172 676 1171 626 b 1081 288 1150 478 1118 381 b 943 18 1042 194 994 104 b 771 -232 892 -69 835 -153 b 563 -450 708 -310 639 -385 b 440 -536 524 -482 483 -512 b 300 -585 396 -561 349 -581 b 229 -576 276 -586 251 -585 b 167 -540 207 -569 186 -556 b 82 -422 128 -510 100 -468 b 50 -276 63 -375 54 -326 b 53 -125 46 -226 49 -175 b 122 168 64 -25 89 74 b 253 442 157 264 199 356 b 444 671 306 526 369 607 b 447 674 444 672 446 674 b 444 708 456 683 454 699 b 411 706 435 717 419 715 b 233 453 342 626 283 542 b 104 175 182 364 139 271 b 35 -124 71 78 46 -22 b 32 -278 29 -175 28 -226 b 65 -428 36 -329 46 -381 b 154 -556 83 -476 114 -522 b 224 -594 175 -571 197 -586 b 301 -604 249 -603 276 -606 b 450 -554 356 -599 404 -579 b 576 -467 494 -529 536 -499 b 789 -246 654 -400 724 -325 b 964 6 853 -165 911 -82 b 1103 278 1017 93 1064 183 b 1189 574 1142 372 1174 471 z "},"Ó":{"ha":1238,"x_min":0,"x_max":0,"o":"m 1189 574 b 1193 729 1197 624 1200 676 b 1175 806 1189 754 1183 781 b 1144 878 1168 831 1158 854 b 1092 939 1131 901 1114 924 b 1014 968 1069 956 1042 967 b 933 956 986 969 958 964 b 863 922 908 947 885 936 b 739 828 818 896 778 863 b 633 717 701 793 667 756 b 456 468 567 639 508 556 b 322 192 403 379 356 289 b 285 42 306 143 290 93 b 286 -36 282 17 282 -10 b 319 -108 290 -62 300 -89 b 331 -108 322 -112 328 -112 b 331 -97 335 -106 335 -101 b 303 -33 315 -81 306 -58 b 303 40 299 -10 300 15 b 342 185 310 89 324 138 b 475 456 376 279 422 369 b 653 701 528 542 586 624 b 876 900 718 776 790 849 b 1013 940 918 924 965 943 b 1075 917 1035 939 1057 931 b 1121 864 1094 904 1108 885 b 1167 725 1144 822 1158 774 b 1164 576 1172 676 1171 626 b 1081 288 1150 478 1118 381 b 943 18 1042 194 994 104 b 771 -232 892 -69 835 -153 b 563 -450 708 -310 639 -385 b 440 -536 524 -482 483 -512 b 300 -585 396 -561 349 -581 b 229 -576 276 -586 251 -585 b 167 -540 207 -569 186 -556 b 82 -422 128 -510 100 -468 b 50 -276 63 -375 54 -326 b 53 -125 46 -226 49 -175 b 122 168 64 -25 89 74 b 253 442 157 264 199 356 b 444 671 306 526 369 607 b 447 674 444 672 446 674 b 444 708 456 683 454 699 b 411 706 435 717 419 715 b 233 453 342 626 283 542 b 104 175 182 364 139 271 b 35 -124 71 78 46 -22 b 32 -278 29 -175 28 -226 b 65 -428 36 -329 46 -381 b 154 -556 83 -476 114 -522 b 224 -594 175 -571 197 -586 b 301 -604 249 -603 276 -606 b 450 -554 356 -599 404 -579 b 576 -467 494 -529 536 -499 b 789 -246 654 -400 724 -325 b 964 6 853 -165 911 -82 b 1103 278 1017 93 1064 183 b 1189 574 1142 372 1174 471 z "},"Ô":{"ha":1238,"x_min":0,"x_max":0,"o":"m 1189 574 b 1193 729 1197 624 1200 676 b 1175 806 1189 754 1183 781 b 1144 878 1168 831 1158 854 b 1092 939 1131 901 1114 924 b 1014 968 1069 956 1042 967 b 933 956 986 969 958 964 b 863 922 908 947 885 936 b 739 828 818 896 778 863 b 633 717 701 793 667 756 b 456 468 567 639 508 556 b 322 192 403 379 356 289 b 285 42 306 143 290 93 b 286 -36 282 17 282 -10 b 319 -108 290 -62 300 -89 b 331 -108 322 -112 328 -112 b 331 -97 335 -106 335 -101 b 303 -33 315 -81 306 -58 b 303 40 299 -10 300 15 b 342 185 310 89 324 138 b 475 456 376 279 422 369 b 653 701 528 542 586 624 b 876 900 718 776 790 849 b 1013 940 918 924 965 943 b 1075 917 1035 939 1057 931 b 1121 864 1094 904 1108 885 b 1167 725 1144 822 1158 774 b 1164 576 1172 676 1171 626 b 1081 288 1150 478 1118 381 b 943 18 1042 194 994 104 b 771 -232 892 -69 835 -153 b 563 -450 708 -310 639 -385 b 440 -536 524 -482 483 -512 b 300 -585 396 -561 349 -581 b 229 -576 276 -586 251 -585 b 167 -540 207 -569 186 -556 b 82 -422 128 -510 100 -468 b 50 -276 63 -375 54 -326 b 53 -125 46 -226 49 -175 b 122 168 64 -25 89 74 b 253 442 157 264 199 356 b 444 671 306 526 369 607 b 447 674 444 672 446 674 b 444 708 456 683 454 699 b 411 706 435 717 419 715 b 233 453 342 626 283 542 b 104 175 182 364 139 271 b 35 -124 71 78 46 -22 b 32 -278 29 -175 28 -226 b 65 -428 36 -329 46 -381 b 154 -556 83 -476 114 -522 b 224 -594 175 -571 197 -586 b 301 -604 249 -603 276 -606 b 450 -554 356 -599 404 -579 b 576 -467 494 -529 536 -499 b 789 -246 654 -400 724 -325 b 964 6 853 -165 911 -82 b 1103 278 1017 93 1064 183 b 1189 574 1142 372 1174 471 z "},"Õ":{"ha":1238,"x_min":0,"x_max":0,"o":"m 1189 574 b 1193 729 1197 624 1200 676 b 1175 806 1189 754 1183 781 b 1144 878 1168 831 1158 854 b 1092 939 1131 901 1114 924 b 1014 968 1069 956 1042 967 b 933 956 986 969 958 964 b 863 922 908 947 885 936 b 739 828 818 896 778 863 b 633 717 701 793 667 756 b 456 468 567 639 508 556 b 322 192 403 379 356 289 b 285 42 306 143 290 93 b 286 -36 282 17 282 -10 b 319 -108 290 -62 300 -89 b 331 -108 322 -112 328 -112 b 331 -97 335 -106 335 -101 b 303 -33 315 -81 306 -58 b 303 40 299 -10 300 15 b 342 185 310 89 324 138 b 475 456 376 279 422 369 b 653 701 528 542 586 624 b 876 900 718 776 790 849 b 1013 940 918 924 965 943 b 1075 917 1035 939 1057 931 b 1121 864 1094 904 1108 885 b 1167 725 1144 822 1158 774 b 1164 576 1172 676 1171 626 b 1081 288 1150 478 1118 381 b 943 18 1042 194 994 104 b 771 -232 892 -69 835 -153 b 563 -450 708 -310 639 -385 b 440 -536 524 -482 483 -512 b 300 -585 396 -561 349 -581 b 229 -576 276 -586 251 -585 b 167 -540 207 -569 186 -556 b 82 -422 128 -510 100 -468 b 50 -276 63 -375 54 -326 b 53 -125 46 -226 49 -175 b 122 168 64 -25 89 74 b 253 442 157 264 199 356 b 444 671 306 526 369 607 b 447 674 444 672 446 674 b 444 708 456 683 454 699 b 411 706 435 717 419 715 b 233 453 342 626 283 542 b 104 175 182 364 139 271 b 35 -124 71 78 46 -22 b 32 -278 29 -175 28 -226 b 65 -428 36 -329 46 -381 b 154 -556 83 -476 114 -522 b 224 -594 175 -571 197 -586 b 301 -604 249 -603 276 -606 b 450 -554 356 -599 404 -579 b 576 -467 494 -529 536 -499 b 789 -246 654 -400 724 -325 b 964 6 853 -165 911 -82 b 1103 278 1017 93 1064 183 b 1189 574 1142 372 1174 471 z "},"Ö":{"ha":1238,"x_min":0,"x_max":0,"o":"m 1189 574 b 1193 729 1197 624 1200 676 b 1175 806 1189 754 1183 781 b 1144 878 1168 831 1158 854 b 1092 939 1131 901 1114 924 b 1014 968 1069 956 1042 967 b 933 956 986 969 958 964 b 863 922 908 947 885 936 b 739 828 818 896 778 863 b 633 717 701 793 667 756 b 456 468 567 639 508 556 b 322 192 403 379 356 289 b 285 42 306 143 290 93 b 286 -36 282 17 282 -10 b 319 -108 290 -62 300 -89 b 331 -108 322 -112 328 -112 b 331 -97 335 -106 335 -101 b 303 -33 315 -81 306 -58 b 303 40 299 -10 300 15 b 342 185 310 89 324 138 b 475 456 376 279 422 369 b 653 701 528 542 586 624 b 876 900 718 776 790 849 b 1013 940 918 924 965 943 b 1075 917 1035 939 1057 931 b 1121 864 1094 904 1108 885 b 1167 725 1144 822 1158 774 b 1164 576 1172 676 1171 626 b 1081 288 1150 478 1118 381 b 943 18 1042 194 994 104 b 771 -232 892 -69 835 -153 b 563 -450 708 -310 639 -385 b 440 -536 524 -482 483 -512 b 300 -585 396 -561 349 -581 b 229 -576 276 -586 251 -585 b 167 -540 207 -569 186 -556 b 82 -422 128 -510 100 -468 b 50 -276 63 -375 54 -326 b 53 -125 46 -226 49 -175 b 122 168 64 -25 89 74 b 253 442 157 264 199 356 b 444 671 306 526 369 607 b 447 674 444 672 446 674 b 444 708 456 683 454 699 b 411 706 435 717 419 715 b 233 453 342 626 283 542 b 104 175 182 364 139 271 b 35 -124 71 78 46 -22 b 32 -278 29 -175 28 -226 b 65 -428 36 -329 46 -381 b 154 -556 83 -476 114 -522 b 224 -594 175 -571 197 -586 b 301 -604 249 -603 276 -606 b 450 -554 356 -599 404 -579 b 576 -467 494 -529 536 -499 b 789 -246 654 -400 724 -325 b 964 6 853 -165 911 -82 b 1103 278 1017 93 1064 183 b 1189 574 1142 372 1174 471 z "},"Ø":{"ha":1238,"x_min":0,"x_max":0,"o":"m 1189 574 b 1193 729 1197 624 1200 676 b 1175 806 1189 754 1183 781 b 1144 878 1168 831 1158 854 b 1092 939 1131 901 1114 924 b 1014 968 1069 956 1042 967 b 933 956 986 969 958 964 b 863 922 908 947 885 936 b 739 828 818 896 778 863 b 633 717 701 793 667 756 b 456 468 567 639 508 556 b 322 192 403 379 356 289 b 285 42 306 143 290 93 b 286 -36 282 17 282 -10 b 319 -108 290 -62 300 -89 b 331 -108 322 -112 328 -112 b 331 -97 335 -106 335 -101 b 303 -33 315 -81 306 -58 b 303 40 299 -10 300 15 b 342 185 310 89 324 138 b 475 456 376 279 422 369 b 653 701 528 542 586 624 b 876 900 718 776 790 849 b 1013 940 918 924 965 943 b 1075 917 1035 939 1057 931 b 1121 864 1094 904 1108 885 b 1167 725 1144 822 1158 774 b 1164 576 1172 676 1171 626 b 1081 288 1150 478 1118 381 b 943 18 1042 194 994 104 b 771 -232 892 -69 835 -153 b 563 -450 708 -310 639 -385 b 440 -536 524 -482 483 -512 b 300 -585 396 -561 349 -581 b 229 -576 276 -586 251 -585 b 167 -540 207 -569 186 -556 b 82 -422 128 -510 100 -468 b 50 -276 63 -375 54 -326 b 53 -125 46 -226 49 -175 b 122 168 64 -25 89 74 b 253 442 157 264 199 356 b 444 671 306 526 369 607 b 447 674 444 672 446 674 b 444 708 456 683 454 699 b 411 706 435 717 419 715 b 233 453 342 626 283 542 b 104 175 182 364 139 271 b 35 -124 71 78 46 -22 b 32 -278 29 -175 28 -226 b 65 -428 36 -329 46 -381 b 154 -556 83 -476 114 -522 b 224 -594 175 -571 197 -586 b 301 -604 249 -603 276 -606 b 450 -554 356 -599 404 -579 b 576 -467 494 -529 536 -499 b 789 -246 654 -400 724 -325 b 964 6 853 -165 911 -82 b 1103 278 1017 93 1064 183 b 1189 574 1142 372 1174 471 z "},"P":{"ha":1479,"x_min":0,"x_max":0,"o":"m 1496 247 b 1164 225 1385 244 1274 239 b 1196 267 1175 239 1185 253 b 1358 517 1254 347 1308 429 b 1426 649 1382 560 1406 604 b 1478 790 1446 694 1465 740 b 1492 865 1485 814 1490 839 b 1476 946 1493 892 1493 919 b 1442 975 1469 958 1456 969 b 1400 983 1428 981 1414 983 b 1360 978 1386 983 1372 981 l 1342 974 l 1322 968 b 1063 818 1225 938 1140 881 b 843 615 983 756 913 688 b 506 207 722 486 611 349 b 642 457 551 289 597 372 b 726 632 671 514 700 572 b 763 722 739 661 751 690 b 776 769 768 738 772 753 b 779 796 778 778 779 786 b 778 811 779 800 778 806 b 774 819 776 814 775 817 b 767 828 772 822 769 825 b 760 829 765 829 763 831 b 751 819 754 829 751 824 l 754 810 b 754 808 754 808 754 808 b 756 806 756 807 756 806 b 757 796 756 803 757 800 b 754 775 757 789 756 782 b 740 729 750 760 746 744 b 703 642 729 700 717 671 b 615 471 676 583 646 526 b 425 135 554 357 490 246 b 226 -196 360 25 293 -86 l 203 -233 b 138 -339 181 -268 158 -304 l 136 -339 b 133 -347 135 -342 135 -344 l 125 -361 l 76 -444 l 51 -486 l 40 -508 l 33 -519 b 31 -526 33 -522 32 -524 l 29 -532 b 28 -537 29 -532 28 -535 b 28 -544 28 -540 28 -543 b 56 -564 31 -558 43 -567 b 75 -544 67 -562 74 -554 l 75 -543 b 78 -539 75 -543 76 -540 l 82 -529 l 93 -508 l 115 -467 l 164 -383 l 171 -371 b 178 -364 174 -369 176 -367 b 501 131 279 -194 388 -31 b 871 590 617 290 738 446 b 1083 792 938 661 1008 731 b 1332 938 1160 853 1242 908 l 1349 943 l 1367 947 b 1400 951 1378 950 1389 951 b 1451 929 1422 953 1442 946 b 1463 867 1461 914 1464 890 b 1450 797 1461 844 1457 821 b 1401 660 1439 750 1421 704 b 1335 529 1381 615 1358 572 b 1176 281 1288 443 1235 360 b 1133 221 1163 261 1147 240 b 908 178 1057 211 982 197 b 632 68 813 153 718 121 b 521 -32 590 42 550 10 b 490 -103 507 -54 496 -78 b 501 -179 485 -128 486 -157 b 567 -224 517 -203 542 -217 b 586 -226 574 -225 581 -225 b 606 -225 593 -226 600 -226 b 643 -219 618 -224 632 -222 b 781 -157 693 -207 739 -183 b 1006 38 864 -103 938 -33 b 1158 217 1060 94 1110 154 b 1496 243 1269 232 1383 239 b 1499 244 1497 243 1499 244 b 1496 247 1499 246 1497 247 z m 75 -544 b 75 -537 75 -542 75 -539 b 75 -542 75 -539 76 -540 b 75 -544 75 -542 75 -543 z m 990 51 b 771 -142 924 -19 851 -87 b 640 -203 729 -168 686 -192 b 604 -208 628 -206 617 -208 b 588 -210 599 -210 593 -210 b 571 -207 581 -210 576 -208 b 514 -171 549 -203 526 -190 b 506 -106 503 -153 500 -128 b 532 -40 510 -82 519 -60 b 639 57 560 0 599 31 b 910 168 722 110 815 143 b 1125 213 982 188 1053 201 b 990 51 1083 157 1039 103 z "},"Q":{"ha":1208,"x_min":0,"x_max":0,"o":"m 1103 915 b 1038 960 1086 935 1064 951 b 960 969 1013 969 986 972 b 817 918 907 965 860 943 b 696 828 772 893 733 861 b 500 604 622 761 557 685 b 358 343 444 522 394 436 b 318 199 340 297 325 249 b 325 49 310 150 308 99 b 335 44 326 44 331 43 b 339 54 339 46 340 50 b 336 196 325 100 328 149 b 378 336 344 244 360 290 b 519 590 414 426 463 511 b 713 810 576 671 640 744 b 829 896 749 842 788 872 b 961 943 871 919 915 939 b 1028 935 985 946 1007 943 b 1083 896 1049 926 1068 914 b 1143 769 1114 863 1131 817 b 1154 628 1154 724 1157 675 b 1131 485 1150 579 1142 532 b 1029 210 1106 390 1071 299 b 888 -47 988 121 940 35 b 713 -283 835 -129 776 -208 b 640 -362 689 -310 665 -337 b 560 -310 613 -346 586 -328 b 499 -262 539 -296 518 -281 b 472 -235 489 -254 481 -244 b 461 -219 468 -229 464 -225 b 461 -211 461 -217 461 -214 b 431 -194 457 -197 443 -190 b 417 -206 426 -196 419 -200 b 414 -217 414 -211 414 -212 b 415 -225 414 -219 414 -224 l 417 -228 b 421 -235 418 -232 419 -233 b 426 -239 422 -236 425 -237 b 436 -246 429 -242 433 -243 l 454 -256 b 488 -276 465 -262 476 -269 b 551 -322 510 -290 531 -307 b 629 -374 576 -340 603 -357 b 501 -486 589 -414 547 -453 b 376 -560 463 -515 421 -542 b 239 -583 333 -579 285 -590 b 174 -557 215 -579 194 -569 b 121 -510 154 -544 136 -528 b 63 -381 90 -474 72 -428 b 79 -92 44 -286 57 -186 b 176 185 101 3 136 96 b 321 440 217 274 265 360 b 514 658 376 519 440 594 b 517 661 515 658 515 660 b 514 694 525 671 524 686 b 481 692 504 703 489 701 b 301 453 414 617 356 536 b 158 193 249 369 200 282 b 61 -87 118 103 83 8 b 46 -385 39 -185 26 -285 b 107 -522 56 -433 74 -482 b 164 -572 124 -542 142 -558 b 235 -601 185 -587 210 -597 b 385 -578 288 -610 339 -597 b 514 -503 431 -558 474 -532 b 647 -386 561 -467 606 -428 b 682 -408 658 -393 669 -401 b 819 -483 726 -435 771 -461 b 896 -511 844 -494 869 -504 b 939 -517 910 -514 924 -517 b 986 -508 954 -517 969 -515 l 989 -508 b 993 -506 990 -507 992 -507 b 999 -472 1003 -497 1006 -482 b 964 -467 990 -461 975 -458 b 903 -475 951 -476 926 -478 b 831 -457 879 -471 854 -465 b 690 -393 782 -440 736 -417 b 658 -374 681 -386 669 -381 b 729 -297 683 -349 707 -324 b 907 -60 793 -222 853 -143 b 1051 199 960 24 1008 110 b 1154 478 1093 289 1131 382 b 1179 625 1167 526 1176 575 b 1168 776 1183 675 1182 728 b 1103 915 1157 825 1139 875 z m 457 -208 b 458 -211 457 -208 457 -208 l 460 -212 b 460 -218 460 -212 460 -215 b 457 -211 458 -215 458 -214 b 457 -208 457 -210 456 -208 z m 449 -239 b 444 -240 447 -239 446 -240 b 449 -239 446 -240 447 -239 z "},"R":{"ha":1329,"x_min":0,"x_max":0,"o":"m 1493 958 b 1431 988 1475 975 1451 985 b 1368 985 1408 990 1388 988 b 1153 889 1288 969 1218 932 b 972 746 1089 847 1029 797 b 663 407 860 642 758 526 b 481 165 600 328 539 247 b 640 457 535 261 589 358 b 725 632 669 514 699 572 b 761 722 738 661 750 690 b 775 769 767 738 771 753 b 778 796 776 778 778 786 b 776 811 778 801 778 806 b 772 819 775 814 774 817 b 765 828 771 822 768 825 b 758 829 764 829 761 831 b 751 819 753 829 750 824 l 753 810 b 753 808 753 808 753 808 b 754 806 754 807 754 806 b 756 796 754 803 756 800 b 753 775 756 789 754 782 b 739 729 749 760 744 744 b 701 642 728 700 715 671 b 614 471 675 583 644 526 b 424 135 553 357 489 246 b 360 29 403 100 381 64 b 286 32 336 29 311 31 b 286 33 286 33 286 33 l 285 33 b 285 35 285 33 285 35 b 250 31 274 43 258 42 b 254 -3 243 21 244 6 b 314 -49 274 -18 293 -33 b 225 -196 283 -97 254 -147 l 124 -361 l 75 -444 l 50 -486 l 39 -508 l 32 -519 b 29 -526 32 -522 31 -524 l 28 -532 b 26 -537 28 -532 26 -535 b 26 -544 26 -540 26 -543 b 54 -564 29 -558 42 -567 b 74 -544 65 -562 72 -554 l 74 -543 b 76 -539 75 -543 75 -540 l 81 -529 l 92 -508 l 114 -467 l 163 -383 l 260 -217 b 315 -122 278 -185 297 -154 b 347 -74 326 -106 336 -90 b 456 -147 383 -100 419 -124 b 671 -269 525 -192 596 -233 b 785 -318 708 -287 746 -304 b 904 -353 824 -332 864 -344 b 1028 -362 944 -360 986 -365 b 1149 -331 1069 -360 1111 -350 b 1150 -326 1150 -331 1151 -328 b 1144 -324 1149 -324 1147 -324 b 1028 -350 1108 -342 1068 -349 b 908 -335 988 -350 947 -344 b 793 -297 869 -325 831 -312 b 683 -244 756 -282 719 -264 b 476 -117 613 -207 543 -162 b 372 -39 442 -92 407 -65 b 406 10 383 -22 394 -7 b 714 60 510 11 614 28 b 1117 278 860 107 996 183 b 1428 618 1238 374 1344 486 b 1483 719 1449 650 1467 685 b 1518 833 1499 756 1513 793 b 1521 896 1522 853 1524 874 b 1493 958 1518 917 1510 940 z m 74 -544 b 74 -537 74 -542 74 -539 b 74 -542 74 -539 75 -540 b 74 -544 74 -542 74 -543 z m 310 13 b 349 11 322 11 336 11 b 336 -10 344 4 340 -3 b 310 13 328 -3 318 6 z m 1481 839 b 1449 736 1475 804 1463 769 b 1396 638 1433 701 1415 669 b 1260 458 1357 574 1310 514 b 1096 304 1210 403 1156 351 b 706 86 979 210 847 133 b 421 31 614 54 518 35 b 690 385 507 151 596 271 b 999 717 788 501 888 615 b 1175 856 1054 768 1113 815 b 1272 910 1206 876 1239 894 b 1375 944 1304 926 1339 939 b 1464 931 1408 951 1446 950 b 1481 839 1485 911 1486 874 z "},"S":{"ha":1188,"x_min":0,"x_max":0,"o":"m 1164 965 b 1122 971 1150 969 1136 971 b 968 935 1067 969 1017 953 b 693 800 872 899 782 850 b 433 636 604 749 518 693 b 192 449 350 578 268 517 b 138 393 172 431 154 413 b 114 361 129 383 121 374 b 106 342 110 356 107 349 b 108 317 103 335 103 325 b 129 303 114 308 122 304 b 150 300 136 301 143 300 b 189 304 164 300 176 303 b 264 322 215 308 240 315 b 563 375 363 349 463 369 b 713 367 613 378 664 375 b 850 311 763 358 811 340 b 928 189 889 282 917 238 b 925 42 939 142 935 90 b 796 -229 903 -57 854 -147 b 582 -440 736 -310 664 -382 b 310 -562 500 -500 407 -544 b 164 -557 261 -571 210 -572 b 104 -521 142 -549 121 -537 b 69 -461 89 -504 76 -483 b 79 -319 57 -415 64 -365 b 147 -189 94 -274 118 -229 b 363 17 206 -108 281 -40 b 625 164 444 75 533 124 b 626 164 625 164 625 164 b 638 196 638 169 643 183 b 606 207 632 207 617 213 b 339 49 513 163 422 110 b 121 -171 257 -12 181 -85 b 50 -311 92 -214 67 -260 b 44 -469 35 -361 28 -417 b 86 -539 51 -496 67 -519 b 157 -581 107 -558 131 -572 b 314 -585 208 -597 263 -594 b 593 -457 415 -564 510 -517 b 810 -239 676 -396 749 -322 b 940 38 869 -156 918 -64 b 943 193 951 89 954 142 b 858 322 931 244 901 292 b 715 381 817 354 767 372 b 563 390 665 390 614 392 b 260 339 460 385 358 364 b 186 321 235 332 211 325 b 150 318 175 319 163 318 b 122 326 139 318 125 321 b 129 353 119 331 124 343 b 151 382 135 363 143 372 b 204 435 167 400 185 418 b 446 618 279 501 361 563 b 706 776 531 675 617 728 b 979 907 794 825 885 872 b 1122 936 1026 924 1074 936 b 1175 917 1144 936 1168 929 b 1171 860 1183 906 1179 882 b 1093 739 1154 817 1125 776 b 1042 686 1076 719 1060 703 b 1014 663 1032 678 1024 669 b 986 646 1004 656 994 649 b 985 644 986 646 986 646 b 974 614 974 639 968 625 b 1006 601 979 601 993 596 b 1043 626 1021 608 1032 618 b 1072 653 1053 635 1063 643 b 1125 711 1092 671 1108 692 b 1208 847 1158 753 1189 796 b 1217 889 1213 860 1215 874 b 1206 938 1218 904 1215 922 b 1164 965 1196 953 1179 961 z "},"T":{"ha":794,"x_min":0,"x_max":0,"o":"m 1158 922 b 1329 919 1215 922 1272 922 b 1415 915 1358 919 1388 918 b 1457 911 1429 914 1443 914 b 1478 908 1464 911 1471 910 b 1483 908 1481 908 1482 908 b 1513 906 1492 901 1504 900 b 1518 913 1515 908 1517 910 b 1522 919 1519 913 1522 917 b 1524 931 1524 924 1524 926 b 1521 939 1524 933 1522 936 b 1517 944 1518 943 1518 943 b 1513 949 1515 946 1513 949 b 1507 950 1510 950 1508 950 b 1504 951 1506 951 1504 951 b 1496 954 1500 953 1499 953 b 1483 956 1492 954 1488 954 b 1461 957 1476 956 1468 957 b 1418 958 1447 958 1432 958 b 1331 960 1389 960 1360 960 b 1157 957 1272 960 1215 960 b 844 942 1053 954 949 949 b 844 943 844 942 844 943 b 843 954 844 947 844 950 b 838 965 842 958 840 963 b 804 971 829 976 815 979 b 799 938 793 964 792 949 b 799 938 799 939 799 939 b 640 921 746 933 693 928 b 468 897 583 915 525 907 b 129 815 354 879 240 857 b 128 814 129 815 128 814 b 117 782 115 808 111 794 b 140 769 121 774 131 768 b 150 769 143 768 146 768 b 219 779 171 778 196 781 b 290 768 244 778 268 774 b 356 739 314 761 336 751 b 408 693 375 726 394 711 b 460 563 439 657 454 610 b 463 528 460 551 463 539 l 461 492 b 453 419 460 467 458 443 b 364 144 436 325 403 233 b 232 -114 325 56 281 -31 b 231 -115 232 -115 231 -115 b 229 -122 231 -117 229 -119 l 126 -287 b 75 -376 110 -317 92 -347 b 50 -422 67 -392 58 -407 b 39 -447 46 -431 42 -439 b 29 -479 35 -456 31 -462 b 46 -504 28 -490 35 -500 b 75 -489 58 -507 71 -501 l 76 -481 b 78 -479 76 -481 76 -481 l 78 -475 b 82 -464 79 -471 81 -468 b 90 -442 85 -457 88 -450 b 113 -397 97 -426 104 -411 b 160 -307 128 -367 143 -337 b 261 -131 193 -247 226 -189 b 471 221 331 -12 400 104 b 675 574 540 338 608 456 b 774 754 710 633 742 693 b 819 847 790 785 806 815 b 839 897 826 863 833 879 b 842 911 840 901 842 907 b 1158 922 947 918 1053 922 z m 786 860 b 749 767 776 828 763 797 b 657 585 721 704 690 644 b 450 233 590 465 519 350 b 375 111 425 193 400 151 b 385 136 378 119 382 128 b 469 417 422 226 454 319 b 478 490 474 442 475 465 l 478 528 b 475 565 478 540 475 553 b 419 703 469 614 453 664 b 363 751 404 722 385 739 b 294 781 342 765 318 774 b 221 793 271 788 246 792 l 204 796 b 226 804 211 799 218 801 b 307 829 253 814 279 822 b 474 868 361 844 418 858 b 643 893 531 878 586 886 b 799 908 694 899 747 904 b 799 907 799 907 799 907 b 786 860 796 892 792 875 z "},"U":{"ha":1444,"x_min":0,"x_max":0,"o":"m 1533 938 b 1535 940 1533 938 1533 939 b 1525 972 1540 951 1536 967 b 1494 967 1514 978 1501 975 b 1493 965 1494 965 1493 965 b 1489 963 1492 964 1489 963 b 1481 957 1486 960 1483 958 b 1469 946 1478 953 1474 949 b 1450 924 1463 939 1457 932 b 1415 881 1439 910 1426 896 b 1347 793 1392 851 1369 822 l 1215 615 b 949 264 1128 497 1039 381 b 672 -79 858 147 768 32 b 367 -397 575 -190 476 -300 b 282 -465 339 -421 311 -444 b 186 -517 251 -486 221 -506 b 135 -524 169 -522 153 -525 b 85 -512 117 -524 100 -521 b 50 -478 69 -506 57 -493 b 42 -426 44 -462 42 -444 b 63 -321 43 -392 51 -356 b 101 -219 74 -286 86 -253 b 203 -24 132 -153 167 -87 b 440 347 276 103 358 225 b 564 532 482 408 524 468 b 621 628 583 563 603 594 b 646 679 631 644 639 661 b 657 708 650 688 654 697 l 658 717 b 660 728 660 721 660 725 b 658 736 660 731 658 733 b 657 740 657 738 657 739 b 653 747 656 743 654 744 b 640 757 651 750 646 756 b 632 760 638 758 635 760 b 622 760 629 760 628 761 b 604 731 610 756 601 743 b 611 719 606 726 608 722 l 611 718 b 606 696 610 711 608 703 b 583 647 599 679 592 663 b 532 550 568 614 550 582 b 415 364 496 488 456 425 b 186 -15 336 239 258 114 b 86 -212 150 -79 117 -144 b 47 -317 72 -246 58 -281 b 26 -426 36 -351 26 -389 b 36 -483 26 -446 29 -465 b 78 -526 44 -503 60 -518 b 135 -539 96 -536 115 -539 b 192 -532 153 -540 174 -537 b 290 -479 228 -519 260 -500 b 378 -410 321 -458 350 -435 b 686 -93 490 -312 589 -203 b 969 247 783 19 878 132 b 1243 594 1061 363 1151 479 l 1379 768 b 1399 792 1386 776 1392 783 b 1289 604 1363 729 1326 667 l 1078 251 b 869 -104 1008 132 939 15 b 768 -283 836 -164 801 -224 b 721 -375 753 -314 736 -344 b 697 -422 713 -390 706 -407 b 688 -447 694 -431 690 -439 l 682 -461 b 679 -479 681 -467 681 -472 b 697 -506 676 -492 685 -503 b 725 -487 710 -508 722 -500 l 726 -481 b 728 -474 728 -479 728 -476 l 731 -462 b 739 -440 733 -456 736 -447 b 758 -393 746 -425 751 -408 b 803 -301 772 -362 788 -332 b 897 -119 833 -240 865 -179 b 1099 239 964 0 1031 121 b 1308 593 1168 357 1238 475 b 1533 938 1379 710 1453 826 z "},"Ù":{"ha":1444,"x_min":0,"x_max":0,"o":"m 1533 938 b 1535 940 1533 938 1533 939 b 1525 972 1540 951 1536 967 b 1494 967 1514 978 1501 975 b 1493 965 1494 965 1493 965 b 1489 963 1492 964 1489 963 b 1481 957 1486 960 1483 958 b 1469 946 1478 953 1474 949 b 1450 924 1463 939 1457 932 b 1415 881 1439 910 1426 896 b 1347 793 1392 851 1369 822 l 1215 615 b 949 264 1128 497 1039 381 b 672 -79 858 147 768 32 b 367 -397 575 -190 476 -300 b 282 -465 339 -421 311 -444 b 186 -517 251 -486 221 -506 b 135 -524 169 -522 153 -525 b 85 -512 117 -524 100 -521 b 50 -478 69 -506 57 -493 b 42 -426 44 -462 42 -444 b 63 -321 43 -392 51 -356 b 101 -219 74 -286 86 -253 b 203 -24 132 -153 167 -87 b 440 347 276 103 358 225 b 564 532 482 408 524 468 b 621 628 583 563 603 594 b 646 679 631 644 639 661 b 657 708 650 688 654 697 l 658 717 b 660 728 660 721 660 725 b 658 736 660 731 658 733 b 657 740 657 738 657 739 b 653 747 656 743 654 744 b 640 757 651 750 646 756 b 632 760 638 758 635 760 b 622 760 629 760 628 761 b 604 731 610 756 601 743 b 611 719 606 726 608 722 l 611 718 b 606 696 610 711 608 703 b 583 647 599 679 592 663 b 532 550 568 614 550 582 b 415 364 496 488 456 425 b 186 -15 336 239 258 114 b 86 -212 150 -79 117 -144 b 47 -317 72 -246 58 -281 b 26 -426 36 -351 26 -389 b 36 -483 26 -446 29 -465 b 78 -526 44 -503 60 -518 b 135 -539 96 -536 115 -539 b 192 -532 153 -540 174 -537 b 290 -479 228 -519 260 -500 b 378 -410 321 -458 350 -435 b 686 -93 490 -312 589 -203 b 969 247 783 19 878 132 b 1243 594 1061 363 1151 479 l 1379 768 b 1399 792 1386 776 1392 783 b 1289 604 1363 729 1326 667 l 1078 251 b 869 -104 1008 132 939 15 b 768 -283 836 -164 801 -224 b 721 -375 753 -314 736 -344 b 697 -422 713 -390 706 -407 b 688 -447 694 -431 690 -439 l 682 -461 b 679 -479 681 -467 681 -472 b 697 -506 676 -492 685 -503 b 725 -487 710 -508 722 -500 l 726 -481 b 728 -474 728 -479 728 -476 l 731 -462 b 739 -440 733 -456 736 -447 b 758 -393 746 -425 751 -408 b 803 -301 772 -362 788 -332 b 897 -119 833 -240 865 -179 b 1099 239 964 0 1031 121 b 1308 593 1168 357 1238 475 b 1533 938 1379 710 1453 826 z "},"Ú":{"ha":1444,"x_min":0,"x_max":0,"o":"m 1533 938 b 1535 940 1533 938 1533 939 b 1525 972 1540 951 1536 967 b 1494 967 1514 978 1501 975 b 1493 965 1494 965 1493 965 b 1489 963 1492 964 1489 963 b 1481 957 1486 960 1483 958 b 1469 946 1478 953 1474 949 b 1450 924 1463 939 1457 932 b 1415 881 1439 910 1426 896 b 1347 793 1392 851 1369 822 l 1215 615 b 949 264 1128 497 1039 381 b 672 -79 858 147 768 32 b 367 -397 575 -190 476 -300 b 282 -465 339 -421 311 -444 b 186 -517 251 -486 221 -506 b 135 -524 169 -522 153 -525 b 85 -512 117 -524 100 -521 b 50 -478 69 -506 57 -493 b 42 -426 44 -462 42 -444 b 63 -321 43 -392 51 -356 b 101 -219 74 -286 86 -253 b 203 -24 132 -153 167 -87 b 440 347 276 103 358 225 b 564 532 482 408 524 468 b 621 628 583 563 603 594 b 646 679 631 644 639 661 b 657 708 650 688 654 697 l 658 717 b 660 728 660 721 660 725 b 658 736 660 731 658 733 b 657 740 657 738 657 739 b 653 747 656 743 654 744 b 640 757 651 750 646 756 b 632 760 638 758 635 760 b 622 760 629 760 628 761 b 604 731 610 756 601 743 b 611 719 606 726 608 722 l 611 718 b 606 696 610 711 608 703 b 583 647 599 679 592 663 b 532 550 568 614 550 582 b 415 364 496 488 456 425 b 186 -15 336 239 258 114 b 86 -212 150 -79 117 -144 b 47 -317 72 -246 58 -281 b 26 -426 36 -351 26 -389 b 36 -483 26 -446 29 -465 b 78 -526 44 -503 60 -518 b 135 -539 96 -536 115 -539 b 192 -532 153 -540 174 -537 b 290 -479 228 -519 260 -500 b 378 -410 321 -458 350 -435 b 686 -93 490 -312 589 -203 b 969 247 783 19 878 132 b 1243 594 1061 363 1151 479 l 1379 768 b 1399 792 1386 776 1392 783 b 1289 604 1363 729 1326 667 l 1078 251 b 869 -104 1008 132 939 15 b 768 -283 836 -164 801 -224 b 721 -375 753 -314 736 -344 b 697 -422 713 -390 706 -407 b 688 -447 694 -431 690 -439 l 682 -461 b 679 -479 681 -467 681 -472 b 697 -506 676 -492 685 -503 b 725 -487 710 -508 722 -500 l 726 -481 b 728 -474 728 -479 728 -476 l 731 -462 b 739 -440 733 -456 736 -447 b 758 -393 746 -425 751 -408 b 803 -301 772 -362 788 -332 b 897 -119 833 -240 865 -179 b 1099 239 964 0 1031 121 b 1308 593 1168 357 1238 475 b 1533 938 1379 710 1453 826 z "},"Û":{"ha":1444,"x_min":0,"x_max":0,"o":"m 1533 938 b 1535 940 1533 938 1533 939 b 1525 972 1540 951 1536 967 b 1494 967 1514 978 1501 975 b 1493 965 1494 965 1493 965 b 1489 963 1492 964 1489 963 b 1481 957 1486 960 1483 958 b 1469 946 1478 953 1474 949 b 1450 924 1463 939 1457 932 b 1415 881 1439 910 1426 896 b 1347 793 1392 851 1369 822 l 1215 615 b 949 264 1128 497 1039 381 b 672 -79 858 147 768 32 b 367 -397 575 -190 476 -300 b 282 -465 339 -421 311 -444 b 186 -517 251 -486 221 -506 b 135 -524 169 -522 153 -525 b 85 -512 117 -524 100 -521 b 50 -478 69 -506 57 -493 b 42 -426 44 -462 42 -444 b 63 -321 43 -392 51 -356 b 101 -219 74 -286 86 -253 b 203 -24 132 -153 167 -87 b 440 347 276 103 358 225 b 564 532 482 408 524 468 b 621 628 583 563 603 594 b 646 679 631 644 639 661 b 657 708 650 688 654 697 l 658 717 b 660 728 660 721 660 725 b 658 736 660 731 658 733 b 657 740 657 738 657 739 b 653 747 656 743 654 744 b 640 757 651 750 646 756 b 632 760 638 758 635 760 b 622 760 629 760 628 761 b 604 731 610 756 601 743 b 611 719 606 726 608 722 l 611 718 b 606 696 610 711 608 703 b 583 647 599 679 592 663 b 532 550 568 614 550 582 b 415 364 496 488 456 425 b 186 -15 336 239 258 114 b 86 -212 150 -79 117 -144 b 47 -317 72 -246 58 -281 b 26 -426 36 -351 26 -389 b 36 -483 26 -446 29 -465 b 78 -526 44 -503 60 -518 b 135 -539 96 -536 115 -539 b 192 -532 153 -540 174 -537 b 290 -479 228 -519 260 -500 b 378 -410 321 -458 350 -435 b 686 -93 490 -312 589 -203 b 969 247 783 19 878 132 b 1243 594 1061 363 1151 479 l 1379 768 b 1399 792 1386 776 1392 783 b 1289 604 1363 729 1326 667 l 1078 251 b 869 -104 1008 132 939 15 b 768 -283 836 -164 801 -224 b 721 -375 753 -314 736 -344 b 697 -422 713 -390 706 -407 b 688 -447 694 -431 690 -439 l 682 -461 b 679 -479 681 -467 681 -472 b 697 -506 676 -492 685 -503 b 725 -487 710 -508 722 -500 l 726 -481 b 728 -474 728 -479 728 -476 l 731 -462 b 739 -440 733 -456 736 -447 b 758 -393 746 -425 751 -408 b 803 -301 772 -362 788 -332 b 897 -119 833 -240 865 -179 b 1099 239 964 0 1031 121 b 1308 593 1168 357 1238 475 b 1533 938 1379 710 1453 826 z "},"Ü":{"ha":1444,"x_min":0,"x_max":0,"o":"m 1533 938 b 1535 940 1533 938 1533 939 b 1525 972 1540 951 1536 967 b 1494 967 1514 978 1501 975 b 1493 965 1494 965 1493 965 b 1489 963 1492 964 1489 963 b 1481 957 1486 960 1483 958 b 1469 946 1478 953 1474 949 b 1450 924 1463 939 1457 932 b 1415 881 1439 910 1426 896 b 1347 793 1392 851 1369 822 l 1215 615 b 949 264 1128 497 1039 381 b 672 -79 858 147 768 32 b 367 -397 575 -190 476 -300 b 282 -465 339 -421 311 -444 b 186 -517 251 -486 221 -506 b 135 -524 169 -522 153 -525 b 85 -512 117 -524 100 -521 b 50 -478 69 -506 57 -493 b 42 -426 44 -462 42 -444 b 63 -321 43 -392 51 -356 b 101 -219 74 -286 86 -253 b 203 -24 132 -153 167 -87 b 440 347 276 103 358 225 b 564 532 482 408 524 468 b 621 628 583 563 603 594 b 646 679 631 644 639 661 b 657 708 650 688 654 697 l 658 717 b 660 728 660 721 660 725 b 658 736 660 731 658 733 b 657 740 657 738 657 739 b 653 747 656 743 654 744 b 640 757 651 750 646 756 b 632 760 638 758 635 760 b 622 760 629 760 628 761 b 604 731 610 756 601 743 b 611 719 606 726 608 722 l 611 718 b 606 696 610 711 608 703 b 583 647 599 679 592 663 b 532 550 568 614 550 582 b 415 364 496 488 456 425 b 186 -15 336 239 258 114 b 86 -212 150 -79 117 -144 b 47 -317 72 -246 58 -281 b 26 -426 36 -351 26 -389 b 36 -483 26 -446 29 -465 b 78 -526 44 -503 60 -518 b 135 -539 96 -536 115 -539 b 192 -532 153 -540 174 -537 b 290 -479 228 -519 260 -500 b 378 -410 321 -458 350 -435 b 686 -93 490 -312 589 -203 b 969 247 783 19 878 132 b 1243 594 1061 363 1151 479 l 1379 768 b 1399 792 1386 776 1392 783 b 1289 604 1363 729 1326 667 l 1078 251 b 869 -104 1008 132 939 15 b 768 -283 836 -164 801 -224 b 721 -375 753 -314 736 -344 b 697 -422 713 -390 706 -407 b 688 -447 694 -431 690 -439 l 682 -461 b 679 -479 681 -467 681 -472 b 697 -506 676 -492 685 -503 b 725 -487 710 -508 722 -500 l 726 -481 b 728 -474 728 -479 728 -476 l 731 -462 b 739 -440 733 -456 736 -447 b 758 -393 746 -425 751 -408 b 803 -301 772 -362 788 -332 b 897 -119 833 -240 865 -179 b 1099 239 964 0 1031 121 b 1308 593 1168 357 1238 475 b 1533 938 1379 710 1453 826 z "},"V":{"ha":1119,"x_min":0,"x_max":0,"o":"m 1346 940 b 1339 974 1353 951 1350 967 b 1306 965 1328 981 1313 976 b 831 247 1154 722 994 482 b 576 -100 749 129 664 13 b 301 -431 489 -214 400 -326 b 225 -506 276 -456 251 -482 b 140 -567 199 -528 171 -550 b 94 -579 125 -575 108 -581 b 85 -578 92 -579 88 -578 b 76 -572 82 -575 79 -575 b 63 -553 71 -567 67 -560 b 50 -506 56 -539 51 -522 b 49 -453 49 -487 49 -471 b 86 -243 53 -382 68 -312 b 147 -37 104 -174 125 -106 b 479 756 242 233 354 497 b 481 757 479 756 481 756 b 468 788 485 768 479 782 b 436 775 456 793 442 788 b 271 376 379 643 324 510 b 124 -31 218 242 168 107 b 63 -237 101 -99 81 -168 b 28 -451 46 -307 31 -379 b 29 -507 26 -471 26 -489 b 44 -562 31 -526 35 -544 b 63 -587 49 -572 54 -581 b 76 -596 67 -590 72 -593 b 93 -600 82 -599 88 -600 b 150 -586 114 -601 133 -594 b 239 -521 183 -568 211 -544 b 317 -446 267 -497 292 -472 b 596 -115 417 -342 507 -229 b 854 231 683 -1 769 114 b 1346 939 1022 464 1185 700 b 1346 940 1346 940 1346 940 z "},"W":{"ha":1432,"x_min":0,"x_max":0,"o":"m 1378 444 b 1499 686 1421 524 1461 604 b 1551 811 1517 726 1535 768 b 1572 876 1558 832 1567 854 b 1581 913 1575 889 1578 900 b 1581 954 1582 925 1583 938 b 1581 956 1581 954 1581 956 b 1551 974 1576 968 1564 976 b 1533 944 1539 969 1531 957 b 1533 919 1535 939 1535 929 b 1528 889 1532 910 1531 899 b 1510 826 1522 868 1517 847 b 1461 703 1494 785 1478 743 b 1346 461 1425 621 1386 540 b 1082 -6 1264 301 1176 146 b 935 -229 1035 -82 986 -157 b 772 -443 883 -303 831 -375 b 681 -537 744 -476 714 -508 b 626 -574 664 -551 646 -564 b 574 -576 608 -583 588 -587 b 558 -554 567 -571 563 -564 b 549 -524 554 -544 551 -533 b 540 -458 543 -503 540 -481 b 554 -328 539 -415 546 -371 b 633 -72 572 -240 601 -156 b 739 174 665 11 701 92 b 853 417 776 254 817 335 b 879 479 863 438 871 458 b 889 513 882 490 886 501 b 893 549 892 524 896 535 b 886 561 893 553 890 558 b 872 564 882 564 876 564 b 854 558 865 564 860 561 b 825 540 843 553 833 546 b 771 497 806 526 789 513 b 394 114 638 378 517 244 b 214 -86 333 47 274 -19 l 139 -169 b 201 -39 158 -125 181 -82 b 271 96 224 7 247 51 b 343 229 294 140 318 185 b 499 486 392 317 442 404 b 583 614 528 528 558 569 b 618 683 596 636 607 660 b 631 722 622 696 626 710 b 635 744 632 729 633 736 b 635 757 635 749 635 753 b 633 764 635 760 635 761 b 633 768 633 765 633 767 b 631 775 632 769 633 771 b 599 786 625 786 611 792 b 588 756 588 781 583 767 b 588 756 588 756 588 756 b 588 756 588 756 588 756 b 588 754 588 754 588 754 b 588 754 588 754 588 754 b 588 754 588 754 588 754 b 588 753 588 753 588 753 b 589 746 589 751 589 749 b 588 731 589 742 589 736 b 581 697 586 719 585 708 b 554 629 574 674 565 651 b 519 563 544 607 532 585 l 481 499 b 329 236 428 411 379 324 l 181 -28 b 32 -287 132 -114 82 -201 b 28 -297 29 -290 28 -293 b 28 -299 28 -297 28 -299 b 26 -301 28 -299 28 -300 b 42 -324 26 -311 32 -319 b 71 -315 53 -329 65 -325 b 413 97 182 -175 296 -37 b 592 297 471 165 531 232 b 782 486 653 363 715 426 b 833 528 799 500 815 514 b 861 544 843 533 851 539 b 874 549 865 546 871 549 b 876 549 876 549 876 549 b 878 546 878 549 878 547 b 874 517 879 538 876 526 b 864 485 871 506 868 496 b 838 424 856 465 847 444 b 724 181 801 342 761 263 b 617 -67 686 100 649 18 b 535 -324 583 -150 554 -235 b 521 -460 526 -368 519 -414 b 529 -528 521 -482 524 -506 b 540 -561 532 -539 535 -550 b 561 -593 544 -572 550 -585 b 600 -603 572 -601 588 -604 b 636 -592 614 -601 625 -597 b 693 -553 657 -582 676 -568 b 790 -457 729 -524 760 -490 b 956 -244 849 -389 903 -318 b 1106 -21 1008 -171 1057 -96 b 1246 210 1154 56 1200 132 b 1378 444 1292 286 1336 365 z "},"X":{"ha":1050,"x_min":0,"x_max":0,"o":"m 1472 926 b 1474 928 1472 926 1474 926 b 1479 961 1485 935 1488 950 b 1446 967 1472 971 1457 974 b 1240 800 1372 915 1306 858 b 1049 621 1175 740 1111 681 b 681 247 924 499 800 374 b 544 101 635 199 590 150 l 543 114 b 535 436 531 221 528 329 b 543 517 536 464 540 490 b 556 596 546 543 551 569 b 564 635 558 608 561 622 b 575 672 568 647 571 661 b 589 710 579 685 583 697 l 606 743 l 607 746 b 608 750 607 747 608 749 b 593 779 613 763 606 775 b 563 764 581 783 567 776 l 549 722 b 540 682 546 710 543 696 b 533 640 536 668 535 654 b 528 600 531 628 529 614 b 518 438 522 546 519 492 b 532 113 517 329 521 221 b 535 90 532 106 533 97 b 328 -142 464 14 396 -62 b 160 -344 271 -207 214 -275 b 82 -451 133 -379 107 -414 b 47 -508 69 -469 58 -489 b 22 -581 36 -529 25 -550 b 22 -582 22 -581 22 -582 b 47 -606 22 -596 33 -607 b 71 -582 60 -606 71 -594 l 71 -581 b 86 -528 69 -567 78 -546 b 115 -472 94 -510 104 -490 b 186 -362 138 -435 161 -399 b 344 -157 236 -292 290 -224 b 538 67 407 -81 472 -7 b 586 -207 549 -25 564 -117 b 694 -517 613 -312 646 -417 b 696 -519 694 -517 696 -518 b 729 -525 703 -529 718 -533 b 736 -493 740 -518 743 -504 b 606 -201 678 -404 636 -304 b 594 -162 603 -189 599 -176 l 585 -124 b 568 -46 579 -97 572 -72 b 554 35 563 -19 557 7 l 547 78 b 693 235 596 131 644 183 b 1067 601 814 361 938 483 b 1263 774 1131 660 1196 718 b 1472 926 1331 828 1399 882 z "},"Y":{"ha":1303,"x_min":0,"x_max":0,"o":"m 1315 253 b 999 197 1210 239 1103 221 b 1142 511 1051 300 1099 404 b 1222 735 1171 585 1197 660 b 1281 968 1246 811 1267 888 b 1281 969 1281 968 1281 968 b 1258 996 1282 982 1272 994 b 1246 993 1254 996 1249 994 b 1238 990 1243 993 1240 992 b 1225 983 1233 989 1229 986 l 1218 976 b 1206 964 1214 972 1210 968 b 1182 940 1197 956 1190 949 l 1139 890 l 1053 790 b 881 594 996 724 939 660 b 703 403 822 529 764 464 b 511 225 642 340 579 279 b 406 150 478 197 443 171 b 378 135 396 144 388 139 l 363 128 b 349 124 358 126 353 125 b 318 117 339 119 328 118 b 289 121 308 117 297 118 b 258 164 269 126 260 144 b 265 226 257 185 260 206 b 313 346 276 268 293 307 b 375 461 331 386 353 424 b 444 571 396 499 419 535 b 518 678 468 607 493 643 b 597 782 544 713 571 749 b 599 783 599 782 599 783 b 592 817 607 794 603 810 b 558 810 581 824 567 821 b 488 699 535 772 511 736 b 419 586 465 661 442 624 b 294 354 375 511 332 435 b 250 231 276 314 260 274 b 243 163 244 208 240 186 b 254 128 243 151 247 139 b 283 106 261 118 272 110 b 318 101 296 103 307 101 b 353 108 331 104 342 104 b 368 114 358 110 364 111 l 385 121 b 414 136 394 125 404 131 b 522 213 451 158 488 185 b 715 389 589 268 654 328 b 900 576 778 450 839 513 l 1079 768 l 1168 863 b 1214 910 1183 879 1199 894 b 1225 921 1218 913 1222 917 b 1186 746 1217 863 1203 804 b 1113 522 1165 671 1140 596 b 961 189 1068 408 1018 297 b 851 160 925 179 888 169 b 417 -26 700 114 553 54 b 225 -167 349 -67 283 -114 b 74 -351 167 -221 113 -281 b 32 -465 54 -386 39 -425 b 32 -528 29 -485 28 -507 b 57 -585 35 -547 43 -569 b 113 -619 72 -603 92 -614 b 175 -624 133 -625 154 -625 b 292 -597 215 -619 254 -611 b 497 -475 368 -568 436 -525 b 667 -307 560 -424 615 -367 b 936 83 771 -186 858 -54 b 989 181 954 115 972 147 b 1318 238 1097 206 1207 225 b 1324 246 1322 239 1325 242 b 1315 253 1324 250 1319 253 z m 913 97 b 649 -292 836 -40 749 -172 b 483 -457 597 -350 543 -407 b 285 -576 422 -506 357 -549 b 172 -603 249 -589 211 -599 b 74 -572 136 -607 96 -599 b 51 -468 50 -546 46 -506 b 90 -361 57 -431 72 -394 b 236 -181 128 -293 179 -233 b 425 -40 294 -128 358 -81 b 856 144 558 42 706 100 b 953 171 888 154 919 163 b 913 97 939 146 926 122 z "},"Ý":{"ha":1303,"x_min":0,"x_max":0,"o":"m 1315 253 b 999 197 1210 239 1103 221 b 1142 511 1051 300 1099 404 b 1222 735 1171 585 1197 660 b 1281 968 1246 811 1267 888 b 1281 969 1281 968 1281 968 b 1258 996 1282 982 1272 994 b 1246 993 1254 996 1249 994 b 1238 990 1243 993 1240 992 b 1225 983 1233 989 1229 986 l 1218 976 b 1206 964 1214 972 1210 968 b 1182 940 1197 956 1190 949 l 1139 890 l 1053 790 b 881 594 996 724 939 660 b 703 403 822 529 764 464 b 511 225 642 340 579 279 b 406 150 478 197 443 171 b 378 135 396 144 388 139 l 363 128 b 349 124 358 126 353 125 b 318 117 339 119 328 118 b 289 121 308 117 297 118 b 258 164 269 126 260 144 b 265 226 257 185 260 206 b 313 346 276 268 293 307 b 375 461 331 386 353 424 b 444 571 396 499 419 535 b 518 678 468 607 493 643 b 597 782 544 713 571 749 b 599 783 599 782 599 783 b 592 817 607 794 603 810 b 558 810 581 824 567 821 b 488 699 535 772 511 736 b 419 586 465 661 442 624 b 294 354 375 511 332 435 b 250 231 276 314 260 274 b 243 163 244 208 240 186 b 254 128 243 151 247 139 b 283 106 261 118 272 110 b 318 101 296 103 307 101 b 353 108 331 104 342 104 b 368 114 358 110 364 111 l 385 121 b 414 136 394 125 404 131 b 522 213 451 158 488 185 b 715 389 589 268 654 328 b 900 576 778 450 839 513 l 1079 768 l 1168 863 b 1214 910 1183 879 1199 894 b 1225 921 1218 913 1222 917 b 1186 746 1217 863 1203 804 b 1113 522 1165 671 1140 596 b 961 189 1068 408 1018 297 b 851 160 925 179 888 169 b 417 -26 700 114 553 54 b 225 -167 349 -67 283 -114 b 74 -351 167 -221 113 -281 b 32 -465 54 -386 39 -425 b 32 -528 29 -485 28 -507 b 57 -585 35 -547 43 -569 b 113 -619 72 -603 92 -614 b 175 -624 133 -625 154 -625 b 292 -597 215 -619 254 -611 b 497 -475 368 -568 436 -525 b 667 -307 560 -424 615 -367 b 936 83 771 -186 858 -54 b 989 181 954 115 972 147 b 1318 238 1097 206 1207 225 b 1324 246 1322 239 1325 242 b 1315 253 1324 250 1319 253 z m 913 97 b 649 -292 836 -40 749 -172 b 483 -457 597 -350 543 -407 b 285 -576 422 -506 357 -549 b 172 -603 249 -589 211 -599 b 74 -572 136 -607 96 -599 b 51 -468 50 -546 46 -506 b 90 -361 57 -431 72 -394 b 236 -181 128 -293 179 -233 b 425 -40 294 -128 358 -81 b 856 144 558 42 706 100 b 953 171 888 154 919 163 b 913 97 939 146 926 122 z "},"Ÿ":{"ha":1303,"x_min":0,"x_max":0,"o":"m 1315 253 b 999 197 1210 239 1103 221 b 1142 511 1051 300 1099 404 b 1222 735 1171 585 1197 660 b 1281 968 1246 811 1267 888 b 1281 969 1281 968 1281 968 b 1258 996 1282 982 1272 994 b 1246 993 1254 996 1249 994 b 1238 990 1243 993 1240 992 b 1225 983 1233 989 1229 986 l 1218 976 b 1206 964 1214 972 1210 968 b 1182 940 1197 956 1190 949 l 1139 890 l 1053 790 b 881 594 996 724 939 660 b 703 403 822 529 764 464 b 511 225 642 340 579 279 b 406 150 478 197 443 171 b 378 135 396 144 388 139 l 363 128 b 349 124 358 126 353 125 b 318 117 339 119 328 118 b 289 121 308 117 297 118 b 258 164 269 126 260 144 b 265 226 257 185 260 206 b 313 346 276 268 293 307 b 375 461 331 386 353 424 b 444 571 396 499 419 535 b 518 678 468 607 493 643 b 597 782 544 713 571 749 b 599 783 599 782 599 783 b 592 817 607 794 603 810 b 558 810 581 824 567 821 b 488 699 535 772 511 736 b 419 586 465 661 442 624 b 294 354 375 511 332 435 b 250 231 276 314 260 274 b 243 163 244 208 240 186 b 254 128 243 151 247 139 b 283 106 261 118 272 110 b 318 101 296 103 307 101 b 353 108 331 104 342 104 b 368 114 358 110 364 111 l 385 121 b 414 136 394 125 404 131 b 522 213 451 158 488 185 b 715 389 589 268 654 328 b 900 576 778 450 839 513 l 1079 768 l 1168 863 b 1214 910 1183 879 1199 894 b 1225 921 1218 913 1222 917 b 1186 746 1217 863 1203 804 b 1113 522 1165 671 1140 596 b 961 189 1068 408 1018 297 b 851 160 925 179 888 169 b 417 -26 700 114 553 54 b 225 -167 349 -67 283 -114 b 74 -351 167 -221 113 -281 b 32 -465 54 -386 39 -425 b 32 -528 29 -485 28 -507 b 57 -585 35 -547 43 -569 b 113 -619 72 -603 92 -614 b 175 -624 133 -625 154 -625 b 292 -597 215 -619 254 -611 b 497 -475 368 -568 436 -525 b 667 -307 560 -424 615 -367 b 936 83 771 -186 858 -54 b 989 181 954 115 972 147 b 1318 238 1097 206 1207 225 b 1324 246 1322 239 1325 242 b 1315 253 1324 250 1319 253 z m 913 97 b 649 -292 836 -40 749 -172 b 483 -457 597 -350 543 -407 b 285 -576 422 -506 357 -549 b 172 -603 249 -589 211 -599 b 74 -572 136 -607 96 -599 b 51 -468 50 -546 46 -506 b 90 -361 57 -431 72 -394 b 236 -181 128 -293 179 -233 b 425 -40 294 -128 358 -81 b 856 144 558 42 706 100 b 953 171 888 154 919 163 b 913 97 939 146 926 122 z "},"Z":{"ha":1104,"x_min":0,"x_max":0,"o":"m 1213 971 b 1194 983 1208 978 1200 982 b 1176 983 1188 985 1182 983 b 1160 983 1171 983 1165 983 b 1096 974 1139 981 1117 978 b 972 938 1054 964 1013 951 b 736 833 890 910 813 874 b 518 694 660 793 586 749 b 422 604 485 668 451 639 b 383 549 408 588 394 569 b 364 478 374 528 364 504 b 364 475 364 476 364 476 b 388 453 364 463 375 451 b 411 476 401 453 411 464 l 411 478 b 422 529 411 493 415 511 b 454 579 431 547 442 564 b 539 669 478 613 508 642 b 747 813 603 724 674 771 b 978 921 821 856 899 890 b 1099 957 1018 935 1058 947 b 1161 967 1119 963 1140 965 b 1176 968 1167 968 1172 968 b 1192 968 1182 968 1188 969 b 1199 964 1196 968 1197 965 b 1200 953 1200 961 1200 957 b 1176 896 1197 933 1186 914 b 1142 843 1165 878 1153 861 b 1064 742 1117 808 1090 775 b 899 547 1010 676 954 611 b 556 167 785 419 671 293 b 221 -221 442 39 328 -87 b 68 -429 167 -287 114 -356 b 38 -487 57 -449 46 -467 b 26 -524 33 -499 28 -510 b 26 -535 26 -528 26 -531 b 32 -549 28 -540 28 -544 b 36 -554 33 -550 35 -553 b 42 -560 38 -556 39 -558 b 53 -565 44 -562 49 -564 b 92 -567 68 -569 81 -568 b 125 -560 104 -565 114 -562 b 188 -539 147 -554 167 -546 b 421 -431 268 -507 344 -468 b 650 -315 497 -393 574 -354 b 881 -207 726 -278 803 -240 b 999 -162 919 -190 958 -174 b 1060 -150 1019 -156 1039 -151 b 1088 -151 1069 -149 1079 -149 b 1106 -165 1097 -154 1103 -158 b 1117 -171 1108 -169 1113 -172 b 1122 -160 1121 -169 1124 -164 b 1093 -133 1118 -146 1106 -137 b 1058 -131 1081 -131 1069 -131 b 993 -142 1036 -132 1014 -136 b 871 -185 951 -153 911 -168 b 638 -290 792 -217 714 -253 l 407 -403 b 176 -508 331 -440 254 -478 b 117 -528 156 -515 136 -522 b 88 -535 107 -531 97 -533 b 63 -535 78 -536 68 -536 b 60 -532 61 -533 60 -533 b 60 -531 60 -532 60 -531 b 60 -526 60 -529 60 -528 b 68 -501 60 -519 64 -510 b 96 -446 75 -482 86 -464 b 244 -240 139 -374 192 -307 b 574 151 350 -107 461 22 b 910 536 686 279 799 407 b 1075 733 967 601 1022 667 b 1153 835 1101 767 1128 800 b 1189 889 1165 853 1178 871 b 1214 950 1199 908 1210 926 b 1213 971 1215 956 1215 963 z "},"\\":{"ha":172,"x_min":0,"x_max":0,"o":"m 144 860 b 143 868 144 863 144 864 l 143 871 b 140 874 142 872 142 872 b 136 879 140 875 138 878 b 132 883 136 881 135 882 b 125 886 131 885 128 886 b 110 885 121 888 113 886 b 106 882 108 885 107 883 b 103 881 104 882 104 882 b 97 875 100 878 99 876 b 92 867 94 872 93 869 l 90 864 b 86 854 89 861 88 858 b 107 826 85 842 94 829 b 110 826 108 826 108 826 b 114 794 111 817 113 806 b 117 714 117 768 117 740 b 111 550 118 660 115 604 b 86 225 104 442 96 333 b 57 -100 78 117 67 8 l 40 -262 l 33 -344 l 29 -385 b 28 -429 29 -399 28 -412 b 29 -431 28 -429 29 -431 b 56 -451 31 -444 43 -453 b 76 -425 68 -450 78 -437 l 76 -424 b 74 -386 75 -414 74 -399 b 74 -346 74 -372 74 -360 l 76 -264 b 82 -101 78 -210 79 -156 b 92 61 85 -47 88 7 l 101 224 l 121 550 b 133 713 125 604 128 658 l 140 794 b 144 836 142 808 143 822 b 144 860 144 843 146 851 z m 103 851 b 103 853 103 853 103 853 l 103 854 b 104 851 103 854 104 853 b 104 850 104 851 104 850 b 103 851 104 850 103 851 z "},"^":{"ha":178,"x_min":0,"x_max":0,"o":"m 149 893 l 146 893 b 138 903 144 894 140 899 l 128 914 b 118 926 125 918 122 922 b 110 933 115 929 114 931 b 106 935 108 933 107 935 b 100 935 104 935 101 935 b 94 933 97 935 96 933 b 64 919 83 929 74 925 b 36 906 56 915 46 910 b 35 903 36 904 35 904 b 32 881 28 897 26 888 b 54 879 38 874 47 874 b 78 897 63 885 71 892 b 101 914 86 903 94 910 b 104 914 103 914 104 914 b 106 913 104 914 106 914 b 117 904 110 910 114 907 l 129 893 b 144 885 133 890 136 886 b 150 886 147 883 149 885 b 149 893 151 889 150 892 z m 103 914 b 101 915 101 914 101 915 b 103 914 101 915 103 914 b 103 914 103 914 103 914 z "},"a":{"ha":374,"x_min":0,"x_max":0,"o":"m 393 250 b 388 251 392 253 389 253 b 307 200 361 233 335 217 b 224 158 281 185 253 169 b 181 146 210 153 194 147 b 140 147 165 143 151 143 b 125 215 119 156 118 189 b 125 217 125 217 125 217 b 125 224 126 219 125 221 b 125 225 125 224 125 224 b 124 244 125 233 125 238 b 115 267 121 251 119 258 b 106 278 113 269 110 274 b 92 286 101 281 97 285 b 83 288 89 286 86 288 b 76 288 81 288 79 288 b 64 285 71 288 68 286 b 31 267 49 281 40 274 b 7 243 22 260 14 251 b -61 139 -21 211 -44 176 b -72 104 -65 128 -71 119 b -71 92 -72 101 -72 97 b -64 82 -69 89 -67 85 b -54 78 -61 81 -57 79 b -32 82 -43 76 -37 81 b 19 119 -11 93 4 106 b 92 188 44 140 68 164 b 94 168 92 181 93 175 b 106 142 96 160 100 150 b 131 124 113 133 121 126 b 185 124 150 117 168 119 b 232 140 201 126 217 133 b 315 189 261 154 289 171 b 392 246 342 207 367 226 b 393 250 393 247 394 249 z m 78 243 b 76 243 76 243 76 243 b 76 243 76 243 76 243 b 78 243 76 243 76 243 z m 6 136 b -42 106 -10 125 -26 113 b -43 106 -43 106 -43 106 b -35 125 -40 111 -37 119 b 35 217 -17 158 8 190 b 56 233 42 224 49 228 b 75 243 63 239 71 243 b 75 243 75 243 75 243 b 75 243 75 243 75 243 b 78 226 76 242 78 232 b 78 224 78 225 78 225 b 89 204 78 215 82 208 b 6 136 63 181 35 157 z "},"à":{"ha":374,"x_min":0,"x_max":0,"o":"m 393 250 b 388 251 392 253 389 253 b 307 200 361 233 335 217 b 224 158 281 185 253 169 b 181 146 210 153 194 147 b 140 147 165 143 151 143 b 125 215 119 156 118 189 b 125 217 125 217 125 217 b 125 224 126 219 125 221 b 125 225 125 224 125 224 b 124 244 125 233 125 238 b 115 267 121 251 119 258 b 106 278 113 269 110 274 b 92 286 101 281 97 285 b 83 288 89 286 86 288 b 76 288 81 288 79 288 b 64 285 71 288 68 286 b 31 267 49 281 40 274 b 7 243 22 260 14 251 b -61 139 -21 211 -44 176 b -72 104 -65 128 -71 119 b -71 92 -72 101 -72 97 b -64 82 -69 89 -67 85 b -54 78 -61 81 -57 79 b -32 82 -43 76 -37 81 b 19 119 -11 93 4 106 b 92 188 44 140 68 164 b 94 168 92 181 93 175 b 106 142 96 160 100 150 b 131 124 113 133 121 126 b 185 124 150 117 168 119 b 232 140 201 126 217 133 b 315 189 261 154 289 171 b 392 246 342 207 367 226 b 393 250 393 247 394 249 z m 78 243 b 76 243 76 243 76 243 b 76 243 76 243 76 243 b 78 243 76 243 76 243 z m 6 136 b -42 106 -10 125 -26 113 b -43 106 -43 106 -43 106 b -35 125 -40 111 -37 119 b 35 217 -17 158 8 190 b 56 233 42 224 49 228 b 75 243 63 239 71 243 b 75 243 75 243 75 243 b 75 243 75 243 75 243 b 78 226 76 242 78 232 b 78 224 78 225 78 225 b 89 204 78 215 82 208 b 6 136 63 181 35 157 z "},"á":{"ha":374,"x_min":0,"x_max":0,"o":"m 393 250 b 388 251 392 253 389 253 b 307 200 361 233 335 217 b 224 158 281 185 253 169 b 181 146 210 153 194 147 b 140 147 165 143 151 143 b 125 215 119 156 118 189 b 125 217 125 217 125 217 b 125 224 126 219 125 221 b 125 225 125 224 125 224 b 124 244 125 233 125 238 b 115 267 121 251 119 258 b 106 278 113 269 110 274 b 92 286 101 281 97 285 b 83 288 89 286 86 288 b 76 288 81 288 79 288 b 64 285 71 288 68 286 b 31 267 49 281 40 274 b 7 243 22 260 14 251 b -61 139 -21 211 -44 176 b -72 104 -65 128 -71 119 b -71 92 -72 101 -72 97 b -64 82 -69 89 -67 85 b -54 78 -61 81 -57 79 b -32 82 -43 76 -37 81 b 19 119 -11 93 4 106 b 92 188 44 140 68 164 b 94 168 92 181 93 175 b 106 142 96 160 100 150 b 131 124 113 133 121 126 b 185 124 150 117 168 119 b 232 140 201 126 217 133 b 315 189 261 154 289 171 b 392 246 342 207 367 226 b 393 250 393 247 394 249 z m 78 243 b 76 243 76 243 76 243 b 76 243 76 243 76 243 b 78 243 76 243 76 243 z m 6 136 b -42 106 -10 125 -26 113 b -43 106 -43 106 -43 106 b -35 125 -40 111 -37 119 b 35 217 -17 158 8 190 b 56 233 42 224 49 228 b 75 243 63 239 71 243 b 75 243 75 243 75 243 b 75 243 75 243 75 243 b 78 226 76 242 78 232 b 78 224 78 225 78 225 b 89 204 78 215 82 208 b 6 136 63 181 35 157 z "},"â":{"ha":374,"x_min":0,"x_max":0,"o":"m 393 250 b 388 251 392 253 389 253 b 307 200 361 233 335 217 b 224 158 281 185 253 169 b 181 146 210 153 194 147 b 140 147 165 143 151 143 b 125 215 119 156 118 189 b 125 217 125 217 125 217 b 125 224 126 219 125 221 b 125 225 125 224 125 224 b 124 244 125 233 125 238 b 115 267 121 251 119 258 b 106 278 113 269 110 274 b 92 286 101 281 97 285 b 83 288 89 286 86 288 b 76 288 81 288 79 288 b 64 285 71 288 68 286 b 31 267 49 281 40 274 b 7 243 22 260 14 251 b -61 139 -21 211 -44 176 b -72 104 -65 128 -71 119 b -71 92 -72 101 -72 97 b -64 82 -69 89 -67 85 b -54 78 -61 81 -57 79 b -32 82 -43 76 -37 81 b 19 119 -11 93 4 106 b 92 188 44 140 68 164 b 94 168 92 181 93 175 b 106 142 96 160 100 150 b 131 124 113 133 121 126 b 185 124 150 117 168 119 b 232 140 201 126 217 133 b 315 189 261 154 289 171 b 392 246 342 207 367 226 b 393 250 393 247 394 249 z m 78 243 b 76 243 76 243 76 243 b 76 243 76 243 76 243 b 78 243 76 243 76 243 z m 6 136 b -42 106 -10 125 -26 113 b -43 106 -43 106 -43 106 b -35 125 -40 111 -37 119 b 35 217 -17 158 8 190 b 56 233 42 224 49 228 b 75 243 63 239 71 243 b 75 243 75 243 75 243 b 75 243 75 243 75 243 b 78 226 76 242 78 232 b 78 224 78 225 78 225 b 89 204 78 215 82 208 b 6 136 63 181 35 157 z "},"ã":{"ha":374,"x_min":0,"x_max":0,"o":"m 393 250 b 388 251 392 253 389 253 b 307 200 361 233 335 217 b 224 158 281 185 253 169 b 181 146 210 153 194 147 b 140 147 165 143 151 143 b 125 215 119 156 118 189 b 125 217 125 217 125 217 b 125 224 126 219 125 221 b 125 225 125 224 125 224 b 124 244 125 233 125 238 b 115 267 121 251 119 258 b 106 278 113 269 110 274 b 92 286 101 281 97 285 b 83 288 89 286 86 288 b 76 288 81 288 79 288 b 64 285 71 288 68 286 b 31 267 49 281 40 274 b 7 243 22 260 14 251 b -61 139 -21 211 -44 176 b -72 104 -65 128 -71 119 b -71 92 -72 101 -72 97 b -64 82 -69 89 -67 85 b -54 78 -61 81 -57 79 b -32 82 -43 76 -37 81 b 19 119 -11 93 4 106 b 92 188 44 140 68 164 b 94 168 92 181 93 175 b 106 142 96 160 100 150 b 131 124 113 133 121 126 b 185 124 150 117 168 119 b 232 140 201 126 217 133 b 315 189 261 154 289 171 b 392 246 342 207 367 226 b 393 250 393 247 394 249 z m 78 243 b 76 243 76 243 76 243 b 76 243 76 243 76 243 b 78 243 76 243 76 243 z m 6 136 b -42 106 -10 125 -26 113 b -43 106 -43 106 -43 106 b -35 125 -40 111 -37 119 b 35 217 -17 158 8 190 b 56 233 42 224 49 228 b 75 243 63 239 71 243 b 75 243 75 243 75 243 b 75 243 75 243 75 243 b 78 226 76 242 78 232 b 78 224 78 225 78 225 b 89 204 78 215 82 208 b 6 136 63 181 35 157 z "},"ä":{"ha":374,"x_min":0,"x_max":0,"o":"m 393 250 b 388 251 392 253 389 253 b 307 200 361 233 335 217 b 224 158 281 185 253 169 b 181 146 210 153 194 147 b 140 147 165 143 151 143 b 125 215 119 156 118 189 b 125 217 125 217 125 217 b 125 224 126 219 125 221 b 125 225 125 224 125 224 b 124 244 125 233 125 238 b 115 267 121 251 119 258 b 106 278 113 269 110 274 b 92 286 101 281 97 285 b 83 288 89 286 86 288 b 76 288 81 288 79 288 b 64 285 71 288 68 286 b 31 267 49 281 40 274 b 7 243 22 260 14 251 b -61 139 -21 211 -44 176 b -72 104 -65 128 -71 119 b -71 92 -72 101 -72 97 b -64 82 -69 89 -67 85 b -54 78 -61 81 -57 79 b -32 82 -43 76 -37 81 b 19 119 -11 93 4 106 b 92 188 44 140 68 164 b 94 168 92 181 93 175 b 106 142 96 160 100 150 b 131 124 113 133 121 126 b 185 124 150 117 168 119 b 232 140 201 126 217 133 b 315 189 261 154 289 171 b 392 246 342 207 367 226 b 393 250 393 247 394 249 z m 78 243 b 76 243 76 243 76 243 b 76 243 76 243 76 243 b 78 243 76 243 76 243 z m 6 136 b -42 106 -10 125 -26 113 b -43 106 -43 106 -43 106 b -35 125 -40 111 -37 119 b 35 217 -17 158 8 190 b 56 233 42 224 49 228 b 75 243 63 239 71 243 b 75 243 75 243 75 243 b 75 243 75 243 75 243 b 78 226 76 242 78 232 b 78 224 78 225 78 225 b 89 204 78 215 82 208 b 6 136 63 181 35 157 z "},"å":{"ha":374,"x_min":0,"x_max":0,"o":"m 393 250 b 388 251 392 253 389 253 b 307 200 361 233 335 217 b 224 158 281 185 253 169 b 181 146 210 153 194 147 b 140 147 165 143 151 143 b 125 215 119 156 118 189 b 125 217 125 217 125 217 b 125 224 126 219 125 221 b 125 225 125 224 125 224 b 124 244 125 233 125 238 b 115 267 121 251 119 258 b 106 278 113 269 110 274 b 92 286 101 281 97 285 b 83 288 89 286 86 288 b 76 288 81 288 79 288 b 64 285 71 288 68 286 b 31 267 49 281 40 274 b 7 243 22 260 14 251 b -61 139 -21 211 -44 176 b -72 104 -65 128 -71 119 b -71 92 -72 101 -72 97 b -64 82 -69 89 -67 85 b -54 78 -61 81 -57 79 b -32 82 -43 76 -37 81 b 19 119 -11 93 4 106 b 92 188 44 140 68 164 b 94 168 92 181 93 175 b 106 142 96 160 100 150 b 131 124 113 133 121 126 b 185 124 150 117 168 119 b 232 140 201 126 217 133 b 315 189 261 154 289 171 b 392 246 342 207 367 226 b 393 250 393 247 394 249 z m 78 243 b 76 243 76 243 76 243 b 76 243 76 243 76 243 b 78 243 76 243 76 243 z m 6 136 b -42 106 -10 125 -26 113 b -43 106 -43 106 -43 106 b -35 125 -40 111 -37 119 b 35 217 -17 158 8 190 b 56 233 42 224 49 228 b 75 243 63 239 71 243 b 75 243 75 243 75 243 b 75 243 75 243 75 243 b 78 226 76 242 78 232 b 78 224 78 225 78 225 b 89 204 78 215 82 208 b 6 136 63 181 35 157 z "},"b":{"ha":790,"x_min":0,"x_max":0,"o":"m 808 249 b 514 168 707 239 608 207 b 490 157 506 165 499 161 b 490 196 492 169 492 182 b 464 239 486 211 478 228 b 418 254 449 249 433 253 b 376 253 404 256 389 254 b 338 246 363 250 350 249 b 261 224 311 240 286 233 b 122 154 213 206 165 182 b -1 58 78 125 38 93 b -40 21 -15 46 -28 33 b 32 193 -19 79 4 138 b 50 226 38 204 43 215 b 175 286 94 240 135 263 b 300 368 218 311 260 339 b 535 556 382 426 460 489 b 643 658 571 589 608 624 b 743 772 678 694 713 732 b 783 839 757 793 772 814 b 789 883 788 851 793 865 b 771 906 786 893 778 901 b 747 911 763 910 756 911 b 707 908 733 913 719 911 b 669 900 694 907 682 903 b 597 872 644 893 621 883 b 350 697 504 831 424 767 b 153 469 278 628 213 551 b -6 213 93 389 40 303 b -115 -71 -51 124 -92 29 b -115 -71 -115 -71 -115 -71 b -97 -100 -118 -85 -110 -97 b -69 -85 -85 -103 -74 -96 b -69 -85 -69 -85 -69 -85 b 29 25 -40 -46 -6 -8 b 146 118 65 60 104 90 b 276 186 186 144 231 168 b 346 207 299 194 322 201 b 382 214 358 210 369 213 b 415 217 393 217 404 217 b 442 208 426 215 435 213 b 454 188 447 204 451 197 b 450 139 457 174 454 156 b 246 22 379 104 311 65 b 124 -69 204 -6 163 -36 b 14 -178 85 -101 47 -136 b -8 -211 7 -187 -1 -199 b -22 -250 -14 -222 -21 -235 b -19 -275 -24 -258 -24 -267 b -1 -294 -17 -285 -8 -290 b 42 -304 14 -303 28 -304 b 119 -285 69 -303 96 -296 b 188 -246 144 -274 167 -260 b 306 -144 231 -217 269 -182 b 404 -26 342 -108 374 -68 b 479 111 433 17 461 61 b 488 140 482 121 485 131 b 519 156 499 146 508 151 b 808 242 611 197 708 229 b 813 246 811 242 813 243 b 808 249 813 247 810 249 z m 183 447 b 374 674 240 528 303 604 b 610 847 444 742 521 806 b 676 874 632 857 654 867 b 746 886 700 881 724 886 b 758 882 750 885 756 883 b 764 876 761 881 763 879 b 760 847 767 869 764 858 b 724 786 751 826 738 806 b 628 674 694 747 661 710 b 521 569 593 638 558 603 b 292 379 449 501 372 439 b 169 296 251 350 211 321 b 56 239 132 274 94 253 b 183 447 93 311 136 381 z m 376 -7 b 283 -124 349 -49 317 -87 b 172 -222 249 -160 213 -194 b 108 -260 151 -237 131 -250 b 42 -278 88 -271 64 -278 b 10 -274 31 -279 18 -278 b 1 -253 3 -269 0 -264 b 32 -192 4 -233 18 -211 b 136 -85 63 -153 99 -118 b 257 7 175 -51 215 -21 b 444 119 317 49 379 86 b 376 -7 429 75 404 33 z "},"c":{"ha":414,"x_min":0,"x_max":0,"o":"m 438 250 b 432 251 436 253 435 253 l 301 181 b 169 110 257 156 214 132 b 36 44 125 86 82 63 b 3 33 25 40 14 36 b -29 29 -10 29 -21 28 b -47 42 -39 31 -44 35 b -49 72 -50 50 -50 61 b -26 139 -46 94 -36 117 b 8 204 -17 161 -4 183 b 99 319 35 244 64 285 b 154 363 117 336 135 351 b 186 374 164 368 176 372 b 188 374 186 374 188 374 b 188 367 188 372 188 369 b 151 307 181 347 165 326 b 106 251 138 288 121 268 l 104 251 b 103 247 104 250 103 249 b 110 214 94 236 99 221 b 143 222 121 207 136 210 b 182 288 157 243 169 265 b 201 321 189 299 194 310 b 215 360 206 333 213 346 b 217 372 217 364 217 368 b 213 389 217 376 217 383 b 196 400 208 396 201 400 b 182 400 190 401 186 401 b 143 385 167 397 156 392 b 82 336 118 372 100 354 b -12 217 46 300 14 260 b -50 150 -26 196 -39 174 b -75 76 -61 128 -71 103 b -72 32 -76 63 -78 47 b -57 13 -69 25 -64 17 b -33 3 -50 7 -40 4 b 10 8 -17 1 -4 4 b 46 22 22 13 33 17 b 179 92 92 43 136 67 b 436 246 267 140 351 193 b 438 250 438 246 439 249 z "},"ç":{"ha":414,"x_min":0,"x_max":0,"o":"m 438 250 b 432 251 436 253 435 253 l 301 181 b 169 110 257 156 214 132 b 36 44 125 86 82 63 b 3 33 25 40 14 36 b -29 29 -10 29 -21 28 b -47 42 -39 31 -44 35 b -49 72 -50 50 -50 61 b -26 139 -46 94 -36 117 b 8 204 -17 161 -4 183 b 99 319 35 244 64 285 b 154 363 117 336 135 351 b 186 374 164 368 176 372 b 188 374 186 374 188 374 b 188 367 188 372 188 369 b 151 307 181 347 165 326 b 106 251 138 288 121 268 l 104 251 b 103 247 104 250 103 249 b 110 214 94 236 99 221 b 143 222 121 207 136 210 b 182 288 157 243 169 265 b 201 321 189 299 194 310 b 215 360 206 333 213 346 b 217 372 217 364 217 368 b 213 389 217 376 217 383 b 196 400 208 396 201 400 b 182 400 190 401 186 401 b 143 385 167 397 156 392 b 82 336 118 372 100 354 b -12 217 46 300 14 260 b -50 150 -26 196 -39 174 b -75 76 -61 128 -71 103 b -72 32 -76 63 -78 47 b -57 13 -69 25 -64 17 b -33 3 -50 7 -40 4 b 10 8 -17 1 -4 4 b 46 22 22 13 33 17 b 179 92 92 43 136 67 b 436 246 267 140 351 193 b 438 250 438 246 439 249 z "},"d":{"ha":431,"x_min":0,"x_max":0,"o":"m 747 944 b 715 938 736 951 722 949 b 629 804 686 892 658 847 b 271 351 519 646 400 493 b 178 254 240 318 210 286 b 168 283 176 264 174 274 b 150 303 164 290 158 297 b 138 308 146 306 142 307 b 125 310 133 310 129 310 b -24 203 108 313 56 317 b -71 122 -40 178 -57 151 b -87 76 -78 108 -83 94 b -87 47 -89 68 -90 58 b -75 31 -85 42 -81 35 b -71 29 -74 31 -72 29 b -62 26 -71 28 -64 26 b -58 26 -61 26 -60 26 l -56 28 b -53 29 -54 28 -53 28 b -10 54 -35 36 -24 44 b 26 82 3 63 14 72 b 288 336 121 160 206 247 b 454 536 344 401 400 468 l 360 394 l 272 258 b 183 122 242 214 213 168 b 100 -17 156 76 126 31 b 61 -90 86 -42 72 -65 b 44 -131 54 -103 49 -115 b 42 -142 43 -133 42 -137 b 39 -154 40 -144 39 -149 b 38 -168 38 -157 38 -164 b 40 -178 39 -172 39 -175 b 46 -190 42 -182 43 -186 b 79 -193 54 -200 69 -201 b 83 -161 89 -186 92 -172 b 85 -162 85 -162 85 -162 b 85 -162 85 -162 85 -162 b 83 -161 85 -162 83 -162 b 83 -160 83 -161 83 -160 b 83 -161 83 -160 83 -161 b 83 -158 83 -160 83 -160 b 85 -150 83 -156 83 -153 b 86 -142 85 -147 85 -144 b 97 -106 89 -129 92 -118 b 128 -32 106 -81 117 -57 b 204 110 151 17 176 64 b 374 385 257 204 315 294 b 558 651 433 475 494 564 b 754 910 621 739 686 825 b 756 911 754 910 754 911 b 747 944 763 922 758 938 z m 10 103 b -25 75 -1 93 -14 83 b -60 54 -37 68 -50 60 b -61 56 -60 56 -60 56 b -60 71 -61 58 -61 65 b -43 110 -56 83 -50 96 b 6 183 -29 135 -12 160 b 125 282 72 274 104 279 b 133 282 128 282 131 282 b 140 281 135 282 138 282 b 153 272 144 281 149 278 b 168 244 160 265 164 256 b 10 103 118 194 65 146 z "},"e":{"ha":372,"x_min":0,"x_max":0,"o":"m 392 256 b 386 256 390 257 388 257 b 179 125 321 206 253 161 b 68 78 143 106 106 89 b 10 65 49 71 29 67 b -15 68 1 64 -8 65 b -31 81 -22 71 -28 75 b -26 129 -37 93 -33 113 b -25 133 -26 131 -25 132 b -8 131 -19 131 -14 129 b 107 206 40 140 78 169 b 125 235 114 214 119 224 b 138 271 131 244 136 256 b 138 283 138 275 138 279 b 129 301 136 289 135 294 b 111 310 124 307 117 310 b 97 310 106 311 101 311 b 78 303 89 308 83 306 b 61 294 71 300 67 297 b 14 249 43 281 28 265 b -25 197 0 232 -12 215 b -54 139 -36 179 -46 161 b -61 106 -57 129 -61 118 b -54 68 -62 94 -61 81 b 13 42 -40 43 -8 39 b 75 57 35 43 54 50 b 188 110 114 71 151 89 b 392 250 260 150 328 197 b 392 256 393 251 393 253 z m 83 263 b 93 269 86 265 90 268 b 96 269 94 269 96 269 b 89 254 94 265 92 260 b 74 232 85 246 79 239 b 4 183 54 210 31 192 b 83 263 26 214 54 243 z "},"è":{"ha":372,"x_min":0,"x_max":0,"o":"m 392 256 b 386 256 390 257 388 257 b 179 125 321 206 253 161 b 68 78 143 106 106 89 b 10 65 49 71 29 67 b -15 68 1 64 -8 65 b -31 81 -22 71 -28 75 b -26 129 -37 93 -33 113 b -25 133 -26 131 -25 132 b -8 131 -19 131 -14 129 b 107 206 40 140 78 169 b 125 235 114 214 119 224 b 138 271 131 244 136 256 b 138 283 138 275 138 279 b 129 301 136 289 135 294 b 111 310 124 307 117 310 b 97 310 106 311 101 311 b 78 303 89 308 83 306 b 61 294 71 300 67 297 b 14 249 43 281 28 265 b -25 197 0 232 -12 215 b -54 139 -36 179 -46 161 b -61 106 -57 129 -61 118 b -54 68 -62 94 -61 81 b 13 42 -40 43 -8 39 b 75 57 35 43 54 50 b 188 110 114 71 151 89 b 392 250 260 150 328 197 b 392 256 393 251 393 253 z m 83 263 b 93 269 86 265 90 268 b 96 269 94 269 96 269 b 89 254 94 265 92 260 b 74 232 85 246 79 239 b 4 183 54 210 31 192 b 83 263 26 214 54 243 z "},"é":{"ha":372,"x_min":0,"x_max":0,"o":"m 392 256 b 386 256 390 257 388 257 b 179 125 321 206 253 161 b 68 78 143 106 106 89 b 10 65 49 71 29 67 b -15 68 1 64 -8 65 b -31 81 -22 71 -28 75 b -26 129 -37 93 -33 113 b -25 133 -26 131 -25 132 b -8 131 -19 131 -14 129 b 107 206 40 140 78 169 b 125 235 114 214 119 224 b 138 271 131 244 136 256 b 138 283 138 275 138 279 b 129 301 136 289 135 294 b 111 310 124 307 117 310 b 97 310 106 311 101 311 b 78 303 89 308 83 306 b 61 294 71 300 67 297 b 14 249 43 281 28 265 b -25 197 0 232 -12 215 b -54 139 -36 179 -46 161 b -61 106 -57 129 -61 118 b -54 68 -62 94 -61 81 b 13 42 -40 43 -8 39 b 75 57 35 43 54 50 b 188 110 114 71 151 89 b 392 250 260 150 328 197 b 392 256 393 251 393 253 z m 83 263 b 93 269 86 265 90 268 b 96 269 94 269 96 269 b 89 254 94 265 92 260 b 74 232 85 246 79 239 b 4 183 54 210 31 192 b 83 263 26 214 54 243 z "},"ê":{"ha":372,"x_min":0,"x_max":0,"o":"m 392 256 b 386 256 390 257 388 257 b 179 125 321 206 253 161 b 68 78 143 106 106 89 b 10 65 49 71 29 67 b -15 68 1 64 -8 65 b -31 81 -22 71 -28 75 b -26 129 -37 93 -33 113 b -25 133 -26 131 -25 132 b -8 131 -19 131 -14 129 b 107 206 40 140 78 169 b 125 235 114 214 119 224 b 138 271 131 244 136 256 b 138 283 138 275 138 279 b 129 301 136 289 135 294 b 111 310 124 307 117 310 b 97 310 106 311 101 311 b 78 303 89 308 83 306 b 61 294 71 300 67 297 b 14 249 43 281 28 265 b -25 197 0 232 -12 215 b -54 139 -36 179 -46 161 b -61 106 -57 129 -61 118 b -54 68 -62 94 -61 81 b 13 42 -40 43 -8 39 b 75 57 35 43 54 50 b 188 110 114 71 151 89 b 392 250 260 150 328 197 b 392 256 393 251 393 253 z m 83 263 b 93 269 86 265 90 268 b 96 269 94 269 96 269 b 89 254 94 265 92 260 b 74 232 85 246 79 239 b 4 183 54 210 31 192 b 83 263 26 214 54 243 z "},"ë":{"ha":372,"x_min":0,"x_max":0,"o":"m 392 256 b 386 256 390 257 388 257 b 179 125 321 206 253 161 b 68 78 143 106 106 89 b 10 65 49 71 29 67 b -15 68 1 64 -8 65 b -31 81 -22 71 -28 75 b -26 129 -37 93 -33 113 b -25 133 -26 131 -25 132 b -8 131 -19 131 -14 129 b 107 206 40 140 78 169 b 125 235 114 214 119 224 b 138 271 131 244 136 256 b 138 283 138 275 138 279 b 129 301 136 289 135 294 b 111 310 124 307 117 310 b 97 310 106 311 101 311 b 78 303 89 308 83 306 b 61 294 71 300 67 297 b 14 249 43 281 28 265 b -25 197 0 232 -12 215 b -54 139 -36 179 -46 161 b -61 106 -57 129 -61 118 b -54 68 -62 94 -61 81 b 13 42 -40 43 -8 39 b 75 57 35 43 54 50 b 188 110 114 71 151 89 b 392 250 260 150 328 197 b 392 256 393 251 393 253 z m 83 263 b 93 269 86 265 90 268 b 96 269 94 269 96 269 b 89 254 94 265 92 260 b 74 232 85 246 79 239 b 4 183 54 210 31 192 b 83 263 26 214 54 243 z "},"f":{"ha":331,"x_min":0,"x_max":0,"o":"m 414 751 b 408 765 413 756 413 760 b 390 781 406 771 400 778 b 369 782 382 783 375 783 b 357 778 364 781 360 779 b 339 765 350 774 344 769 b 290 715 319 750 306 733 b 250 663 276 699 263 681 b 110 440 199 590 153 517 b -117 -32 24 289 -54 132 b -186 -286 -147 -114 -174 -199 b -192 -353 -190 -308 -192 -331 b -189 -387 -192 -365 -190 -376 b -175 -425 -187 -399 -186 -411 b -164 -433 -172 -428 -169 -432 b -149 -436 -160 -436 -154 -436 b -128 -426 -140 -435 -133 -431 b -104 -399 -117 -417 -111 -408 b -68 -343 -90 -381 -79 -362 b 15 -93 -26 -264 0 -179 b 15 150 29 -14 35 69 b 89 157 40 151 65 153 b 179 176 119 163 149 168 b 265 206 208 185 238 194 b 349 242 294 217 322 228 b 351 249 351 243 351 246 b 344 250 350 250 347 251 b 174 197 290 226 232 208 b 86 183 144 190 115 186 b 14 181 63 181 38 181 b 144 421 54 263 99 342 b 286 636 189 494 235 568 b 325 686 299 654 311 671 b 368 729 339 703 353 718 b 368 731 368 731 368 731 b 358 672 368 713 363 692 l 357 671 b 357 671 357 671 357 671 b 375 642 354 658 363 646 b 404 660 388 639 401 647 b 415 729 410 682 414 704 b 414 751 415 736 415 743 z m -4 -89 b -90 -331 -21 -174 -49 -256 b -125 -383 -101 -349 -112 -367 b -144 -406 -132 -392 -137 -400 b -153 -410 -147 -407 -151 -410 b -154 -408 -153 -408 -153 -410 b -161 -383 -158 -404 -160 -393 b -164 -353 -162 -374 -162 -364 b -158 -290 -164 -332 -161 -311 b -86 -44 -144 -207 -117 -124 b -1 149 -60 21 -32 86 b -1 149 -1 149 -1 149 b -4 -89 17 71 11 -11 z "}}}
